CharisSIL-Regular.ufo
<glyph name="QuotMrk" format="2">
  <advance width="682"/>
  <unicode hex="0022"/>
  <outline>
    <contour>
      <point x="594" y="1362" type="line"/>
      <point x="594" y="1425"/>
      <point x="563" y="1462"/>
      <point x="506" y="1462" type="curve" smooth="yes"/>
      <point x="451" y="1462"/>
      <point x="420" y="1425"/>
      <point x="420" y="1362" type="curve"/>
      <point x="489" y="862" type="line"/>
      <point x="522" y="862" type="line"/>
    </contour>
    <contour>
      <point x="262" y="1362" type="line"/>
      <point x="262" y="1425"/>
      <point x="233" y="1462"/>
      <point x="176" y="1462" type="curve" smooth="yes"/>
      <point x="121" y="1462"/>
      <point x="88" y="1425"/>
      <point x="88" y="1362" type="curve"/>
      <point x="160" y="862" type="line"/>
      <point x="193" y="862" type="line"/>
    </contour>
  </outline>
</glyph>
<glyph name="DollarSgn" format="2">
  <advance width="1153"/>
  <unicode hex="0024"/>
  <outline>
    <contour>
      <point x="1034" y="389" type="curve" smooth="yes"/>
      <point x="1034" y="670"/>
      <point x="807" y="733"/>
      <point x="629" y="786" type="curve"/>
      <point x="629" y="1274" type="line"/>
      <point x="737" y="1274"/>
      <point x="809" y="1255"/>
      <point x="840" y="1221" type="curve"/>
      <point x="870" y="1004" type="line"/>
      <point x="977" y="1004" type="line"/>
      <point x="977" y="1327" type="line"/>
      <point x="977" y="1327"/>
      <point x="805" y="1374"/>
      <point x="629" y="1374" type="curve"/>
      <point x="629" y="1522" type="line"/>
      <point x="535" y="1522" type="line"/>
      <point x="535" y="1368" type="line"/>
      <point x="373" y="1343"/>
      <point x="152" y="1239"/>
      <point x="152" y="991" type="curve" smooth="yes"/>
      <point x="152" y="756"/>
      <point x="354" y="659"/>
      <point x="532" y="618" type="curve"/>
      <point x="532" y="100" type="line"/>
      <point x="420" y="100"/>
      <point x="295" y="127"/>
      <point x="258" y="172" type="curve"/>
      <point x="221" y="401" type="line"/>
      <point x="119" y="401" type="line"/>
      <point x="119" y="53" type="line"/>
      <point x="258" y="12"/>
      <point x="430" y="6"/>
      <point x="532" y="0" type="curve"/>
      <point x="532" y="-211" type="line"/>
      <point x="627" y="-211" type="line"/>
      <point x="627" y="0" type="line"/>
      <point x="762" y="8"/>
      <point x="1034" y="137"/>
    </contour>
    <contour>
      <point x="535" y="813" type="line"/>
      <point x="451" y="844"/>
      <point x="342" y="899"/>
      <point x="342" y="1032" type="curve" smooth="yes"/>
      <point x="342" y="1167"/>
      <point x="426" y="1243"/>
      <point x="535" y="1266" type="curve"/>
    </contour>
    <contour>
      <point x="848" y="350" type="curve" smooth="yes"/>
      <point x="848" y="203"/>
      <point x="743" y="129"/>
      <point x="627" y="109" type="curve"/>
      <point x="627" y="594" type="line"/>
      <point x="743" y="557"/>
      <point x="848" y="500"/>
    </contour>
  </outline>
</glyph>
<glyph name="Apos" format="2">
  <advance width="350"/>
  <unicode hex="0027"/>
  <outline>
    <contour>
      <point x="262" y="1362" type="line"/>
      <point x="262" y="1425"/>
      <point x="231" y="1462"/>
      <point x="174" y="1462" type="curve" smooth="yes"/>
      <point x="119" y="1462"/>
      <point x="88" y="1425"/>
      <point x="88" y="1362" type="curve"/>
      <point x="160" y="862" type="line"/>
      <point x="193" y="862" type="line"/>
    </contour>
  </outline>
</glyph>
<glyph name="LftParen" format="2">
  <advance width="770"/>
  <unicode hex="0028"/>
  <outline>
    <contour>
      <point x="702" y="-291" type="curve"/>
      <point x="702" y="-201" type="line"/>
      <point x="414" y="-154"/>
      <point x="311" y="135"/>
      <point x="311" y="590" type="curve" smooth="yes"/>
      <point x="311" y="1044"/>
      <point x="414" y="1331"/>
      <point x="702" y="1378" type="curve"/>
      <point x="702" y="1468" type="line"/>
      <point x="274" y="1422"/>
      <point x="121" y="1036"/>
      <point x="121" y="590" type="curve" smooth="yes"/>
      <point x="121" y="143"/>
      <point x="274" y="-244"/>
    </contour>
  </outline>
</glyph>
<glyph name="Asterisk" format="2">
  <advance width="1024"/>
  <unicode hex="002A"/>
  <outline>
    <contour>
      <point x="915" y="1167" type="line"/>
      <point x="770" y="1210" type="line"/>
      <point x="549" y="1065" type="line"/>
      <point x="559" y="1036" type="line"/>
      <point x="823" y="1051" type="line"/>
    </contour>
    <contour>
      <point x="598" y="1341" type="line"/>
      <point x="512" y="1466" type="line"/>
      <point x="428" y="1341" type="line"/>
      <point x="498" y="1085" type="line"/>
      <point x="526" y="1085" type="line"/>
    </contour>
    <contour>
      <point x="760" y="690" type="line"/>
      <point x="756" y="842" type="line"/>
      <point x="549" y="1008" type="line"/>
      <point x="524" y="989" type="line"/>
      <point x="618" y="743" type="line"/>
    </contour>
    <contour>
      <point x="475" y="1065" type="line"/>
      <point x="254" y="1210" type="line"/>
      <point x="109" y="1167" type="line"/>
      <point x="201" y="1051" type="line"/>
      <point x="467" y="1036" type="line"/>
    </contour>
    <contour>
      <point x="500" y="989" type="line"/>
      <point x="475" y="1008" type="line"/>
      <point x="268" y="842" type="line"/>
      <point x="264" y="690" type="line"/>
      <point x="406" y="743" type="line"/>
    </contour>
  </outline>
</glyph>
<glyph name="DigitThree" format="2">
  <advance width="1153"/>
  <unicode hex="0033"/>
  <anchor x="576" y="-100" name="L"/>
  <anchor x="576" y="1500" name="U"/>
  <outline>
    <contour>
      <point x="1057" y="391" type="curve" smooth="yes"/>
      <point x="1057" y="616"/>
      <point x="860" y="715"/>
      <point x="688" y="723" type="curve"/>
      <point x="891" y="780"/>
      <point x="1004" y="899"/>
      <point x="1004" y="1053" type="curve" smooth="yes"/>
      <point x="1004" y="1270"/>
      <point x="821" y="1407"/>
      <point x="584" y="1407" type="curve" smooth="yes"/>
      <point x="338" y="1407"/>
      <point x="131" y="1276"/>
      <point x="131" y="1120" type="curve" smooth="yes"/>
      <point x="131" y="1032"/>
      <point x="201" y="1006"/>
      <point x="250" y="1006" type="curve" smooth="yes"/>
      <point x="301" y="1006"/>
      <point x="334" y="1026"/>
      <point x="342" y="1032" type="curve"/>
      <point x="342" y="1237" type="line"/>
      <point x="375" y="1262"/>
      <point x="447" y="1294"/>
      <point x="526" y="1294" type="curve" smooth="yes"/>
      <point x="666" y="1294"/>
      <point x="795" y="1198"/>
      <point x="795" y="1026" type="curve" smooth="yes"/>
      <point x="795" y="846"/>
      <point x="639" y="766"/>
      <point x="467" y="766" type="curve" smooth="yes"/>
      <point x="446" y="766"/>
      <point x="419" y="767"/>
      <point x="414" y="768" type="curve"/>
      <point x="414" y="641" type="line"/>
      <point x="437" y="644"/>
      <point x="486" y="649"/>
      <point x="539" y="649" type="curve" smooth="yes"/>
      <point x="674" y="649"/>
      <point x="846" y="590"/>
      <point x="846" y="391" type="curve" smooth="yes"/>
      <point x="846" y="227"/>
      <point x="717" y="70"/>
      <point x="526" y="70" type="curve" smooth="yes"/>
      <point x="461" y="70"/>
      <point x="401" y="92"/>
      <point x="348" y="123" type="curve"/>
      <point x="287" y="305" type="line"/>
      <point x="270" y="317"/>
      <point x="233" y="319"/>
      <point x="217" y="319" type="curve" smooth="yes"/>
      <point x="135" y="319"/>
      <point x="96" y="264"/>
      <point x="96" y="209" type="curve" smooth="yes"/>
      <point x="96" y="109"/>
      <point x="244" y="-33"/>
      <point x="520" y="-33" type="curve" smooth="yes"/>
      <point x="815" y="-33"/>
      <point x="1057" y="143"/>
    </contour>
  </outline>
</glyph>
<glyph name="DigitFour" format="2">
  <advance width="1153"/>
  <unicode hex="0034"/>
  <anchor x="576" y="-100" name="L"/>
  <anchor x="576" y="1500" name="U"/>
  <outline>
    <contour>
      <point x="1071" y="408" type="line"/>
      <point x="1071" y="547" type="line"/>
      <point x="897" y="547" type="line"/>
      <point x="897" y="1407" type="line"/>
      <point x="754" y="1407" type="line"/>
      <point x="82" y="549" type="line"/>
      <point x="82" y="408" type="line"/>
      <point x="705" y="408" type="line"/>
      <point x="705" y="-33" type="line"/>
      <point x="897" y="-33" type="line"/>
      <point x="897" y="408" type="line"/>
    </contour>
    <contour>
      <point x="705" y="547" type="line"/>
      <point x="244" y="547" type="line"/>
      <point x="705" y="1145" type="line"/>
    </contour>
  </outline>
</glyph>
<glyph name="Colon" format="2">
  <advance width="573"/>
  <unicode hex="003A"/>
  <outline>
    <contour>
      <point x="401" y="874" type="curve" smooth="yes"/>
      <point x="401" y="950"/>
      <point x="338" y="1012"/>
      <point x="262" y="1012" type="curve" smooth="yes"/>
      <point x="186" y="1012"/>
      <point x="125" y="950"/>
      <point x="125" y="874" type="curve" smooth="yes"/>
      <point x="125" y="799"/>
      <point x="186" y="737"/>
      <point x="262" y="737" type="curve" smooth="yes"/>
      <point x="338" y="737"/>
      <point x="401" y="799"/>
    </contour>
    <contour>
      <point x="401" y="113" type="curve" smooth="yes"/>
      <point x="401" y="188"/>
      <point x="338" y="250"/>
      <point x="262" y="250" type="curve" smooth="yes"/>
      <point x="186" y="250"/>
      <point x="125" y="188"/>
      <point x="125" y="113" type="curve" smooth="yes"/>
      <point x="125" y="37"/>
      <point x="186" y="-25"/>
      <point x="262" y="-25" type="curve" smooth="yes"/>
      <point x="338" y="-25"/>
      <point x="401" y="37"/>
    </contour>
  </outline>
</glyph>
<glyph name="LTSgn" format="2">
  <advance width="2048"/>
  <unicode hex="003C"/>
  <outline>
    <contour>
      <point x="1638" y="80" type="line"/>
      <point x="1638" y="207" type="line"/>
      <point x="541" y="614" type="line"/>
      <point x="1638" y="1022" type="line"/>
      <point x="1638" y="1149" type="line"/>
      <point x="410" y="678" type="line"/>
      <point x="410" y="551" type="line"/>
    </contour>
  </outline>
</glyph>
<glyph name="LtnCapN" format="2">
  <advance width="1477"/>
  <unicode hex="004E"/>
  <anchor x="1180" y="0" name="H"/>
  <anchor x="734" y="-100" name="L"/>
  <anchor x="734" y="1500" name="U"/>
  <outline>
    <contour>
      <point x="1417" y="1286" type="line"/>
      <point x="1417" y="1374" type="line"/>
      <point x="979" y="1374" type="line"/>
      <point x="979" y="1286" type="line"/>
      <point x="1096" y="1278" type="line" smooth="yes"/>
      <point x="1124" y="1276"/>
      <point x="1139" y="1253"/>
      <point x="1139" y="1233" type="curve" smooth="yes"/>
      <point x="1139" y="293" type="line"/>
      <point x="457" y="1323" type="line"/>
      <point x="457" y="1374" type="line"/>
      <point x="51" y="1374" type="line"/>
      <point x="51" y="1286" type="line"/>
      <point x="172" y="1278" type="line" smooth="yes"/>
      <point x="201" y="1276"/>
      <point x="217" y="1253"/>
      <point x="217" y="1233" type="curve" smooth="yes"/>
      <point x="217" y="141" type="line" smooth="yes"/>
      <point x="217" y="121"/>
      <point x="201" y="98"/>
      <point x="172" y="96" type="curve" smooth="yes"/>
      <point x="55" y="88" type="line"/>
      <point x="55" y="0" type="line"/>
      <point x="498" y="0" type="line"/>
      <point x="498" y="88" type="line"/>
      <point x="381" y="96" type="line" smooth="yes"/>
      <point x="352" y="98"/>
      <point x="338" y="121"/>
      <point x="338" y="141" type="curve" smooth="yes"/>
      <point x="338" y="1147" type="line"/>
      <point x="1100" y="0" type="line"/>
      <point x="1260" y="0" type="line"/>
      <point x="1260" y="1233" type="line" smooth="yes"/>
      <point x="1260" y="1253"/>
      <point x="1274" y="1276"/>
      <point x="1303" y="1278" type="curve" smooth="yes"/>
    </contour>
  </outline>
</glyph>
<glyph name="LtnCapU" format="2">
  <advance width="1458"/>
  <unicode hex="0055"/>
  <anchor x="733" y="0" name="H"/>
  <anchor x="750" y="-100" name="L"/>
  <anchor x="1045" y="0" name="O"/>
  <anchor x="1508" y="1350" name="R"/>
  <anchor x="750" y="1500" name="U"/>
  <outline>
    <contour>
      <point x="1403" y="1286" type="line"/>
      <point x="1403" y="1374" type="line"/>
      <point x="958" y="1374" type="line"/>
      <point x="958" y="1286" type="line"/>
      <point x="1075" y="1278" type="line" smooth="yes"/>
      <point x="1104" y="1276"/>
      <point x="1120" y="1253"/>
      <point x="1120" y="1233" type="curve" smooth="yes"/>
      <point x="1120" y="508" type="line" smooth="yes"/>
      <point x="1120" y="281"/>
      <point x="1053" y="104"/>
      <point x="770" y="104" type="curve" smooth="yes"/>
      <point x="485" y="104"/>
      <point x="424" y="268"/>
      <point x="424" y="508" type="curve" smooth="yes"/>
      <point x="424" y="1233" type="line" smooth="yes"/>
      <point x="424" y="1253"/>
      <point x="438" y="1276"/>
      <point x="467" y="1278" type="curve" smooth="yes"/>
      <point x="584" y="1286" type="line"/>
      <point x="584" y="1374" type="line"/>
      <point x="63" y="1374" type="line"/>
      <point x="63" y="1286" type="line"/>
      <point x="172" y="1278" type="line" smooth="yes"/>
      <point x="201" y="1276"/>
      <point x="215" y="1253"/>
      <point x="215" y="1233" type="curve" smooth="yes"/>
      <point x="215" y="455" type="line" smooth="yes"/>
      <point x="215" y="133"/>
      <point x="377" y="-33"/>
      <point x="715" y="-33" type="curve" smooth="yes"/>
      <point x="1057" y="-33"/>
      <point x="1241" y="119"/>
      <point x="1241" y="455" type="curve" smooth="yes"/>
      <point x="1241" y="1233" type="line" smooth="yes"/>
      <point x="1241" y="1253"/>
      <point x="1255" y="1276"/>
      <point x="1284" y="1278" type="curve" smooth="yes"/>
    </contour>
  </outline>
</glyph>
<glyph name="LtnCapV" format="2">
  <advance width="1364"/>
  <unicode hex="0056"/>
  <anchor x="692" y="0" name="H"/>
  <anchor x="705" y="-100" name="L"/>
  <anchor x="840" y="0" name="O"/>
  <anchor x="705" y="1500" name="U"/>
  <outline>
    <contour>
      <point x="1343" y="1286" type="line"/>
      <point x="1343" y="1374" type="line"/>
      <point x="936" y="1374" type="line"/>
      <point x="936" y="1286" type="line"/>
      <point x="1049" y="1276" type="line" smooth="yes"/>
      <point x="1067" y="1274"/>
      <point x="1083" y="1251"/>
      <point x="1077" y="1235" type="curve" smooth="yes"/>
      <point x="731" y="227" type="line"/>
      <point x="371" y="1239" type="line" smooth="yes"/>
      <point x="367" y="1251"/>
      <point x="375" y="1274"/>
      <point x="389" y="1276" type="curve" smooth="yes"/>
      <point x="510" y="1286" type="line"/>
      <point x="510" y="1374" type="line"/>
      <point x="20" y="1374" type="line"/>
      <point x="20" y="1286" type="line"/>
      <point x="141" y="1266" type="line"/>
      <point x="610" y="-33" type="line"/>
      <point x="766" y="-33" type="line"/>
      <point x="1225" y="1264" type="line"/>
    </contour>
  </outline>
</glyph>
<glyph name="LtnCapX" format="2">
  <advance width="1298"/>
  <unicode hex="0058"/>
  <anchor x="649" y="-100" name="L"/>
  <anchor x="649" y="1500" name="U"/>
  <outline>
    <contour>
      <point x="1278" y="0" type="line"/>
      <point x="1278" y="88" type="line"/>
      <point x="1151" y="113" type="line"/>
      <point x="748" y="743" type="line"/>
      <point x="1128" y="1266" type="line"/>
      <point x="1260" y="1286" type="line"/>
      <point x="1260" y="1374" type="line"/>
      <point x="831" y="1374" type="line"/>
      <point x="831" y="1286" type="line"/>
      <point x="936" y="1272" type="line" smooth="yes"/>
      <point x="956" y="1270"/>
      <point x="973" y="1249"/>
      <point x="958" y="1229" type="curve" smooth="yes"/>
      <point x="682" y="850" type="line"/>
      <point x="432" y="1235" type="line" smooth="yes"/>
      <point x="422" y="1251"/>
      <point x="424" y="1274"/>
      <point x="457" y="1276" type="curve" smooth="yes"/>
      <point x="561" y="1286" type="line"/>
      <point x="561" y="1374" type="line"/>
      <point x="47" y="1374" type="line"/>
      <point x="47" y="1286" type="line"/>
      <point x="182" y="1262" type="line"/>
      <point x="555" y="678" type="line"/>
      <point x="143" y="113" type="line"/>
      <point x="20" y="88" type="line"/>
      <point x="20" y="0" type="line"/>
      <point x="455" y="0" type="line"/>
      <point x="455" y="88" type="line"/>
      <point x="332" y="98" type="line" smooth="yes"/>
      <point x="299" y="100"/>
      <point x="297" y="123"/>
      <point x="307" y="137" type="curve" smooth="yes"/>
      <point x="623" y="571" type="line"/>
      <point x="895" y="143" type="line" smooth="yes"/>
      <point x="907" y="123"/>
      <point x="891" y="102"/>
      <point x="870" y="100" type="curve" smooth="yes"/>
      <point x="752" y="88" type="line"/>
      <point x="752" y="0" type="line"/>
    </contour>
  </outline>
</glyph>
<glyph name="LowLine" format="2">
  <advance width="686"/>
  <unicode hex="005F"/>
  <outline>
    <contour>
      <point x="686" y="-305" type="line"/>
      <point x="686" y="-175" type="line"/>
      <point x="0" y="-175" type="line"/>
      <point x="0" y="-305" type="line"/>
    </contour>
  </outline>
</glyph>
<glyph name="LtnSmB" format="2">
  <advance width="1137"/>
  <unicode hex="0062"/>
  <anchor x="558" y="0" name="H"/>
  <anchor x="600" y="-100" name="L"/>
  <anchor x="1137" y="1000" name="R"/>
  <anchor x="600" y="1540" name="U"/>
  <outline>
    <contour>
      <point x="1067" y="541" type="curve" smooth="yes"/>
      <point x="1067" y="793"/>
      <point x="926" y="1012"/>
      <point x="657" y="1012" type="curve" smooth="yes"/>
      <point x="537" y="1012"/>
      <point x="422" y="959"/>
      <point x="375" y="936" type="curve"/>
      <point x="375" y="1509" type="line"/>
      <point x="293" y="1509" type="line"/>
      <point x="29" y="1430" type="line"/>
      <point x="29" y="1362" type="line"/>
      <point x="184" y="1362" type="line"/>
      <point x="184" y="0" type="line"/>
      <point x="479" y="0" type="line" smooth="yes"/>
      <point x="891" y="0"/>
      <point x="1067" y="233"/>
    </contour>
    <contour>
      <point x="858" y="500" type="curve" smooth="yes"/>
      <point x="858" y="201"/>
      <point x="717" y="96"/>
      <point x="475" y="96" type="curve" smooth="yes"/>
      <point x="442" y="96"/>
      <point x="408" y="96"/>
      <point x="375" y="98" type="curve"/>
      <point x="375" y="858" type="line"/>
      <point x="416" y="872"/>
      <point x="500" y="891"/>
      <point x="545" y="891" type="curve" smooth="yes"/>
      <point x="743" y="891"/>
      <point x="858" y="758"/>
    </contour>
  </outline>
</glyph>
<glyph name="LtnSmD" format="2">
  <advance width="1155"/>
  <unicode hex="0064"/>
  <anchor x="586" y="0" name="H"/>
  <anchor x="586" y="-100" name="L"/>
  <anchor x="1101" y="1000" name="R"/>
  <anchor x="586" y="1540" name="U"/>
  <outline>
    <contour>
      <point x="1102" y="0" type="line"/>
      <point x="1102" y="80" type="line"/>
      <point x="1014" y="86" type="line" smooth="yes"/>
      <point x="989" y="88"/>
      <point x="971" y="106"/>
      <point x="971" y="131" type="curve" smooth="yes"/>
      <point x="971" y="1509" type="line"/>
      <point x="889" y="1509" type="line"/>
      <point x="625" y="1430" type="line"/>
      <point x="625" y="1362" type="line"/>
      <point x="780" y="1362" type="line"/>
      <point x="780" y="987" type="line"/>
      <point x="748" y="995"/>
      <point x="657" y="1012"/>
      <point x="592" y="1012" type="curve" smooth="yes"/>
      <point x="240" y="1012"/>
      <point x="70" y="745"/>
      <point x="70" y="467" type="curve" smooth="yes"/>
      <point x="70" y="236"/>
      <point x="188" y="-25"/>
      <point x="463" y="-25" type="curve" smooth="yes"/>
      <point x="582" y="-25"/>
      <point x="686" y="37"/>
      <point x="780" y="109" type="curve"/>
      <point x="780" y="0" type="line"/>
    </contour>
    <contour>
      <point x="780" y="186" type="line"/>
      <point x="727" y="154"/>
      <point x="651" y="115"/>
      <point x="569" y="115" type="curve" smooth="yes"/>
      <point x="381" y="115"/>
      <point x="272" y="279"/>
      <point x="272" y="502" type="curve" smooth="yes"/>
      <point x="272" y="750"/>
      <point x="403" y="913"/>
      <point x="606" y="913" type="curve" smooth="yes"/>
      <point x="666" y="913"/>
      <point x="745" y="895"/>
      <point x="780" y="883" type="curve"/>
    </contour>
  </outline>
</glyph>
<glyph name="LtnSmO" format="2">
  <advance width="1114"/>
  <unicode hex="006F"/>
  <anchor x="557" y="0" name="H"/>
  <anchor x="557" y="-100" name="L"/>
  <anchor x="838" y="0" name="O"/>
  <anchor x="1114" y="1000" name="R"/>
  <anchor x="557" y="1100" name="U"/>
  <outline>
    <contour>
      <point x="1044" y="492" type="curve" smooth="yes"/>
      <point x="1044" y="780"/>
      <point x="866" y="1012"/>
      <point x="561" y="1012" type="curve" smooth="yes"/>
      <point x="258" y="1012"/>
      <point x="70" y="784"/>
      <point x="70" y="492" type="curve" smooth="yes"/>
      <point x="70" y="197"/>
      <point x="256" y="-25"/>
      <point x="555" y="-25" type="curve" smooth="yes"/>
      <point x="854" y="-25"/>
      <point x="1044" y="201"/>
    </contour>
    <contour>
      <point x="831" y="494" type="curve" smooth="yes"/>
      <point x="831" y="270"/>
      <point x="745" y="68"/>
      <point x="557" y="68" type="curve" smooth="yes"/>
      <point x="373" y="68"/>
      <point x="285" y="272"/>
      <point x="285" y="494" type="curve" smooth="yes"/>
      <point x="285" y="717"/>
      <point x="369" y="920"/>
      <point x="559" y="920" type="curve" smooth="yes"/>
      <point x="743" y="920"/>
      <point x="831" y="717"/>
    </contour>
  </outline>
</glyph>
<glyph name="LtnSmV" format="2">
  <advance width="1083"/>
  <unicode hex="0076"/>
  <anchor x="530" y="0" name="H"/>
  <anchor x="541" y="-100" name="L"/>
  <anchor x="665" y="0" name="O"/>
  <anchor x="541" y="1100" name="U"/>
  <outline>
    <contour>
      <point x="1063" y="907" type="line"/>
      <point x="1063" y="987" type="line"/>
      <point x="705" y="987" type="line"/>
      <point x="705" y="907" type="line"/>
      <point x="797" y="901" type="line" smooth="yes"/>
      <point x="819" y="899"/>
      <point x="834" y="877"/>
      <point x="825" y="856" type="curve" smooth="yes"/>
      <point x="573" y="215" type="line"/>
      <point x="344" y="856" type="line" smooth="yes"/>
      <point x="336" y="879"/>
      <point x="352" y="899"/>
      <point x="375" y="901" type="curve" smooth="yes"/>
      <point x="473" y="907" type="line"/>
      <point x="473" y="987" type="line"/>
      <point x="20" y="987" type="line"/>
      <point x="20" y="907" type="line"/>
      <point x="133" y="895" type="line"/>
      <point x="463" y="0" type="line"/>
      <point x="596" y="0" type="line"/>
      <point x="954" y="895" type="line"/>
    </contour>
  </outline>
</glyph>
<glyph name="RtCurlyBrac" format="2">
  <advance width="999"/>
  <unicode hex="007D"/>
  <outline>
    <contour>
      <point x="141" y="-252" type="line"/>
      <point x="287" y="-252"/>
      <point x="430" y="-233"/>
      <point x="498" y="-162" type="curve" smooth="yes"/>
      <point x="590" y="-66"/>
      <point x="582" y="68"/>
      <point x="582" y="203" type="curve" smooth="yes"/>
      <point x="582" y="293"/>
      <point x="575" y="432"/>
      <point x="639" y="494" type="curve" smooth="yes"/>
      <point x="688" y="541"/>
      <point x="758" y="549"/>
      <point x="877" y="549" type="curve"/>
      <point x="877" y="641" type="line"/>
      <point x="758" y="641"/>
      <point x="688" y="649"/>
      <point x="639" y="696" type="curve" smooth="yes"/>
      <point x="575" y="758"/>
      <point x="582" y="897"/>
      <point x="582" y="987" type="curve" smooth="yes"/>
      <point x="582" y="1122"/>
      <point x="590" y="1255"/>
      <point x="498" y="1352" type="curve" smooth="yes"/>
      <point x="430" y="1423"/>
      <point x="287" y="1442"/>
      <point x="141" y="1442" type="curve"/>
      <point x="141" y="1358" type="line"/>
      <point x="176" y="1358"/>
      <point x="299" y="1352"/>
      <point x="350" y="1296" type="curve" smooth="yes"/>
      <point x="408" y="1235"/>
      <point x="399" y="1108"/>
      <point x="399" y="993" type="curve" smooth="yes"/>
      <point x="399" y="899"/>
      <point x="403" y="782"/>
      <point x="459" y="713" type="curve" smooth="yes"/>
      <point x="512" y="643"/>
      <point x="592" y="614"/>
      <point x="676" y="596" type="curve"/>
      <point x="592" y="578"/>
      <point x="512" y="547"/>
      <point x="459" y="477" type="curve" smooth="yes"/>
      <point x="403" y="408"/>
      <point x="399" y="291"/>
      <point x="399" y="197" type="curve" smooth="yes"/>
      <point x="399" y="82"/>
      <point x="408" y="-45"/>
      <point x="350" y="-106" type="curve" smooth="yes"/>
      <point x="299" y="-162"/>
      <point x="176" y="-168"/>
      <point x="141" y="-168" type="curve"/>
    </contour>
  </outline>
</glyph>
<glyph name="InvExclamationMrk" format="2">
  <advance width="692"/>
  <unicode hex="00A1"/>
  <outline>
    <contour>
      <point x="471" y="885" type="curve" smooth="yes"/>
      <point x="471" y="955"/>
      <point x="416" y="1012"/>
      <point x="346" y="1012" type="curve" smooth="yes"/>
      <point x="276" y="1012"/>
      <point x="219" y="955"/>
      <point x="219" y="885" type="curve" smooth="yes"/>
      <point x="219" y="815"/>
      <point x="276" y="760"/>
      <point x="346" y="760" type="curve" smooth="yes"/>
      <point x="416" y="760"/>
      <point x="471" y="815"/>
    </contour>
    <contour>
      <point x="469" y="-262" type="curve"/>
      <point x="395" y="617" type="line"/>
      <point x="297" y="617" type="line"/>
      <point x="221" y="-262" type="line" smooth="yes"/>
      <point x="211" y="-379"/>
      <point x="266" y="-420"/>
      <point x="346" y="-420" type="curve" smooth="yes"/>
      <point x="426" y="-420"/>
      <point x="479" y="-379"/>
    </contour>
  </outline>
</glyph>
<glyph name="PoundSgn" format="2">
  <advance width="1153"/>
  <unicode hex="00A3"/>
  <outline>
    <contour>
      <point x="1061" y="0" type="line"/>
      <point x="1061" y="168" type="line"/>
      <point x="455" y="168" type="line" smooth="yes"/>
      <point x="425" y="168"/>
      <point x="340" y="161"/>
      <point x="285" y="156" type="curve"/>
      <point x="465" y="272"/>
      <point x="502" y="412"/>
      <point x="502" y="674" type="curve"/>
      <point x="883" y="674" type="line"/>
      <point x="883" y="774" type="line"/>
      <point x="502" y="774" type="line"/>
      <point x="500" y="833"/>
      <point x="498" y="935"/>
      <point x="498" y="1001" type="curve" smooth="yes"/>
      <point x="498" y="1188"/>
      <point x="535" y="1407"/>
      <point x="772" y="1407" type="curve" smooth="yes"/>
      <point x="802" y="1407"/>
      <point x="842" y="1398"/>
      <point x="864" y="1391" type="curve"/>
      <point x="864" y="1186" type="line"/>
      <point x="883" y="1182"/>
      <point x="917" y="1176"/>
      <point x="938" y="1176" type="curve" smooth="yes"/>
      <point x="1004" y="1176"/>
      <point x="1065" y="1225"/>
      <point x="1065" y="1292" type="curve" smooth="yes"/>
      <point x="1065" y="1450"/>
      <point x="868" y="1509"/>
      <point x="741" y="1509" type="curve" smooth="yes"/>
      <point x="442" y="1509"/>
      <point x="305" y="1282"/>
      <point x="305" y="999" type="curve" smooth="yes"/>
      <point x="305" y="954"/>
      <point x="306" y="845"/>
      <point x="306" y="774" type="curve"/>
      <point x="166" y="774" type="line"/>
      <point x="166" y="674" type="line"/>
      <point x="311" y="674" type="line"/>
      <point x="311" y="524" type="line"/>
      <point x="311" y="305"/>
      <point x="256" y="168"/>
      <point x="88" y="125" type="curve"/>
      <point x="88" y="0" type="line"/>
    </contour>
  </outline>
</glyph>
<glyph name="SupThree" format="2">
  <advance width="750"/>
  <unicode hex="00B3"/>
  <anchor x="374" y="725" name="L"/>
  <anchor x="374" y="1650" name="U"/>
  <outline>
    <contour>
      <point x="686" y="1020" type="curve" smooth="yes"/>
      <point x="686" y="1155"/>
      <point x="561" y="1212"/>
      <point x="449" y="1217" type="curve"/>
      <point x="580" y="1251"/>
      <point x="651" y="1323"/>
      <point x="651" y="1415" type="curve" smooth="yes"/>
      <point x="651" y="1546"/>
      <point x="532" y="1622"/>
      <point x="379" y="1622" type="curve" smooth="yes"/>
      <point x="219" y="1622"/>
      <point x="86" y="1550"/>
      <point x="86" y="1456" type="curve" smooth="yes"/>
      <point x="86" y="1403"/>
      <point x="131" y="1386"/>
      <point x="162" y="1386" type="curve" smooth="yes"/>
      <point x="195" y="1386"/>
      <point x="217" y="1403"/>
      <point x="221" y="1405" type="curve"/>
      <point x="221" y="1526" type="line"/>
      <point x="242" y="1539"/>
      <point x="289" y="1556"/>
      <point x="342" y="1556" type="curve" smooth="yes"/>
      <point x="432" y="1556"/>
      <point x="516" y="1503"/>
      <point x="516" y="1401" type="curve" smooth="yes"/>
      <point x="516" y="1292"/>
      <point x="416" y="1243"/>
      <point x="303" y="1243" type="curve" smooth="yes"/>
      <point x="291" y="1243"/>
      <point x="272" y="1245"/>
      <point x="268" y="1245" type="curve"/>
      <point x="268" y="1167" type="line"/>
      <point x="282" y="1170"/>
      <point x="314" y="1174"/>
      <point x="348" y="1174" type="curve" smooth="yes"/>
      <point x="436" y="1174"/>
      <point x="549" y="1139"/>
      <point x="549" y="1020" type="curve" smooth="yes"/>
      <point x="549" y="922"/>
      <point x="465" y="831"/>
      <point x="342" y="831" type="curve" smooth="yes"/>
      <point x="299" y="831"/>
      <point x="262" y="840"/>
      <point x="227" y="858" type="curve"/>
      <point x="186" y="969" type="line"/>
      <point x="176" y="975"/>
      <point x="152" y="977"/>
      <point x="141" y="977" type="curve" smooth="yes"/>
      <point x="88" y="977"/>
      <point x="63" y="942"/>
      <point x="63" y="909" type="curve" smooth="yes"/>
      <point x="63" y="850"/>
      <point x="158" y="768"/>
      <point x="338" y="768" type="curve" smooth="yes"/>
      <point x="530" y="768"/>
      <point x="686" y="870"/>
    </contour>
  </outline>
</glyph>
<glyph name="PilcrowSgn" format="2">
  <advance width="995"/>
  <unicode hex="00B6"/>
  <outline>
    <contour>
      <point x="713" y="-162" type="line"/>
      <point x="813" y="-162" type="line"/>
      <point x="813" y="1280" type="line"/>
      <point x="940" y="1300" type="line"/>
      <point x="940" y="1374" type="line"/>
      <point x="535" y="1374" type="line" smooth="yes"/>
      <point x="229" y="1374"/>
      <point x="55" y="1274"/>
      <point x="55" y="973" type="curve" smooth="yes"/>
      <point x="55" y="655"/>
      <point x="262" y="575"/>
      <point x="557" y="575" type="curve"/>
      <point x="557" y="1290" type="line"/>
      <point x="713" y="1290" type="line"/>
    </contour>
  </outline>
</glyph>
<glyph name="RtPtngDblAngQuotMrk" format="2">
  <advance width="905"/>
  <unicode hex="00BB"/>
  <outline>
    <contour>
      <point x="520" y="987" type="line"/>
      <point x="420" y="987" type="line"/>
      <point x="675" y="494" type="line"/>
      <point x="420" y="0" type="line"/>
      <point x="520" y="0" type="line"/>
      <point x="850" y="443" type="line"/>
      <point x="850" y="546" type="line"/>
    </contour>
    <contour>
      <point x="140" y="987" type="line"/>
      <point x="40" y="987" type="line"/>
      <point x="295" y="494" type="line"/>
      <point x="40" y="0" type="line"/>
      <point x="140" y="0" type="line"/>
      <point x="470" y="443" type="line"/>
      <point x="470" y="546" type="line"/>
    </contour>
  </outline>
</glyph>
<glyph name="VulgFracThreeQuarters" format="2">
  <advance width="1792"/>
  <unicode hex="00BE"/>
  <outline>
    <contour>
      <point x="1716" y="233" type="line"/>
      <point x="1716" y="317" type="line"/>
      <point x="1565" y="317" type="line"/>
      <point x="1565" y="831" type="line"/>
      <point x="1475" y="831" type="line"/>
      <point x="1024" y="319" type="line"/>
      <point x="1024" y="233" type="line"/>
      <point x="1450" y="233" type="line"/>
      <point x="1450" y="-43" type="line"/>
      <point x="1565" y="-43" type="line"/>
      <point x="1565" y="233" type="line"/>
    </contour>
    <contour>
      <point x="1436" y="1430" type="line"/>
      <point x="1307" y="1430" type="line"/>
      <point x="397" y="0" type="line"/>
      <point x="526" y="0" type="line"/>
    </contour>
    <contour>
      <point x="686" y="844" type="curve" smooth="yes"/>
      <point x="686" y="979"/>
      <point x="561" y="1036"/>
      <point x="449" y="1040" type="curve"/>
      <point x="580" y="1075"/>
      <point x="653" y="1145"/>
      <point x="653" y="1237" type="curve" smooth="yes"/>
      <point x="653" y="1368"/>
      <point x="539" y="1446"/>
      <point x="385" y="1446" type="curve" smooth="yes"/>
      <point x="225" y="1446"/>
      <point x="98" y="1374"/>
      <point x="98" y="1280" type="curve" smooth="yes"/>
      <point x="98" y="1227"/>
      <point x="145" y="1210"/>
      <point x="176" y="1210" type="curve" smooth="yes"/>
      <point x="209" y="1210"/>
      <point x="231" y="1225"/>
      <point x="236" y="1227" type="curve"/>
      <point x="236" y="1350" type="line"/>
      <point x="236" y="1350"/>
      <point x="279" y="1378"/>
      <point x="350" y="1378" type="curve" smooth="yes"/>
      <point x="440" y="1378"/>
      <point x="518" y="1325"/>
      <point x="518" y="1223" type="curve" smooth="yes"/>
      <point x="518" y="1114"/>
      <point x="430" y="1067"/>
      <point x="317" y="1067" type="curve" smooth="yes"/>
      <point x="305" y="1067"/>
      <point x="287" y="1067"/>
      <point x="283" y="1067" type="curve"/>
      <point x="283" y="991" type="line"/>
      <point x="283" y="991"/>
      <point x="311" y="995"/>
      <point x="358" y="995" type="curve" smooth="yes"/>
      <point x="446" y="995"/>
      <point x="551" y="963"/>
      <point x="551" y="844" type="curve" smooth="yes"/>
      <point x="551" y="745"/>
      <point x="473" y="655"/>
      <point x="350" y="655" type="curve" smooth="yes"/>
      <point x="307" y="655"/>
      <point x="276" y="664"/>
      <point x="242" y="682" type="curve"/>
      <point x="201" y="791" type="line"/>
      <point x="190" y="797"/>
      <point x="166" y="801"/>
      <point x="156" y="801" type="curve" smooth="yes"/>
      <point x="102" y="801"/>
      <point x="78" y="764"/>
      <point x="78" y="731" type="curve" smooth="yes"/>
      <point x="78" y="672"/>
      <point x="166" y="594"/>
      <point x="346" y="594" type="curve" smooth="yes"/>
      <point x="539" y="594"/>
      <point x="686" y="694"/>
    </contour>
    <contour>
      <point x="1450" y="317" type="line"/>
      <point x="1130" y="317" type="line"/>
      <point x="1450" y="688" type="line"/>
    </contour>
  </outline>
</glyph>
<glyph name="LtnCapAe" format="2">
  <advance width="1911"/>
  <unicode hex="00C6"/>
  <anchor x="1100" y="-100" name="L"/>
  <anchor x="1100" y="1500" name="U"/>
  <outline>
    <contour>
      <point x="1845" y="0" type="line"/>
      <point x="1845" y="342" type="line"/>
      <point x="1729" y="342" type="line"/>
      <point x="1698" y="139" type="line" smooth="yes"/>
      <point x="1696" y="125"/>
      <point x="1677" y="100"/>
      <point x="1661" y="100" type="curve" smooth="yes"/>
      <point x="1192" y="100" type="line"/>
      <point x="1192" y="664" type="line"/>
      <point x="1450" y="664" type="line" smooth="yes"/>
      <point x="1466" y="664"/>
      <point x="1485" y="643"/>
      <point x="1487" y="629" type="curve" smooth="yes"/>
      <point x="1505" y="485" type="line"/>
      <point x="1606" y="485" type="line"/>
      <point x="1606" y="942" type="line"/>
      <point x="1505" y="942" type="line"/>
      <point x="1487" y="801" type="line" smooth="yes"/>
      <point x="1485" y="786"/>
      <point x="1468" y="764"/>
      <point x="1450" y="764" type="curve" smooth="yes"/>
      <point x="1192" y="766" type="line"/>
      <point x="1192" y="1276" type="line"/>
      <point x="1589" y="1276" type="line" smooth="yes"/>
      <point x="1608" y="1276"/>
      <point x="1620" y="1257"/>
      <point x="1624" y="1237" type="curve" smooth="yes"/>
      <point x="1653" y="1069" type="line"/>
      <point x="1772" y="1069" type="line"/>
      <point x="1772" y="1374" type="line"/>
      <point x="686" y="1374" type="line"/>
      <point x="686" y="1288" type="line"/>
      <point x="786" y="1278" type="line" smooth="yes"/>
      <point x="805" y="1276"/>
      <point x="827" y="1255"/>
      <point x="815" y="1235" type="curve" smooth="yes"/>
      <point x="119" y="104" type="line"/>
      <point x="10" y="88" type="line"/>
      <point x="10" y="0" type="line"/>
      <point x="414" y="0" type="line"/>
      <point x="414" y="88" type="line"/>
      <point x="297" y="98" type="line" smooth="yes"/>
      <point x="279" y="100"/>
      <point x="268" y="119"/>
      <point x="283" y="141" type="curve" smooth="yes"/>
      <point x="512" y="512" type="line"/>
      <point x="985" y="512" type="line"/>
      <point x="985" y="141" type="line" smooth="yes"/>
      <point x="985" y="123"/>
      <point x="961" y="98"/>
      <point x="932" y="96" type="curve" smooth="yes"/>
      <point x="831" y="88" type="line"/>
      <point x="831" y="0" type="line"/>
    </contour>
    <contour>
      <point x="985" y="612" type="line"/>
      <point x="569" y="612" type="line"/>
      <point x="985" y="1280" type="line"/>
    </contour>
  </outline>
</glyph>
<glyph name="LtnCapOStrk" format="2">
  <advance width="1497"/>
  <unicode hex="00D8"/>
  <anchor x="748" y="-100" name="L"/>
  <anchor x="748" y="1500" name="U"/>
  <outline>
    <contour>
      <point x="293" y="-162" type="line"/>
      <point x="336" y="-92"/>
      <point x="377" y="-23"/>
      <point x="420" y="49" type="curve"/>
      <point x="514" y="-4"/>
      <point x="627" y="-33"/>
      <point x="750" y="-33" type="curve" smooth="yes"/>
      <point x="1151" y="-33"/>
      <point x="1417" y="289"/>
      <point x="1417" y="686" type="curve" smooth="yes"/>
      <point x="1417" y="930"/>
      <point x="1319" y="1145"/>
      <point x="1149" y="1276" type="curve"/>
      <point x="1192" y="1348"/>
      <point x="1233" y="1415"/>
      <point x="1268" y="1475" type="curve"/>
      <point x="1171" y="1532" type="line"/>
      <point x="1055" y="1335" type="line"/>
      <point x="967" y="1380"/>
      <point x="862" y="1407"/>
      <point x="748" y="1407" type="curve" smooth="yes"/>
      <point x="340" y="1407"/>
      <point x="80" y="1087"/>
      <point x="80" y="688" type="curve" smooth="yes"/>
      <point x="80" y="449"/>
      <point x="172" y="242"/>
      <point x="328" y="113" type="curve"/>
      <point x="199" y="-104" type="line"/>
    </contour>
    <contour>
      <point x="420" y="266" type="line"/>
      <point x="350" y="377"/>
      <point x="315" y="526"/>
      <point x="315" y="688" type="curve" smooth="yes"/>
      <point x="315" y="1014"/>
      <point x="453" y="1290"/>
      <point x="750" y="1290" type="curve" smooth="yes"/>
      <point x="842" y="1290"/>
      <point x="920" y="1262"/>
      <point x="981" y="1212" type="curve"/>
    </contour>
    <contour>
      <point x="745" y="80" type="curve" smooth="yes"/>
      <point x="643" y="80"/>
      <point x="561" y="115"/>
      <point x="496" y="174" type="curve"/>
      <point x="698" y="516"/>
      <point x="899" y="852"/>
      <point x="1063" y="1128" type="curve"/>
      <point x="1141" y="1018"/>
      <point x="1180" y="860"/>
      <point x="1180" y="684" type="curve" smooth="yes"/>
      <point x="1180" y="360"/>
      <point x="1040" y="80"/>
    </contour>
  </outline>
</glyph>
<glyph name="LtnCapThorn" format="2">
  <advance width="1184"/>
  <unicode hex="00DE"/>
  <anchor x="585" y="-100" name="L"/>
  <anchor x="585" y="1500" name="U"/>
  <outline>
    <contour>
      <point x="1104" y="709" type="curve" smooth="yes"/>
      <point x="1104" y="997"/>
      <point x="936" y="1111"/>
      <point x="563" y="1116" type="curve" smooth="yes"/>
      <point x="424" y="1118" type="line"/>
      <point x="424" y="1233" type="line" smooth="yes"/>
      <point x="424" y="1257"/>
      <point x="444" y="1276"/>
      <point x="469" y="1278" type="curve" smooth="yes"/>
      <point x="588" y="1286" type="line"/>
      <point x="588" y="1374" type="line"/>
      <point x="66" y="1374" type="line"/>
      <point x="66" y="1286" type="line"/>
      <point x="170" y="1278" type="line" smooth="yes"/>
      <point x="195" y="1276"/>
      <point x="215" y="1257"/>
      <point x="215" y="1233" type="curve" smooth="yes"/>
      <point x="215" y="141" type="line" smooth="yes"/>
      <point x="215" y="117"/>
      <point x="195" y="98"/>
      <point x="170" y="96" type="curve" smooth="yes"/>
      <point x="66" y="88" type="line"/>
      <point x="66" y="0" type="line"/>
      <point x="588" y="0" type="line"/>
      <point x="588" y="88" type="line"/>
      <point x="469" y="96" type="line" smooth="yes"/>
      <point x="444" y="98"/>
      <point x="424" y="117"/>
      <point x="424" y="141" type="curve" smooth="yes"/>
      <point x="424" y="281" type="line"/>
      <point x="462" y="276"/>
      <point x="527" y="270"/>
      <point x="569" y="270" type="curve" smooth="yes"/>
      <point x="883" y="270"/>
      <point x="1104" y="424"/>
    </contour>
    <contour>
      <point x="870" y="709" type="curve" smooth="yes"/>
      <point x="870" y="477"/>
      <point x="762" y="375"/>
      <point x="543" y="375" type="curve" smooth="yes"/>
      <point x="515" y="375"/>
      <point x="458" y="380"/>
      <point x="424" y="383" type="curve"/>
      <point x="424" y="1016" type="line"/>
      <point x="463" y="1019"/>
      <point x="540" y="1021"/>
      <point x="550" y="1021" type="curve" smooth="yes"/>
      <point x="791" y="1021"/>
      <point x="870" y="905"/>
    </contour>
  </outline>
</glyph>
<glyph name="LtnSmSharpS" format="2">
  <advance width="1286"/>
  <unicode hex="00DF"/>
  <anchor x="631" y="-100" name="L"/>
  <anchor x="631" y="1540" name="U"/>
  <outline>
    <contour>
      <point x="860" y="-25" type="curve" smooth="yes"/>
      <point x="1055" y="-25"/>
      <point x="1217" y="104"/>
      <point x="1217" y="305" type="curve" smooth="yes"/>
      <point x="1217" y="600"/>
      <point x="788" y="604"/>
      <point x="788" y="805" type="curve" smooth="yes"/>
      <point x="788" y="887"/>
      <point x="840" y="961"/>
      <point x="979" y="961" type="curve" smooth="yes"/>
      <point x="1008" y="961"/>
      <point x="1020" y="956"/>
      <point x="1024" y="956" type="curve"/>
      <point x="1026" y="967"/>
      <point x="1059" y="1069"/>
      <point x="1059" y="1169" type="curve" smooth="yes"/>
      <point x="1059" y="1376"/>
      <point x="936" y="1509"/>
      <point x="700" y="1509" type="curve" smooth="yes"/>
      <point x="340" y="1509"/>
      <point x="184" y="1210"/>
      <point x="184" y="928" type="curve" smooth="yes"/>
      <point x="184" y="135" type="line" smooth="yes"/>
      <point x="184" y="117"/>
      <point x="168" y="90"/>
      <point x="143" y="88" type="curve" smooth="yes"/>
      <point x="45" y="78" type="line"/>
      <point x="45" y="0" type="line"/>
      <point x="510" y="0" type="line"/>
      <point x="510" y="78" type="line"/>
      <point x="406" y="86" type="line" smooth="yes"/>
      <point x="391" y="88"/>
      <point x="375" y="104"/>
      <point x="375" y="135" type="curve" smooth="yes"/>
      <point x="375" y="948" type="line" smooth="yes"/>
      <point x="375" y="1094"/>
      <point x="410" y="1407"/>
      <point x="664" y="1407" type="curve" smooth="yes"/>
      <point x="805" y="1407"/>
      <point x="870" y="1292"/>
      <point x="870" y="1169" type="curve" smooth="yes"/>
      <point x="870" y="1114"/>
      <point x="852" y="1022"/>
      <point x="852" y="1022" type="curve"/>
      <point x="711" y="991"/>
      <point x="604" y="889"/>
      <point x="604" y="741" type="curve" smooth="yes"/>
      <point x="604" y="479"/>
      <point x="1042" y="473"/>
      <point x="1042" y="246" type="curve" smooth="yes"/>
      <point x="1042" y="156"/>
      <point x="973" y="72"/>
      <point x="870" y="72" type="curve" smooth="yes"/>
      <point x="813" y="72"/>
      <point x="770" y="102"/>
      <point x="748" y="123" type="curve"/>
      <point x="729" y="301" type="line"/>
      <point x="618" y="301" type="line"/>
      <point x="618" y="27" type="line"/>
      <point x="618" y="27"/>
      <point x="766" y="-25"/>
    </contour>
  </outline>
</glyph>
<glyph name="LtnSmEth" format="2">
  <advance width="1104"/>
  <unicode hex="00F0"/>
  <anchor x="552" y="-100" name="L"/>
  <anchor x="552" y="1540" name="U"/>
  <outline>
    <contour>
      <point x="1034" y="555" type="curve" smooth="yes"/>
      <point x="1034" y="895"/>
      <point x="764" y="1200"/>
      <point x="692" y="1282" type="curve"/>
      <point x="901" y="1409" type="line"/>
      <point x="854" y="1491" type="line"/>
      <point x="631" y="1358" type="line"/>
      <point x="483" y="1509" type="line"/>
      <point x="231" y="1434" type="line"/>
      <point x="231" y="1376" type="line"/>
      <point x="403" y="1354" type="line"/>
      <point x="475" y="1272" type="line"/>
      <point x="240" y="1130" type="line"/>
      <point x="285" y="1049" type="line"/>
      <point x="545" y="1204" type="line"/>
      <point x="551" y="1198"/>
      <point x="662" y="1055"/>
      <point x="702" y="983" type="curve"/>
      <point x="700" y="983"/>
      <point x="623" y="1012"/>
      <point x="565" y="1012" type="curve" smooth="yes"/>
      <point x="283" y="1012"/>
      <point x="70" y="803"/>
      <point x="70" y="500" type="curve" smooth="yes"/>
      <point x="70" y="195"/>
      <point x="262" y="-25"/>
      <point x="553" y="-25" type="curve" smooth="yes"/>
      <point x="834" y="-25"/>
      <point x="1034" y="203"/>
    </contour>
    <contour>
      <point x="836" y="514" type="curve" smooth="yes"/>
      <point x="836" y="297"/>
      <point x="760" y="68"/>
      <point x="559" y="68" type="curve" smooth="yes"/>
      <point x="360" y="68"/>
      <point x="283" y="281"/>
      <point x="283" y="498" type="curve" smooth="yes"/>
      <point x="283" y="735"/>
      <point x="383" y="922"/>
      <point x="600" y="922" type="curve" smooth="yes"/>
      <point x="664" y="922"/>
      <point x="756" y="881"/>
      <point x="756" y="881" type="curve"/>
      <point x="807" y="797"/>
      <point x="836" y="678"/>
    </contour>
  </outline>
</glyph>
<glyph name="LtnSmOStrk" format="2">
  <advance width="1114"/>
  <unicode hex="00F8"/>
  <anchor x="557" y="0" name="H"/>
  <anchor x="557" y="-100" name="L"/>
  <anchor x="838" y="0" name="O"/>
  <anchor x="1114" y="1000" name="R"/>
  <anchor x="557" y="1100" name="U"/>
  <outline>
    <contour>
      <point x="1044" y="492" type="curve" smooth="yes"/>
      <point x="1044" y="678"/>
      <point x="971" y="838"/>
      <point x="838" y="930" type="curve"/>
      <point x="940" y="1108" type="line"/>
      <point x="866" y="1149" type="line"/>
      <point x="764" y="971" type="line"/>
      <point x="705" y="997"/>
      <point x="637" y="1012"/>
      <point x="561" y="1012" type="curve" smooth="yes"/>
      <point x="258" y="1012"/>
      <point x="70" y="784"/>
      <point x="70" y="492" type="curve" smooth="yes"/>
      <point x="70" y="317"/>
      <point x="135" y="168"/>
      <point x="252" y="76" type="curve"/>
      <point x="137" y="-125" type="line"/>
      <point x="209" y="-168" type="line"/>
      <point x="322" y="31" type="line"/>
      <point x="389" y="-4"/>
      <point x="467" y="-25"/>
      <point x="555" y="-25" type="curve" smooth="yes"/>
      <point x="854" y="-25"/>
      <point x="1044" y="201"/>
    </contour>
    <contour>
      <point x="705" y="866" type="curve"/>
      <point x="338" y="225" type="line"/>
      <point x="303" y="301"/>
      <point x="285" y="395"/>
      <point x="285" y="494" type="curve" smooth="yes"/>
      <point x="285" y="717"/>
      <point x="369" y="920"/>
      <point x="559" y="920" type="curve" smooth="yes"/>
      <point x="616" y="920"/>
      <point x="666" y="899"/>
    </contour>
    <contour>
      <point x="831" y="494" type="curve" smooth="yes"/>
      <point x="831" y="270"/>
      <point x="745" y="68"/>
      <point x="557" y="68" type="curve" smooth="yes"/>
      <point x="487" y="68"/>
      <point x="432" y="98"/>
      <point x="389" y="145" type="curve"/>
      <point x="762" y="797" type="line"/>
      <point x="809" y="717"/>
      <point x="831" y="608"/>
    </contour>
  </outline>
</glyph>
<glyph name="LtnSmDCaron" format="2">
  <advance width="1401"/>
  <unicode hex="010F"/>
  <anchor x="614" y="0" name="H"/>
  <anchor x="614" y="-100" name="L"/>
  <anchor x="611" y="1540" name="U"/>
  <outline>
    <contour>
      <point x="1102" y="0" type="line"/>
      <point x="1102" y="80" type="line"/>
      <point x="1014" y="86" type="line" smooth="yes"/>
      <point x="989" y="88"/>
      <point x="971" y="106"/>
      <point x="971" y="131" type="curve" smooth="yes"/>
      <point x="971" y="1509" type="line"/>
      <point x="889" y="1509" type="line"/>
      <point x="625" y="1430" type="line"/>
      <point x="625" y="1362" type="line"/>
      <point x="780" y="1362" type="line"/>
      <point x="780" y="987" type="line"/>
      <point x="748" y="995"/>
      <point x="657" y="1012"/>
      <point x="592" y="1012" type="curve" smooth="yes"/>
      <point x="240" y="1012"/>
      <point x="70" y="745"/>
      <point x="70" y="467" type="curve" smooth="yes"/>
      <point x="70" y="236"/>
      <point x="188" y="-25"/>
      <point x="463" y="-25" type="curve" smooth="yes"/>
      <point x="582" y="-25"/>
      <point x="686" y="37"/>
      <point x="780" y="109" type="curve"/>
      <point x="780" y="0" type="line"/>
    </contour>
    <contour>
      <point x="780" y="186" type="line"/>
      <point x="727" y="154"/>
      <point x="651" y="115"/>
      <point x="569" y="115" type="curve" smooth="yes"/>
      <point x="381" y="115"/>
      <point x="272" y="279"/>
      <point x="272" y="502" type="curve" smooth="yes"/>
      <point x="272" y="750"/>
      <point x="403" y="913"/>
      <point x="606" y="913" type="curve" smooth="yes"/>
      <point x="666" y="913"/>
      <point x="745" y="895"/>
      <point x="780" y="883" type="curve"/>
    </contour>
    <contour>
      <point x="1331" y="1374" type="curve" smooth="yes"/>
      <point x="1331" y="1481"/>
      <point x="1272" y="1540"/>
      <point x="1186" y="1540" type="curve" smooth="yes"/>
      <point x="1126" y="1540"/>
      <point x="1073" y="1503"/>
      <point x="1073" y="1444" type="curve" smooth="yes"/>
      <point x="1073" y="1401"/>
      <point x="1098" y="1374"/>
      <point x="1104" y="1370" type="curve"/>
      <point x="1225" y="1370" type="line"/>
      <point x="1225" y="1252"/>
      <point x="1186" y="1213"/>
      <point x="1077" y="1178" type="curve"/>
      <point x="1077" y="1118" type="line"/>
      <point x="1223" y="1145"/>
      <point x="1331" y="1233"/>
    </contour>
  </outline>
</glyph>
<glyph name="LtnSmLCaron" format="2">
  <advance width="835"/>
  <unicode hex="013E"/>
  <anchor x="319" y="0" name="H"/>
  <anchor x="318" y="-100" name="L"/>
  <anchor x="318" y="1580" name="U"/>
  <outline>
    <contour>
      <point x="553" y="0" type="line"/>
      <point x="553" y="80" type="line"/>
      <point x="442" y="86" type="line" smooth="yes"/>
      <point x="424" y="86"/>
      <point x="399" y="111"/>
      <point x="399" y="129" type="curve" smooth="yes"/>
      <point x="399" y="1509" type="line"/>
      <point x="315" y="1509" type="line"/>
      <point x="53" y="1430" type="line"/>
      <point x="53" y="1362" type="line"/>
      <point x="209" y="1362" type="line"/>
      <point x="209" y="129" type="line" smooth="yes"/>
      <point x="209" y="111"/>
      <point x="182" y="86"/>
      <point x="164" y="86" type="curve" smooth="yes"/>
      <point x="55" y="80" type="line"/>
      <point x="55" y="0" type="line"/>
    </contour>
    <contour>
      <point x="765" y="1374" type="curve" smooth="yes"/>
      <point x="765" y="1481"/>
      <point x="706" y="1540"/>
      <point x="620" y="1540" type="curve" smooth="yes"/>
      <point x="560" y="1540"/>
      <point x="507" y="1503"/>
      <point x="507" y="1444" type="curve" smooth="yes"/>
      <point x="507" y="1401"/>
      <point x="532" y="1374"/>
      <point x="538" y="1370" type="curve"/>
      <point x="659" y="1370" type="line"/>
      <point x="659" y="1252"/>
      <point x="620" y="1213"/>
      <point x="511" y="1178" type="curve"/>
      <point x="511" y="1118" type="line"/>
      <point x="657" y="1145"/>
      <point x="765" y="1233"/>
    </contour>
  </outline>
</glyph>
<glyph name="LtnCapEng" format="2">
  <advance width="1489"/>
  <unicode hex="014A"/>
  <anchor x="780" y="-500" name="L"/>
  <anchor x="780" y="1500" name="U"/>
  <outline>
    <contour>
      <point x="1305" y="-43" type="curve"/>
      <point x="1305" y="969" type="line" smooth="yes"/>
      <point x="1305" y="1247"/>
      <point x="1094" y="1407"/>
      <point x="864" y="1407" type="curve" smooth="yes"/>
      <point x="700" y="1407"/>
      <point x="578" y="1331"/>
      <point x="424" y="1208" type="curve"/>
      <point x="424" y="1374" type="line"/>
      <point x="57" y="1374" type="line"/>
      <point x="57" y="1286" type="line"/>
      <point x="176" y="1276" type="line" smooth="yes"/>
      <point x="203" y="1274"/>
      <point x="217" y="1253"/>
      <point x="217" y="1237" type="curve" smooth="yes"/>
      <point x="217" y="141" type="line" smooth="yes"/>
      <point x="217" y="121"/>
      <point x="203" y="98"/>
      <point x="174" y="96" type="curve" smooth="yes"/>
      <point x="70" y="88" type="line"/>
      <point x="70" y="0" type="line"/>
      <point x="594" y="0" type="line"/>
      <point x="594" y="88" type="line"/>
      <point x="467" y="96" type="line" smooth="yes"/>
      <point x="438" y="98"/>
      <point x="424" y="121"/>
      <point x="424" y="141" type="curve" smooth="yes"/>
      <point x="424" y="1092" type="line"/>
      <point x="532" y="1176"/>
      <point x="647" y="1237"/>
      <point x="784" y="1237" type="curve" smooth="yes"/>
      <point x="967" y="1237"/>
      <point x="1098" y="1110"/>
      <point x="1098" y="928" type="curve" smooth="yes"/>
      <point x="1098" y="-123" type="line" smooth="yes"/>
      <point x="1098" y="-262"/>
      <point x="1065" y="-367"/>
      <point x="936" y="-367" type="curve"/>
      <point x="776" y="-188" type="line"/>
      <point x="760" y="-190"/>
      <point x="678" y="-229"/>
      <point x="678" y="-317" type="curve" smooth="yes"/>
      <point x="678" y="-389"/>
      <point x="733" y="-469"/>
      <point x="877" y="-469" type="curve" smooth="yes"/>
      <point x="1126" y="-469"/>
      <point x="1305" y="-305"/>
    </contour>
  </outline>
</glyph>
<glyph name="LtnCapLigOe" format="2">
  <advance width="2046"/>
  <unicode hex="0152"/>
  <anchor x="1030" y="-100" name="L"/>
  <anchor x="1030" y="1500" name="U"/>
  <outline>
    <contour>
      <point x="1980" y="0" type="line"/>
      <point x="1980" y="342" type="line"/>
      <point x="1870" y="342" type="line"/>
      <point x="1835" y="139" type="line"/>
      <point x="1831" y="125"/>
      <point x="1812" y="100"/>
      <point x="1796" y="100" type="curve" smooth="yes"/>
      <point x="1278" y="100" type="line"/>
      <point x="1278" y="664" type="line"/>
      <point x="1585" y="664" type="line" smooth="yes"/>
      <point x="1602" y="664"/>
      <point x="1622" y="641"/>
      <point x="1622" y="627" type="curve"/>
      <point x="1642" y="485" type="line"/>
      <point x="1747" y="485" type="line"/>
      <point x="1747" y="942" type="line"/>
      <point x="1642" y="942" type="line"/>
      <point x="1622" y="801" type="line"/>
      <point x="1622" y="786"/>
      <point x="1604" y="766"/>
      <point x="1585" y="766" type="curve" smooth="yes"/>
      <point x="1278" y="766" type="line"/>
      <point x="1278" y="1276" type="line"/>
      <point x="1722" y="1276" type="line" smooth="yes"/>
      <point x="1741" y="1276"/>
      <point x="1757" y="1257"/>
      <point x="1759" y="1237" type="curve"/>
      <point x="1790" y="1069" type="line"/>
      <point x="1913" y="1069" type="line"/>
      <point x="1913" y="1374" type="line"/>
      <point x="1069" y="1374" type="line"/>
      <point x="1069" y="1262" type="line"/>
      <point x="975" y="1354"/>
      <point x="844" y="1407"/>
      <point x="678" y="1407" type="curve" smooth="yes"/>
      <point x="270" y="1407"/>
      <point x="80" y="1087"/>
      <point x="80" y="688" type="curve" smooth="yes"/>
      <point x="80" y="276"/>
      <point x="279" y="-33"/>
      <point x="680" y="-33" type="curve" smooth="yes"/>
      <point x="844" y="-33"/>
      <point x="975" y="20"/>
      <point x="1069" y="113" type="curve"/>
      <point x="1069" y="0" type="line"/>
    </contour>
    <contour>
      <point x="1040" y="684" type="curve" smooth="yes"/>
      <point x="1040" y="360"/>
      <point x="971" y="80"/>
      <point x="676" y="80" type="curve" smooth="yes"/>
      <point x="385" y="80"/>
      <point x="315" y="360"/>
      <point x="315" y="688" type="curve" smooth="yes"/>
      <point x="315" y="1014"/>
      <point x="383" y="1290"/>
      <point x="680" y="1290" type="curve" smooth="yes"/>
      <point x="967" y="1290"/>
      <point x="1040" y="1018"/>
    </contour>
  </outline>
</glyph>
<glyph name="LtnSmLigOe" format="2">
  <advance width="1679"/>
  <unicode hex="0153"/>
  <anchor x="881" y="0" name="H"/>
  <anchor x="840" y="-100" name="L"/>
  <anchor x="1498" y="0" name="O"/>
  <anchor x="1679" y="1000" name="R"/>
  <anchor x="840" y="1100" name="U"/>
  <outline>
    <contour>
      <point x="535" y="-25" type="curve" smooth="yes"/>
      <point x="713" y="-25"/>
      <point x="819" y="78"/>
      <point x="895" y="178" type="curve"/>
      <point x="963" y="80"/>
      <point x="1073" y="-25"/>
      <point x="1257" y="-25" type="curve" smooth="yes"/>
      <point x="1405" y="-25"/>
      <point x="1522" y="41"/>
      <point x="1608" y="102" type="curve"/>
      <point x="1608" y="227" type="line"/>
      <point x="1536" y="174"/>
      <point x="1438" y="113"/>
      <point x="1325" y="113" type="curve" smooth="yes"/>
      <point x="1075" y="113"/>
      <point x="991" y="330"/>
      <point x="991" y="535" type="curve"/>
      <point x="1608" y="535" type="line"/>
      <point x="1610" y="553"/>
      <point x="1610" y="578"/>
      <point x="1610" y="592" type="curve" smooth="yes"/>
      <point x="1610" y="838"/>
      <point x="1487" y="1012"/>
      <point x="1249" y="1012" type="curve" smooth="yes"/>
      <point x="1110" y="1012"/>
      <point x="979" y="936"/>
      <point x="907" y="817" type="curve"/>
      <point x="856" y="911"/>
      <point x="729" y="1012"/>
      <point x="539" y="1012" type="curve" smooth="yes"/>
      <point x="242" y="1012"/>
      <point x="70" y="778"/>
      <point x="70" y="494" type="curve" smooth="yes"/>
      <point x="70" y="213"/>
      <point x="240" y="-25"/>
    </contour>
    <contour>
      <point x="541" y="70" type="curve" smooth="yes"/>
      <point x="369" y="70"/>
      <point x="283" y="272"/>
      <point x="283" y="500" type="curve" smooth="yes"/>
      <point x="283" y="717"/>
      <point x="362" y="913"/>
      <point x="541" y="913" type="curve" smooth="yes"/>
      <point x="717" y="913"/>
      <point x="797" y="723"/>
      <point x="797" y="489" type="curve" smooth="yes"/>
      <point x="797" y="270"/>
      <point x="715" y="70"/>
    </contour>
    <contour>
      <point x="1001" y="627" type="line"/>
      <point x="1016" y="786"/>
      <point x="1098" y="913"/>
      <point x="1229" y="913" type="curve" smooth="yes"/>
      <point x="1343" y="913"/>
      <point x="1403" y="805"/>
      <point x="1403" y="672" type="curve" smooth="yes"/>
      <point x="1403" y="627" type="line"/>
    </contour>
  </outline>
</glyph>
<glyph name="LtnSmTCaron" format="2">
  <advance width="696"/>
  <unicode hex="0165"/>
  <anchor x="368" y="0" name="H"/>
  <anchor x="368" y="-100" name="L"/>
  <anchor x="358" y="1363" name="U"/>
  <outline>
    <contour>
      <point x="682" y="43" type="curve"/>
      <point x="682" y="125" type="line"/>
      <point x="682" y="125"/>
      <point x="621" y="90"/>
      <point x="541" y="90" type="curve" smooth="yes"/>
      <point x="432" y="90"/>
      <point x="377" y="150"/>
      <point x="377" y="313" type="curve" smooth="yes"/>
      <point x="377" y="885" type="line"/>
      <point x="666" y="885" type="line"/>
      <point x="666" y="987" type="line"/>
      <point x="377" y="987" type="line"/>
      <point x="377" y="1235" type="line"/>
      <point x="287" y="1235" type="line"/>
      <point x="195" y="1018" type="line"/>
      <point x="55" y="952" type="line"/>
      <point x="55" y="885" type="line"/>
      <point x="186" y="885" type="line"/>
      <point x="186" y="205" type="line" smooth="yes"/>
      <point x="186" y="43"/>
      <point x="252" y="-25"/>
      <point x="406" y="-25" type="curve" smooth="yes"/>
      <point x="553" y="-25"/>
      <point x="682" y="43"/>
    </contour>
    <contour>
      <point x="724" y="1374" type="curve" smooth="yes"/>
      <point x="724" y="1481"/>
      <point x="665" y="1540"/>
      <point x="579" y="1540" type="curve" smooth="yes"/>
      <point x="519" y="1540"/>
      <point x="466" y="1503"/>
      <point x="466" y="1444" type="curve" smooth="yes"/>
      <point x="466" y="1401"/>
      <point x="491" y="1374"/>
      <point x="497" y="1370" type="curve"/>
      <point x="618" y="1370" type="line"/>
      <point x="618" y="1252"/>
      <point x="579" y="1213"/>
      <point x="470" y="1178" type="curve"/>
      <point x="470" y="1118" type="line"/>
      <point x="616" y="1145"/>
      <point x="724" y="1233"/>
    </contour>
  </outline>
</glyph>
<glyph name="LtnSmBBarredStem" format="2">
  <advance width="1137"/>
  <unicode hex="0180"/>
  <anchor x="600" y="-100" name="L"/>
  <anchor x="600" y="1540" name="U"/>
  <outline>
    <contour>
      <point x="1067" y="539" type="curve" smooth="yes"/>
      <point x="1067" y="791"/>
      <point x="928" y="1010"/>
      <point x="659" y="1010" type="curve" smooth="yes"/>
      <point x="539" y="1010"/>
      <point x="422" y="956"/>
      <point x="375" y="934" type="curve"/>
      <point x="375" y="1104" type="line"/>
      <point x="623" y="1104" type="line"/>
      <point x="623" y="1208" type="line"/>
      <point x="375" y="1208" type="line"/>
      <point x="375" y="1509" type="line"/>
      <point x="295" y="1509" type="line"/>
      <point x="29" y="1430" type="line"/>
      <point x="29" y="1362" type="line"/>
      <point x="184" y="1362" type="line"/>
      <point x="184" y="1208" type="line"/>
      <point x="14" y="1208" type="line"/>
      <point x="14" y="1104" type="line"/>
      <point x="184" y="1104" type="line"/>
      <point x="184" y="0" type="line"/>
      <point x="479" y="0" type="line" smooth="yes"/>
      <point x="891" y="0"/>
      <point x="1067" y="231"/>
    </contour>
    <contour>
      <point x="858" y="498" type="curve" smooth="yes"/>
      <point x="858" y="199"/>
      <point x="717" y="96"/>
      <point x="475" y="96" type="curve" smooth="yes"/>
      <point x="436" y="96"/>
      <point x="375" y="98"/>
      <point x="375" y="98" type="curve"/>
      <point x="375" y="858" type="line"/>
      <point x="416" y="872"/>
      <point x="498" y="889"/>
      <point x="543" y="889" type="curve" smooth="yes"/>
      <point x="741" y="889"/>
      <point x="858" y="756"/>
    </contour>
  </outline>
</glyph>
<glyph name="LtnCapBTopbar" format="2">
  <advance width="1239"/>
  <unicode hex="0182"/>
  <anchor x="604" y="-100" name="L"/>
  <anchor x="604" y="1500" name="U"/>
  <outline>
    <contour>
      <point x="49" y="0" type="line"/>
      <point x="212" y="0"/>
      <point x="376" y="0"/>
      <point x="539" y="0" type="curve" smooth="yes"/>
      <point x="954" y="0"/>
      <point x="1159" y="108"/>
      <point x="1159" y="395" type="curve" smooth="yes"/>
      <point x="1159" y="686"/>
      <point x="877" y="758"/>
      <point x="573" y="758" type="curve" smooth="yes"/>
      <point x="516" y="758"/>
      <point x="424" y="748"/>
      <point x="424" y="748" type="curve"/>
      <point x="424" y="1235" type="line" smooth="yes"/>
      <point x="424" y="1251"/>
      <point x="438" y="1278"/>
      <point x="467" y="1278" type="curve" smooth="yes"/>
      <point x="811" y="1278" type="line" smooth="yes"/>
      <point x="829" y="1278"/>
      <point x="844" y="1260"/>
      <point x="846" y="1239" type="curve"/>
      <point x="872" y="1055" type="line"/>
      <point x="985" y="1055" type="line"/>
      <point x="985" y="1374" type="line"/>
      <point x="679" y="1374"/>
      <point x="372" y="1374"/>
      <point x="66" y="1374" type="curve"/>
      <point x="66" y="1286" type="line"/>
      <point x="174" y="1278" type="line"/>
      <point x="203" y="1274"/>
      <point x="217" y="1251"/>
      <point x="217" y="1235" type="curve" smooth="yes"/>
      <point x="217" y="139" type="line" smooth="yes"/>
      <point x="217" y="123"/>
      <point x="203" y="98"/>
      <point x="174" y="96" type="curve" smooth="yes"/>
      <point x="49" y="88" type="line"/>
    </contour>
    <contour>
      <point x="528" y="94" type="curve" smooth="yes"/>
      <point x="477" y="94"/>
      <point x="424" y="98"/>
      <point x="424" y="98" type="curve"/>
      <point x="424" y="650" type="line"/>
      <point x="424" y="650"/>
      <point x="512" y="660"/>
      <point x="555" y="660" type="curve" smooth="yes"/>
      <point x="778" y="660"/>
      <point x="936" y="628"/>
      <point x="936" y="389" type="curve" smooth="yes"/>
      <point x="936" y="188"/>
      <point x="817" y="94"/>
    </contour>
  </outline>
</glyph>
<glyph name="LtnCapCHook" format="2">
  <advance width="1284"/>
  <unicode hex="0187"/>
  <anchor x="720" y="-100" name="L"/>
  <anchor x="720" y="1500" name="U"/>
  <outline>
    <contour>
      <point x="1569" y="1602" type="curve" smooth="yes"/>
      <point x="1569" y="1671"/>
      <point x="1501" y="1729"/>
      <point x="1374" y="1729" type="curve" smooth="yes"/>
      <point x="1153" y="1729"/>
      <point x="1055" y="1579"/>
      <point x="1036" y="1374" type="curve"/>
      <point x="952" y="1397"/>
      <point x="881" y="1407"/>
      <point x="797" y="1407" type="curve" smooth="yes"/>
      <point x="369" y="1407"/>
      <point x="80" y="1114"/>
      <point x="80" y="690" type="curve" smooth="yes"/>
      <point x="80" y="315"/>
      <point x="336" y="-33"/>
      <point x="795" y="-33" type="curve" smooth="yes"/>
      <point x="1004" y="-33"/>
      <point x="1194" y="43"/>
      <point x="1204" y="47" type="curve"/>
      <point x="1204" y="379" type="line"/>
      <point x="1085" y="379" type="line"/>
      <point x="1038" y="156" type="line" smooth="yes"/>
      <point x="1034" y="139"/>
      <point x="1020" y="123"/>
      <point x="999" y="115" type="curve" smooth="yes"/>
      <point x="995" y="113"/>
      <point x="930" y="80"/>
      <point x="834" y="80" type="curve" smooth="yes"/>
      <point x="510" y="80"/>
      <point x="315" y="309"/>
      <point x="315" y="690" type="curve" smooth="yes"/>
      <point x="315" y="1083"/>
      <point x="528" y="1292"/>
      <point x="807" y="1292" type="curve" smooth="yes"/>
      <point x="909" y="1292"/>
      <point x="985" y="1253"/>
      <point x="1016" y="1239" type="curve" smooth="yes"/>
      <point x="1028" y="1233"/>
      <point x="1049" y="1210"/>
      <point x="1051" y="1192" type="curve" smooth="yes"/>
      <point x="1081" y="1006" type="line"/>
      <point x="1204" y="1006" type="line"/>
      <point x="1204" y="1327" type="line" smooth="yes"/>
      <point x="1204" y="1534"/>
      <point x="1202" y="1593"/>
      <point x="1294" y="1628" type="curve"/>
      <point x="1481" y="1487" type="line"/>
      <point x="1481" y="1487"/>
      <point x="1569" y="1511"/>
    </contour>
  </outline>
</glyph>
<glyph name="LtnSmCHook" format="2">
  <advance width="975"/>
  <unicode hex="0188"/>
  <anchor x="535" y="-100" name="L"/>
  <anchor x="550" y="1100" name="U"/>
  <outline>
    <contour>
      <point x="1145" y="1100" type="curve" smooth="yes"/>
      <point x="1145" y="1155"/>
      <point x="1085" y="1200"/>
      <point x="985" y="1200" type="curve" smooth="yes"/>
      <point x="836" y="1200"/>
      <point x="743" y="1114"/>
      <point x="707" y="991" type="curve"/>
      <point x="664" y="1004"/>
      <point x="614" y="1012"/>
      <point x="563" y="1012" type="curve" smooth="yes"/>
      <point x="301" y="1012"/>
      <point x="70" y="831"/>
      <point x="70" y="487" type="curve" smooth="yes"/>
      <point x="70" y="193"/>
      <point x="252" y="-25"/>
      <point x="539" y="-25" type="curve" smooth="yes"/>
      <point x="678" y="-25"/>
      <point x="795" y="35"/>
      <point x="885" y="84" type="curve"/>
      <point x="885" y="201" type="line"/>
      <point x="797" y="143"/>
      <point x="715" y="104"/>
      <point x="618" y="104" type="curve" smooth="yes"/>
      <point x="393" y="104"/>
      <point x="279" y="287"/>
      <point x="279" y="514" type="curve" smooth="yes"/>
      <point x="279" y="752"/>
      <point x="391" y="926"/>
      <point x="571" y="926" type="curve" smooth="yes"/>
      <point x="598" y="926"/>
      <point x="629" y="915"/>
      <point x="657" y="899" type="curve"/>
      <point x="657" y="719" type="line"/>
      <point x="682" y="702"/>
      <point x="715" y="686"/>
      <point x="760" y="686" type="curve" smooth="yes"/>
      <point x="821" y="686"/>
      <point x="881" y="725"/>
      <point x="881" y="805" type="curve" smooth="yes"/>
      <point x="881" y="848"/>
      <point x="877" y="881"/>
      <point x="852" y="911" type="curve"/>
      <point x="852" y="1049"/>
      <point x="856" y="1092"/>
      <point x="926" y="1118" type="curve"/>
      <point x="1073" y="1008" type="line"/>
      <point x="1073" y="1008"/>
      <point x="1145" y="1028"/>
    </contour>
  </outline>
</glyph>
<glyph name="LtnSmDTopbar" format="2">
  <advance width="1155"/>
  <unicode hex="018C"/>
  <anchor x="586" y="-100" name="L"/>
  <anchor x="586" y="1540" name="U"/>
  <outline>
    <contour>
      <point x="463" y="-25" type="curve" smooth="yes"/>
      <point x="582" y="-25"/>
      <point x="686" y="37"/>
      <point x="780" y="109" type="curve"/>
      <point x="780" y="0" type="line"/>
      <point x="1102" y="0" type="line"/>
      <point x="1102" y="80" type="line"/>
      <point x="1014" y="86" type="line" smooth="yes"/>
      <point x="989" y="88"/>
      <point x="971" y="106"/>
      <point x="971" y="131" type="curve" smooth="yes"/>
      <point x="971" y="1509" type="line"/>
      <point x="200" y="1509" type="line"/>
      <point x="200" y="1190" type="line"/>
      <point x="313" y="1190" type="line"/>
      <point x="341" y="1383" type="line" smooth="yes"/>
      <point x="343" y="1397"/>
      <point x="359" y="1413"/>
      <point x="373" y="1413" type="curve" smooth="yes"/>
      <point x="737" y="1413" type="line"/>
      <point x="765" y="1413"/>
      <point x="780" y="1386"/>
      <point x="780" y="1370" type="curve"/>
      <point x="780" y="987" type="line"/>
      <point x="748" y="995"/>
      <point x="657" y="1012"/>
      <point x="592" y="1012" type="curve" smooth="yes"/>
      <point x="240" y="1012"/>
      <point x="70" y="745"/>
      <point x="70" y="467" type="curve" smooth="yes"/>
      <point x="70" y="236"/>
      <point x="188" y="-25"/>
    </contour>
    <contour>
      <point x="569" y="115" type="curve" smooth="yes"/>
      <point x="381" y="115"/>
      <point x="272" y="279"/>
      <point x="272" y="502" type="curve" smooth="yes"/>
      <point x="272" y="750"/>
      <point x="403" y="913"/>
      <point x="606" y="913" type="curve" smooth="yes"/>
      <point x="666" y="913"/>
      <point x="745" y="895"/>
      <point x="780" y="883" type="curve"/>
      <point x="780" y="186" type="line"/>
      <point x="727" y="154"/>
      <point x="651" y="115"/>
    </contour>
  </outline>
</glyph>
<glyph name="LtnSmTrndDelta" format="2">
  <advance width="1063"/>
  <unicode hex="018D"/>
  <anchor x="537" y="-500" name="L"/>
  <anchor x="537" y="1100" name="U"/>
  <outline>
    <contour>
      <point x="547" y="-522" type="curve" smooth="yes"/>
      <point x="722" y="-522"/>
      <point x="879" y="-417"/>
      <point x="879" y="-239" type="curve" smooth="yes"/>
      <point x="879" y="-116"/>
      <point x="715" y="-23"/>
      <point x="558" y="97" type="curve"/>
      <point x="771" y="180"/>
      <point x="993" y="317"/>
      <point x="993" y="570" type="curve" smooth="yes"/>
      <point x="993" y="890"/>
      <point x="765" y="1012"/>
      <point x="525" y="1012" type="curve" smooth="yes"/>
      <point x="306" y="1012"/>
      <point x="70" y="849"/>
      <point x="70" y="529" type="curve" smooth="yes"/>
      <point x="70" y="55"/>
      <point x="725" y="-94"/>
      <point x="725" y="-276" type="curve" smooth="yes"/>
      <point x="725" y="-369"/>
      <point x="627" y="-415"/>
      <point x="553" y="-415" type="curve" smooth="yes"/>
      <point x="488" y="-415"/>
      <point x="430" y="-386"/>
      <point x="377" y="-344" type="curve"/>
      <point x="334" y="-183" type="line"/>
      <point x="317" y="-171"/>
      <point x="273" y="-167"/>
      <point x="256" y="-167" type="curve" smooth="yes"/>
      <point x="174" y="-167"/>
      <point x="133" y="-232"/>
      <point x="133" y="-288" type="curve" smooth="yes"/>
      <point x="133" y="-388"/>
      <point x="271" y="-522"/>
    </contour>
    <contour>
      <point x="483" y="159" type="curve"/>
      <point x="370" y="258"/>
      <point x="278" y="377"/>
      <point x="278" y="543" type="curve" smooth="yes"/>
      <point x="278" y="767"/>
      <point x="368" y="920"/>
      <point x="539" y="920" type="curve" smooth="yes"/>
      <point x="676" y="920"/>
      <point x="786" y="801"/>
      <point x="786" y="572" type="curve" smooth="yes"/>
      <point x="786" y="347"/>
      <point x="619" y="227"/>
    </contour>
  </outline>
</glyph>
<glyph name="LtnCapRevE" format="2">
  <advance width="1194"/>
  <unicode hex="018E"/>
  <anchor x="597" y="-100" name="L"/>
  <anchor x="597" y="1500" name="U"/>
  <outline>
    <contour>
      <point x="133" y="1374" type="line"/>
      <point x="133" y="1069" type="line"/>
      <point x="256" y="1069" type="line"/>
      <point x="287" y="1237" type="line"/>
      <point x="289" y="1257"/>
      <point x="305" y="1276"/>
      <point x="324" y="1276" type="curve" smooth="yes"/>
      <point x="768" y="1276" type="line"/>
      <point x="768" y="766" type="line"/>
      <point x="461" y="766" type="line" smooth="yes"/>
      <point x="442" y="766"/>
      <point x="424" y="786"/>
      <point x="424" y="801" type="curve"/>
      <point x="403" y="942" type="line"/>
      <point x="299" y="942" type="line"/>
      <point x="299" y="485" type="line"/>
      <point x="403" y="485" type="line"/>
      <point x="424" y="626" type="line"/>
      <point x="424" y="641"/>
      <point x="444" y="663"/>
      <point x="461" y="663" type="curve" smooth="yes"/>
      <point x="768" y="663" type="line"/>
      <point x="768" y="100" type="line"/>
      <point x="250" y="100" type="line" smooth="yes"/>
      <point x="233" y="100"/>
      <point x="215" y="125"/>
      <point x="213" y="139" type="curve" smooth="yes"/>
      <point x="176" y="342" type="line"/>
      <point x="66" y="342" type="line"/>
      <point x="66" y="0" type="line"/>
      <point x="1128" y="0" type="line"/>
      <point x="1128" y="88" type="line"/>
      <point x="1022" y="96" type="line" smooth="yes"/>
      <point x="993" y="98"/>
      <point x="977" y="121"/>
      <point x="977" y="141" type="curve" smooth="yes"/>
      <point x="977" y="1233" type="line" smooth="yes"/>
      <point x="977" y="1253"/>
      <point x="993" y="1276"/>
      <point x="1022" y="1278" type="curve" smooth="yes"/>
      <point x="1128" y="1286" type="line"/>
      <point x="1128" y="1374" type="line"/>
    </contour>
  </outline>
</glyph>
<glyph name="LtnSmFHook" format="2">
  <advance width="668"/>
  <unicode hex="0192"/>
  <anchor x="299" y="-500" name="L"/>
  <anchor x="299" y="1540" name="U"/>
  <outline>
    <contour>
      <point x="-23" y="-469" type="curve" smooth="yes"/>
      <point x="111" y="-469"/>
      <point x="246" y="-399"/>
      <point x="326" y="-246" type="curve" smooth="yes"/>
      <point x="377" y="-147"/>
      <point x="393" y="-47"/>
      <point x="393" y="88" type="curve" smooth="yes"/>
      <point x="393" y="866" type="line"/>
      <point x="647" y="866" type="line"/>
      <point x="647" y="971" type="line"/>
      <point x="393" y="971" type="line"/>
      <point x="395" y="1102" type="line" smooth="yes"/>
      <point x="397" y="1294"/>
      <point x="455" y="1378"/>
      <point x="514" y="1409" type="curve"/>
      <point x="518" y="1405"/>
      <point x="694" y="1284"/>
      <point x="702" y="1276" type="curve"/>
      <point x="717" y="1280"/>
      <point x="797" y="1303"/>
      <point x="797" y="1386" type="curve" smooth="yes"/>
      <point x="797" y="1452"/>
      <point x="737" y="1509"/>
      <point x="621" y="1509" type="curve" smooth="yes"/>
      <point x="487" y="1509"/>
      <point x="352" y="1436"/>
      <point x="272" y="1282" type="curve" smooth="yes"/>
      <point x="221" y="1184"/>
      <point x="203" y="1110"/>
      <point x="203" y="975" type="curve"/>
      <point x="72" y="938" type="line"/>
      <point x="72" y="866" type="line"/>
      <point x="203" y="866" type="line"/>
      <point x="203" y="-63" type="line" smooth="yes"/>
      <point x="203" y="-256"/>
      <point x="143" y="-342"/>
      <point x="84" y="-373" type="curve"/>
      <point x="84" y="-373"/>
      <point x="-98" y="-246"/>
      <point x="-106" y="-238" type="curve"/>
      <point x="-106" y="-238"/>
      <point x="-199" y="-262"/>
      <point x="-199" y="-346" type="curve" smooth="yes"/>
      <point x="-199" y="-412"/>
      <point x="-139" y="-469"/>
    </contour>
  </outline>
</glyph>
<glyph name="LtnSmLambdaStrk" format="2">
  <advance width="1323"/>
  <unicode hex="019B"/>
  <anchor x="661" y="-100" name="L"/>
  <anchor x="661" y="1540" name="U"/>
  <outline>
    <contour>
      <point x="1061" y="-25" type="curve" smooth="yes"/>
      <point x="1235" y="-25"/>
      <point x="1303" y="29"/>
      <point x="1303" y="184" type="curve" smooth="yes"/>
      <point x="1303" y="240"/>
      <point x="1235" y="305"/>
      <point x="1184" y="305" type="curve"/>
      <point x="1096" y="131" type="line"/>
      <point x="1075" y="119"/>
      <point x="1057" y="113"/>
      <point x="1038" y="113" type="curve" smooth="yes"/>
      <point x="993" y="113"/>
      <point x="952" y="158"/>
      <point x="897" y="293" type="curve" smooth="yes"/>
      <point x="543" y="1171" type="line" smooth="yes"/>
      <point x="479" y="1325"/>
      <point x="410" y="1407"/>
      <point x="270" y="1407" type="curve" smooth="yes"/>
      <point x="96" y="1407"/>
      <point x="29" y="1354"/>
      <point x="29" y="1198" type="curve" smooth="yes"/>
      <point x="29" y="1143"/>
      <point x="96" y="1077"/>
      <point x="147" y="1077" type="curve"/>
      <point x="238" y="1251" type="line"/>
      <point x="258" y="1264"/>
      <point x="276" y="1272"/>
      <point x="295" y="1272" type="curve" smooth="yes"/>
      <point x="340" y="1272"/>
      <point x="380" y="1239"/>
      <point x="434" y="1104" type="curve" smooth="yes"/>
      <point x="502" y="934" type="line"/>
      <point x="20" y="0" type="line"/>
      <point x="217" y="0" type="line"/>
      <point x="590" y="723" type="line"/>
      <point x="791" y="225" type="line" smooth="yes"/>
      <point x="852" y="70"/>
      <point x="922" y="-25"/>
    </contour>
    <contour>
      <point x="196" y="820" type="line"/>
      <point x="702" y="1260" type="line"/>
      <point x="702" y="1407" type="line"/>
      <point x="196" y="967" type="line"/>
    </contour>
  </outline>
</glyph>
<glyph name="LtnCapOHorn" format="2">
  <advance width="1662"/>
  <unicode hex="01A0"/>
  <anchor x="748" y="-100" name="L"/>
  <anchor x="748" y="1500" name="U"/>
  <outline>
    <contour>
      <point x="1622" y="1481" type="curve" smooth="yes"/>
      <point x="1622" y="1655"/>
      <point x="1530" y="1757"/>
      <point x="1391" y="1757" type="curve" smooth="yes"/>
      <point x="1303" y="1757"/>
      <point x="1223" y="1696"/>
      <point x="1223" y="1610" type="curve" smooth="yes"/>
      <point x="1223" y="1538"/>
      <point x="1282" y="1473"/>
      <point x="1282" y="1473" type="curve"/>
      <point x="1468" y="1473" type="line"/>
      <point x="1468" y="1346"/>
      <point x="1368" y="1245"/>
      <point x="1253" y="1176" type="curve"/>
      <point x="1133" y="1321"/>
      <point x="954" y="1407"/>
      <point x="750" y="1407" type="curve" smooth="yes"/>
      <point x="342" y="1407"/>
      <point x="80" y="1087"/>
      <point x="80" y="688" type="curve" smooth="yes"/>
      <point x="80" y="276"/>
      <point x="350" y="-33"/>
      <point x="752" y="-33" type="curve" smooth="yes"/>
      <point x="1153" y="-33"/>
      <point x="1419" y="289"/>
      <point x="1419" y="686" type="curve" smooth="yes"/>
      <point x="1419" y="842"/>
      <point x="1378" y="987"/>
      <point x="1307" y="1102" type="curve"/>
      <point x="1456" y="1174"/>
      <point x="1622" y="1327"/>
    </contour>
    <contour>
      <point x="1182" y="684" type="curve" smooth="yes"/>
      <point x="1182" y="360"/>
      <point x="1042" y="80"/>
      <point x="748" y="80" type="curve" smooth="yes"/>
      <point x="457" y="80"/>
      <point x="317" y="360"/>
      <point x="317" y="688" type="curve" smooth="yes"/>
      <point x="317" y="1014"/>
      <point x="455" y="1290"/>
      <point x="752" y="1290" type="curve" smooth="yes"/>
      <point x="1038" y="1290"/>
      <point x="1182" y="1018"/>
    </contour>
  </outline>
</glyph>
<glyph name="LtnCapPHook" format="2">
  <advance width="1333"/>
  <unicode hex="01A4"/>
  <anchor x="610" y="-100" name="L"/>
  <anchor x="610" y="1500" name="U"/>
  <outline>
    <contour>
      <point x="1253" y="961" type="curve" smooth="yes"/>
      <point x="1253" y="1264"/>
      <point x="1075" y="1374"/>
      <point x="688" y="1374" type="curve" smooth="yes"/>
      <point x="301" y="1374" type="line" smooth="yes"/>
      <point x="86" y="1374"/>
      <point x="-33" y="1305"/>
      <point x="-33" y="1153" type="curve" smooth="yes"/>
      <point x="-33" y="1087"/>
      <point x="20" y="1022"/>
      <point x="80" y="1022" type="curve" smooth="yes"/>
      <point x="129" y="1022"/>
      <point x="172" y="1040"/>
      <point x="211" y="1083" type="curve"/>
      <point x="125" y="1229" type="line"/>
      <point x="147" y="1262"/>
      <point x="174" y="1278"/>
      <point x="246" y="1278" type="curve" smooth="yes"/>
      <point x="324" y="1278" type="line" smooth="yes"/>
      <point x="350" y="1278"/>
      <point x="367" y="1262"/>
      <point x="367" y="1235" type="curve" smooth="yes"/>
      <point x="367" y="141" type="line" smooth="yes"/>
      <point x="367" y="125"/>
      <point x="346" y="98"/>
      <point x="319" y="96" type="curve" smooth="yes"/>
      <point x="213" y="88" type="line"/>
      <point x="213" y="0" type="line"/>
      <point x="752" y="0" type="line"/>
      <point x="752" y="88" type="line"/>
      <point x="616" y="96" type="line" smooth="yes"/>
      <point x="588" y="98"/>
      <point x="573" y="121"/>
      <point x="573" y="141" type="curve" smooth="yes"/>
      <point x="573" y="522" type="line"/>
      <point x="584" y="520"/>
      <point x="666" y="514"/>
      <point x="719" y="514" type="curve" smooth="yes"/>
      <point x="1016" y="514"/>
      <point x="1253" y="659"/>
    </contour>
    <contour>
      <point x="1040" y="958" type="curve" smooth="yes"/>
      <point x="1040" y="721"/>
      <point x="903" y="616"/>
      <point x="688" y="616" type="curve" smooth="yes"/>
      <point x="649" y="616"/>
      <point x="580" y="625"/>
      <point x="573" y="627" type="curve"/>
      <point x="573" y="1272" type="line"/>
      <point x="601" y="1273"/>
      <point x="650" y="1274"/>
      <point x="678" y="1274" type="curve" smooth="yes"/>
      <point x="938" y="1274"/>
      <point x="1040" y="1157"/>
    </contour>
  </outline>
</glyph>
<glyph name="LtnCapEsh" format="2">
  <advance width="1198"/>
  <unicode hex="01A9"/>
  <anchor x="599" y="-100" name="L"/>
  <anchor x="599" y="1500" name="U"/>
  <outline>
    <contour>
      <point x="1118" y="0" type="line"/>
      <point x="1118" y="379" type="line"/>
      <point x="997" y="379" type="line"/>
      <point x="962" y="141" type="line"/>
      <point x="958" y="121"/>
      <point x="946" y="104"/>
      <point x="928" y="104" type="curve" smooth="yes"/>
      <point x="324" y="104" type="line"/>
      <point x="759" y="713" type="line"/>
      <point x="375" y="1272" type="line"/>
      <point x="889" y="1272" type="line" smooth="yes"/>
      <point x="907" y="1272"/>
      <point x="919" y="1255"/>
      <point x="924" y="1237" type="curve"/>
      <point x="954" y="1047" type="line"/>
      <point x="1075" y="1047" type="line"/>
      <point x="1075" y="1374" type="line"/>
      <point x="120" y="1374" type="line"/>
      <point x="120" y="1280" type="line"/>
      <point x="519" y="713" type="line"/>
      <point x="80" y="90" type="line"/>
      <point x="80" y="0" type="line"/>
    </contour>
  </outline>
</glyph>
<glyph name="LtnCapTHook" format="2">
  <advance width="1227"/>
  <unicode hex="01AC"/>
  <anchor x="605" y="-100" name="L"/>
  <anchor x="605" y="1500" name="U"/>
  <outline>
    <contour>
      <point x="336" y="0" type="line"/>
      <point x="891" y="0" type="line"/>
      <point x="891" y="88" type="line"/>
      <point x="760" y="96" type="line" smooth="yes"/>
      <point x="731" y="98"/>
      <point x="717" y="121"/>
      <point x="717" y="141" type="curve" smooth="yes"/>
      <point x="717" y="1274" type="line"/>
      <point x="1010" y="1274" type="line" smooth="yes"/>
      <point x="1028" y="1274"/>
      <point x="1041" y="1260"/>
      <point x="1044" y="1239" type="curve" smooth="yes"/>
      <point x="1073" y="1047" type="line"/>
      <point x="1194" y="1047" type="line"/>
      <point x="1194" y="1374" type="line"/>
      <point x="281" y="1374" type="line" smooth="yes"/>
      <point x="127" y="1374"/>
      <point x="16" y="1262"/>
      <point x="16" y="1094" type="curve" smooth="yes"/>
      <point x="16" y="973"/>
      <point x="92" y="924"/>
      <point x="152" y="924" type="curve" smooth="yes"/>
      <point x="201" y="924"/>
      <point x="252" y="969"/>
      <point x="291" y="1012" type="curve"/>
      <point x="152" y="1128" type="line"/>
      <point x="152" y="1147" type="line"/>
      <point x="152" y="1234"/>
      <point x="213" y="1274"/>
      <point x="276" y="1274" type="curve" smooth="yes"/>
      <point x="510" y="1274" type="line"/>
      <point x="510" y="141" type="line" smooth="yes"/>
      <point x="510" y="121"/>
      <point x="496" y="98"/>
      <point x="467" y="96" type="curve" smooth="yes"/>
      <point x="336" y="88" type="line"/>
    </contour>
  </outline>
</glyph>
<glyph name="LtnSmTHook" format="2">
  <advance width="696"/>
  <unicode hex="01AD"/>
  <anchor x="400" y="-100" name="L"/>
  <anchor x="400" y="1540" name="U"/>
  <outline>
    <contour>
      <point x="186" y="205" type="line" smooth="yes"/>
      <point x="186" y="44"/>
      <point x="252" y="-29"/>
      <point x="405" y="-29" type="curve" smooth="yes"/>
      <point x="498" y="-29"/>
      <point x="613" y="5"/>
      <point x="684" y="43" type="curve"/>
      <point x="684" y="125" type="line"/>
      <point x="648" y="104"/>
      <point x="593" y="86"/>
      <point x="541" y="86" type="curve" smooth="yes"/>
      <point x="432" y="86"/>
      <point x="377" y="149"/>
      <point x="377" y="313" type="curve" smooth="yes"/>
      <point x="377" y="885" type="line"/>
      <point x="666" y="885" type="line"/>
      <point x="666" y="987" type="line"/>
      <point x="377" y="987" type="line"/>
      <point x="377" y="1153" type="line" smooth="yes"/>
      <point x="377" y="1278"/>
      <point x="403" y="1380"/>
      <point x="463" y="1411" type="curve"/>
      <point x="651" y="1276" type="line"/>
      <point x="666" y="1280"/>
      <point x="745" y="1303"/>
      <point x="745" y="1384" type="curve" smooth="yes"/>
      <point x="745" y="1450"/>
      <point x="686" y="1509"/>
      <point x="569" y="1509" type="curve" smooth="yes"/>
      <point x="262" y="1509"/>
      <point x="186" y="1274"/>
      <point x="186" y="1018" type="curve"/>
      <point x="55" y="952" type="line"/>
      <point x="55" y="885" type="line"/>
      <point x="186" y="885" type="line"/>
    </contour>
  </outline>
</glyph>
<glyph name="LtnCapTRetrHook" format="2">
  <advance width="1227"/>
  <unicode hex="01AE"/>
  <anchor x="613" y="-500" name="L"/>
  <anchor x="613" y="1500" name="U"/>
  <outline>
    <contour>
      <point x="932" y="-469" type="curve" smooth="yes"/>
      <point x="1016" y="-469"/>
      <point x="1086" y="-432"/>
      <point x="1086" y="-354" type="curve" smooth="yes"/>
      <point x="1086" y="-285"/>
      <point x="1040" y="-252"/>
      <point x="1000" y="-238" type="curve"/>
      <point x="801" y="-375" type="line"/>
      <point x="725" y="-332"/>
      <point x="717" y="-199"/>
      <point x="717" y="-43" type="curve"/>
      <point x="717" y="1274" type="line"/>
      <point x="1010" y="1274" type="line" smooth="yes"/>
      <point x="1028" y="1274"/>
      <point x="1040" y="1260"/>
      <point x="1044" y="1239" type="curve"/>
      <point x="1073" y="1047" type="line"/>
      <point x="1194" y="1047" type="line"/>
      <point x="1194" y="1374" type="line"/>
      <point x="33" y="1374" type="line"/>
      <point x="33" y="1047" type="line"/>
      <point x="152" y="1047" type="line"/>
      <point x="180" y="1239" type="line"/>
      <point x="182" y="1260"/>
      <point x="197" y="1274"/>
      <point x="215" y="1274" type="curve" smooth="yes"/>
      <point x="510" y="1274" type="line"/>
      <point x="510" y="86" type="line"/>
      <point x="510" y="-190"/>
      <point x="588" y="-469"/>
    </contour>
  </outline>
</glyph>
<glyph name="LtnCapVHook" format="2">
  <advance width="1446"/>
  <unicode hex="01B2"/>
  <anchor x="712" y="-100" name="L"/>
  <anchor x="712" y="1500" name="U"/>
  <outline>
    <contour>
      <point x="1366" y="754" type="curve" smooth="yes"/>
      <point x="1366" y="1044"/>
      <point x="1178" y="1407"/>
      <point x="958" y="1407" type="curve" smooth="yes"/>
      <point x="879" y="1407"/>
      <point x="786" y="1354"/>
      <point x="786" y="1262" type="curve" smooth="yes"/>
      <point x="786" y="1215"/>
      <point x="821" y="1171"/>
      <point x="848" y="1151" type="curve"/>
      <point x="1065" y="1151" type="line"/>
      <point x="1139" y="1087"/>
      <point x="1239" y="942"/>
      <point x="1239" y="721" type="curve" smooth="yes"/>
      <point x="1239" y="346"/>
      <point x="1010" y="104"/>
      <point x="776" y="104" type="curve" smooth="yes"/>
      <point x="588" y="104"/>
      <point x="424" y="225"/>
      <point x="424" y="469" type="curve" smooth="yes"/>
      <point x="424" y="1374" type="line"/>
      <point x="59" y="1374" type="line"/>
      <point x="59" y="1290" type="line"/>
      <point x="174" y="1280" type="line" smooth="yes"/>
      <point x="203" y="1278"/>
      <point x="217" y="1255"/>
      <point x="217" y="1237" type="curve" smooth="yes"/>
      <point x="217" y="426" type="line" smooth="yes"/>
      <point x="217" y="92"/>
      <point x="492" y="-33"/>
      <point x="682" y="-33" type="curve" smooth="yes"/>
      <point x="1151" y="-33"/>
      <point x="1366" y="324"/>
    </contour>
  </outline>
</glyph>
<glyph name="LtnCapYHook.RtHook" format="2">
  <advance width="1282"/>
  <unicode hex="01B3"/>
  <anchor x="641" y="-100" name="L"/>
  <anchor x="641" y="1500" name="U"/>
  <outline>
    <contour>
      <point x="1540" y="1329" type="curve" smooth="yes"/>
      <point x="1540" y="1399"/>
      <point x="1473" y="1466"/>
      <point x="1346" y="1466" type="curve" smooth="yes"/>
      <point x="1143" y="1466"/>
      <point x="1079" y="1393"/>
      <point x="944" y="1163" type="curve" smooth="yes"/>
      <point x="668" y="700" type="line"/>
      <point x="379" y="1235" type="line" smooth="yes"/>
      <point x="371" y="1251"/>
      <point x="371" y="1272"/>
      <point x="403" y="1276" type="curve" smooth="yes"/>
      <point x="506" y="1286" type="line"/>
      <point x="506" y="1374" type="line"/>
      <point x="20" y="1374" type="line"/>
      <point x="20" y="1286" type="line"/>
      <point x="139" y="1262" type="line"/>
      <point x="532" y="553" type="line"/>
      <point x="532" y="141" type="line" smooth="yes"/>
      <point x="532" y="121"/>
      <point x="516" y="98"/>
      <point x="487" y="96" type="curve" smooth="yes"/>
      <point x="360" y="88" type="line"/>
      <point x="360" y="0" type="line"/>
      <point x="913" y="0" type="line"/>
      <point x="913" y="88" type="line"/>
      <point x="782" y="96" type="line" smooth="yes"/>
      <point x="754" y="98"/>
      <point x="739" y="121"/>
      <point x="739" y="141" type="curve" smooth="yes"/>
      <point x="739" y="584" type="line"/>
      <point x="1090" y="1169" type="line" smooth="yes"/>
      <point x="1159" y="1288"/>
      <point x="1200" y="1335"/>
      <point x="1266" y="1335" type="curve"/>
      <point x="1442" y="1186" type="line"/>
      <point x="1442" y="1186"/>
      <point x="1540" y="1239"/>
    </contour>
  </outline>
</glyph>
<glyph name="LtnSmZStrk" format="2">
  <advance width="946"/>
  <unicode hex="01B6"/>
  <anchor x="483" y="-100" name="L"/>
  <anchor x="483" y="1100" name="U"/>
  <outline>
    <contour>
      <point x="743" y="455" type="line"/>
      <point x="743" y="558" type="line"/>
      <point x="185" y="558" type="line"/>
      <point x="185" y="455" type="line"/>
    </contour>
    <contour>
      <point x="877" y="0" type="line"/>
      <point x="877" y="309" type="line"/>
      <point x="766" y="309" type="line"/>
      <point x="745" y="147" type="line" smooth="yes"/>
      <point x="743" y="127"/>
      <point x="719" y="98"/>
      <point x="700" y="98" type="curve" smooth="yes"/>
      <point x="287" y="98" type="line"/>
      <point x="848" y="903" type="line"/>
      <point x="848" y="987" type="line"/>
      <point x="90" y="987" type="line"/>
      <point x="90" y="696" type="line"/>
      <point x="195" y="696" type="line"/>
      <point x="215" y="848" type="line"/>
      <point x="219" y="866"/>
      <point x="236" y="891"/>
      <point x="256" y="891" type="curve" smooth="yes"/>
      <point x="612" y="891" type="line"/>
      <point x="70" y="109" type="line"/>
      <point x="70" y="0" type="line"/>
    </contour>
  </outline>
</glyph>
<glyph name="LtnSmEzhRev" format="2">
  <advance width="1082"/>
  <unicode hex="01B9"/>
  <anchor x="544" y="-500" name="L"/>
  <anchor x="544" y="1100" name="U"/>
  <outline>
    <contour>
      <point x="598" y="-469" type="curve" smooth="yes"/>
      <point x="874" y="-469"/>
      <point x="1022" y="-338"/>
      <point x="1022" y="-238" type="curve" smooth="yes"/>
      <point x="1022" y="-182"/>
      <point x="982" y="-117"/>
      <point x="899" y="-117" type="curve" smooth="yes"/>
      <point x="883" y="-117"/>
      <point x="848" y="-121"/>
      <point x="832" y="-133" type="curve"/>
      <point x="768" y="-324" type="line"/>
      <point x="715" y="-355"/>
      <point x="657" y="-375"/>
      <point x="592" y="-375" type="curve" smooth="yes"/>
      <point x="399" y="-375"/>
      <point x="277" y="-176"/>
      <point x="277" y="-12" type="curve" smooth="yes"/>
      <point x="277" y="193"/>
      <point x="449" y="326"/>
      <point x="578" y="326" type="curve" smooth="yes"/>
      <point x="625" y="326"/>
      <point x="644" y="311"/>
      <point x="655" y="303" type="curve"/>
      <point x="711" y="360" type="line"/>
      <point x="301" y="811" type="line"/>
      <point x="778" y="811" type="line" smooth="yes"/>
      <point x="799" y="811"/>
      <point x="814" y="787"/>
      <point x="817" y="768" type="curve" smooth="yes"/>
      <point x="838" y="612" type="line"/>
      <point x="944" y="612" type="line"/>
      <point x="944" y="987" type="line"/>
      <point x="121" y="987" type="line"/>
      <point x="121" y="850" type="line"/>
      <point x="518" y="406" type="line"/>
      <point x="268" y="406"/>
      <point x="66" y="183"/>
      <point x="66" y="-34" type="curve" smooth="yes"/>
      <point x="66" y="-282"/>
      <point x="302" y="-469"/>
    </contour>
  </outline>
</glyph>
<glyph name="LtnTwoStrk" format="2">
  <advance width="1153"/>
  <unicode hex="01BB"/>
  <anchor x="602" y="-100" name="L"/>
  <anchor x="602" y="1500" name="U"/>
  <outline>
    <contour>
      <point x="1116" y="567" type="line"/>
      <point x="1116" y="672" type="line"/>
      <point x="864" y="672" type="line"/>
      <point x="950" y="780"/>
      <point x="1004" y="893"/>
      <point x="1004" y="1008" type="curve" smooth="yes"/>
      <point x="1004" y="1245"/>
      <point x="838" y="1399"/>
      <point x="571" y="1399" type="curve" smooth="yes"/>
      <point x="332" y="1399"/>
      <point x="127" y="1274"/>
      <point x="127" y="1102" type="curve" smooth="yes"/>
      <point x="127" y="1020"/>
      <point x="186" y="981"/>
      <point x="250" y="981" type="curve" smooth="yes"/>
      <point x="313" y="981"/>
      <point x="350" y="1016"/>
      <point x="350" y="1016" type="curve"/>
      <point x="350" y="1243" type="line"/>
      <point x="360" y="1245"/>
      <point x="420" y="1288"/>
      <point x="516" y="1288" type="curve" smooth="yes"/>
      <point x="676" y="1288"/>
      <point x="784" y="1184"/>
      <point x="784" y="987" type="curve" smooth="yes"/>
      <point x="784" y="877"/>
      <point x="743" y="776"/>
      <point x="666" y="672" type="curve"/>
      <point x="139" y="672" type="line"/>
      <point x="139" y="567" type="line"/>
      <point x="578" y="567" type="line"/>
      <point x="455" y="436"/>
      <point x="283" y="299"/>
      <point x="88" y="137" type="curve"/>
      <point x="88" y="0" type="line"/>
      <point x="1049" y="0" type="line"/>
      <point x="1049" y="350" type="line"/>
      <point x="948" y="350" type="line"/>
      <point x="911" y="174" type="line"/>
      <point x="305" y="174" type="line"/>
      <point x="479" y="311"/>
      <point x="643" y="438"/>
      <point x="770" y="567" type="curve"/>
    </contour>
  </outline>
</glyph>
<glyph name="LtnWynn" format="2">
  <advance width="1085"/>
  <unicode hex="01BF"/>
  <anchor x="529" y="-500" name="L"/>
  <anchor x="529" y="1100" name="U"/>
  <outline>
    <contour>
      <point x="43" y="-446" type="line"/>
      <point x="541" y="-446" type="line"/>
      <point x="541" y="-367" type="line"/>
      <point x="420" y="-354" type="line" smooth="yes"/>
      <point x="395" y="-351"/>
      <point x="375" y="-336"/>
      <point x="375" y="-311" type="curve" smooth="yes"/>
      <point x="375" y="-176" type="line"/>
      <point x="682" y="12"/>
      <point x="1015" y="284"/>
      <point x="1015" y="652" type="curve" smooth="yes"/>
      <point x="1015" y="842"/>
      <point x="941" y="1012"/>
      <point x="704" y="1012" type="curve" smooth="yes"/>
      <point x="587" y="1012"/>
      <point x="448" y="911"/>
      <point x="375" y="835" type="curve"/>
      <point x="375" y="987" type="line"/>
      <point x="295" y="987" type="line"/>
      <point x="43" y="909" type="line"/>
      <point x="43" y="842" type="line"/>
      <point x="184" y="842" type="line"/>
      <point x="184" y="-311" type="line" smooth="yes"/>
      <point x="184" y="-336"/>
      <point x="166" y="-351"/>
      <point x="141" y="-354" type="curve" smooth="yes"/>
      <point x="43" y="-367" type="line"/>
    </contour>
    <contour>
      <point x="375" y="-68" type="curve"/>
      <point x="375" y="727" type="line"/>
      <point x="429" y="788"/>
      <point x="529" y="868"/>
      <point x="604" y="868" type="curve" smooth="yes"/>
      <point x="792" y="868"/>
      <point x="810" y="760"/>
      <point x="810" y="593" type="curve" smooth="yes"/>
      <point x="810" y="350"/>
      <point x="664" y="133"/>
    </contour>
  </outline>
</glyph>
<glyph name="LtnAlveolarClick" format="2">
  <advance width="853"/>
  <unicode hex="01C2"/>
  <anchor x="426" y="-500" name="L"/>
  <anchor x="426" y="1570" name="U"/>
  <outline>
    <component base="LtnDentalClick" xOffset="200"/>
    <contour>
      <point x="50" y="619" type="line"/>
      <point x="803" y="619" type="line"/>
      <point x="803" y="723" type="line"/>
      <point x="50" y="723" type="line"/>
    </contour>
    <contour>
      <point x="50" y="343" type="line"/>
      <point x="803" y="343" type="line"/>
      <point x="803" y="447" type="line"/>
      <point x="50" y="447" type="line"/>
    </contour>
  </outline>
</glyph>
<glyph name="LtnCapYogh" format="2">
  <advance width="1091"/>
  <unicode hex="021C"/>
  <anchor x="540" y="-220" name="L"/>
  <anchor x="540" y="1500" name="U"/>
  <outline>
    <contour>
      <point x="125" y="-329" type="line"/>
      <point x="557" y="-213"/>
      <point x="1001" y="36"/>
      <point x="1001" y="339" type="curve" smooth="yes"/>
      <point x="1001" y="548"/>
      <point x="804" y="681"/>
      <point x="565" y="681" type="curve"/>
      <point x="518" y="577" type="line"/>
      <point x="653" y="577"/>
      <point x="786" y="494"/>
      <point x="786" y="320" type="curve" smooth="yes"/>
      <point x="786" y="92"/>
      <point x="456" y="-102"/>
      <point x="125" y="-208" type="curve"/>
    </contour>
    <contour>
      <point x="259" y="465" type="line"/>
      <point x="714" y="632"/>
      <point x="965" y="803"/>
      <point x="965" y="1065" type="curve" smooth="yes"/>
      <point x="965" y="1274"/>
      <point x="758" y="1407"/>
      <point x="519" y="1407" type="curve" smooth="yes"/>
      <point x="386" y="1407"/>
      <point x="254" y="1391"/>
      <point x="80" y="1305" type="curve"/>
      <point x="80" y="993" type="line"/>
      <point x="203" y="993" type="line"/>
      <point x="234" y="1180" type="line"/>
      <point x="261" y="1239"/>
      <point x="369" y="1303"/>
      <point x="472" y="1303" type="curve" smooth="yes"/>
      <point x="607" y="1303"/>
      <point x="760" y="1219"/>
      <point x="760" y="1036" type="curve" smooth="yes"/>
      <point x="760" y="838"/>
      <point x="504" y="677"/>
      <point x="259" y="586" type="curve"/>
    </contour>
  </outline>
</glyph>
<glyph name="LtnCapOu" format="2">
  <advance width="1197"/>
  <unicode hex="0222"/>
  <anchor x="569" y="-100" name="L"/>
  <anchor x="569" y="1585" name="U"/>
  <outline>
    <contour>
      <point x="1122" y="369" type="curve" smooth="yes"/>
      <point x="1122" y="605"/>
      <point x="953" y="693"/>
      <point x="762" y="732" type="curve"/>
      <point x="904" y="757"/>
      <point x="1069" y="857"/>
      <point x="1069" y="1051" type="curve" smooth="yes"/>
      <point x="1069" y="1306"/>
      <point x="842" y="1407"/>
      <point x="600" y="1407" type="curve" smooth="yes"/>
      <point x="365" y="1407"/>
      <point x="129" y="1306"/>
      <point x="129" y="1051" type="curve" smooth="yes"/>
      <point x="129" y="859"/>
      <point x="297" y="752"/>
      <point x="436" y="732" type="curve"/>
      <point x="247" y="708"/>
      <point x="75" y="605"/>
      <point x="75" y="369" type="curve" smooth="yes"/>
      <point x="75" y="123"/>
      <point x="309" y="-33"/>
      <point x="600" y="-33" type="curve" smooth="yes"/>
      <point x="873" y="-33"/>
      <point x="1122" y="124"/>
    </contour>
    <contour>
      <point x="851" y="1055" type="curve" smooth="yes"/>
      <point x="851" y="912"/>
      <point x="751" y="788"/>
      <point x="599" y="788" type="curve" smooth="yes"/>
      <point x="444" y="788"/>
      <point x="345" y="912"/>
      <point x="345" y="1055" type="curve" smooth="yes"/>
      <point x="345" y="1223"/>
      <point x="458" y="1303"/>
      <point x="600" y="1303" type="curve" smooth="yes"/>
      <point x="731" y="1303"/>
      <point x="851" y="1222"/>
    </contour>
    <contour>
      <point x="887" y="385" type="curve" smooth="yes"/>
      <point x="887" y="216"/>
      <point x="771" y="78"/>
      <point x="600" y="78" type="curve" smooth="yes"/>
      <point x="409" y="78"/>
      <point x="310" y="209"/>
      <point x="310" y="385" type="curve" smooth="yes"/>
      <point x="310" y="550"/>
      <point x="436" y="677"/>
      <point x="599" y="677" type="curve" smooth="yes"/>
      <point x="753" y="677"/>
      <point x="887" y="572"/>
    </contour>
  </outline>
</glyph>
<glyph name="LtnCapZHook" format="2">
  <advance width="1178"/>
  <unicode hex="0224"/>
  <anchor x="610" y="-100" name="L"/>
  <anchor x="610" y="1500" name="U"/>
  <outline>
    <contour>
      <point x="871" y="-326" type="curve"/>
      <point x="937" y="-326" type="line"/>
      <point x="1051" y="-222"/>
      <point x="1104" y="-104"/>
      <point x="1104" y="-4" type="curve" smooth="yes"/>
      <point x="1104" y="35"/>
      <point x="1096" y="72"/>
      <point x="1080" y="104" type="curve"/>
      <point x="324" y="104" type="line"/>
      <point x="1087" y="1280" type="line"/>
      <point x="1087" y="1374" type="line"/>
      <point x="123" y="1374" type="line"/>
      <point x="123" y="1047" type="line"/>
      <point x="244" y="1047" type="line"/>
      <point x="274" y="1237" type="line"/>
      <point x="279" y="1257"/>
      <point x="291" y="1272"/>
      <point x="309" y="1272" type="curve" smooth="yes"/>
      <point x="842" y="1272" type="line"/>
      <point x="80" y="90" type="line"/>
      <point x="80" y="0" type="line"/>
      <point x="921" y="0" type="line"/>
      <point x="938" y="-22"/>
      <point x="947" y="-61"/>
      <point x="947" y="-104" type="curve" smooth="yes"/>
      <point x="947" y="-178"/>
      <point x="922" y="-269"/>
    </contour>
  </outline>
</glyph>
<glyph name="LtnSmLCurl" format="2">
  <advance width="764"/>
  <unicode hex="0234"/>
  <anchor x="303" y="-100" name="L"/>
  <anchor x="303" y="1540" name="U"/>
  <outline>
    <contour>
      <point x="764" y="252" type="curve" smooth="yes"/>
      <point x="764" y="352"/>
      <point x="688" y="410"/>
      <point x="592" y="410" type="curve" smooth="yes"/>
      <point x="524" y="410"/>
      <point x="461" y="389"/>
      <point x="399" y="358" type="curve"/>
      <point x="399" y="1509" type="line"/>
      <point x="315" y="1509" type="line"/>
      <point x="53" y="1430" type="line"/>
      <point x="53" y="1362" type="line"/>
      <point x="209" y="1362" type="line"/>
      <point x="209" y="211" type="line"/>
      <point x="96" y="92"/>
      <point x="8" y="-59"/>
      <point x="-41" y="-182" type="curve"/>
      <point x="45" y="-219" type="line"/>
      <point x="88" y="-117"/>
      <point x="154" y="2"/>
      <point x="233" y="100" type="curve"/>
      <point x="272" y="20"/>
      <point x="354" y="-16"/>
      <point x="465" y="-16" type="curve" smooth="yes"/>
      <point x="639" y="-16"/>
      <point x="764" y="94"/>
    </contour>
    <contour>
      <point x="670" y="231" type="curve" smooth="yes"/>
      <point x="670" y="164"/>
      <point x="592" y="80"/>
      <point x="508" y="80" type="curve" smooth="yes"/>
      <point x="440" y="80"/>
      <point x="412" y="147"/>
      <point x="401" y="260" type="curve"/>
      <point x="459" y="297"/>
      <point x="518" y="319"/>
      <point x="580" y="319" type="curve" smooth="yes"/>
      <point x="639" y="319"/>
      <point x="670" y="295"/>
    </contour>
  </outline>
</glyph>
<glyph name="LtnSmQPDigraph" format="2">
  <advance width="1722"/>
  <unicode hex="0239"/>
  <anchor x="861" y="-500" name="L"/>
  <anchor x="861" y="1100" name="U"/>
  <outline>
    <contour>
      <point x="598" y="-446" type="line"/>
      <point x="1094" y="-446" type="line"/>
      <point x="1094" y="-369" type="line"/>
      <point x="995" y="-358" type="line"/>
      <point x="971" y="-354"/>
      <point x="952" y="-340"/>
      <point x="952" y="-315" type="curve" smooth="yes"/>
      <point x="952" y="-6" type="line"/>
      <point x="998" y="-14"/>
      <point x="1080" y="-25"/>
      <point x="1134" y="-25" type="curve" smooth="yes"/>
      <point x="1458" y="-25"/>
      <point x="1652" y="186"/>
      <point x="1652" y="508" type="curve" smooth="yes"/>
      <point x="1652" y="813"/>
      <point x="1472" y="1012"/>
      <point x="1261" y="1012" type="curve" smooth="yes"/>
      <point x="1144" y="1012"/>
      <point x="1016" y="940"/>
      <point x="952" y="885" type="curve"/>
      <point x="952" y="979" type="line"/>
      <point x="866" y="999"/>
      <point x="737" y="1012"/>
      <point x="662" y="1012" type="curve" smooth="yes"/>
      <point x="289" y="1012"/>
      <point x="70" y="803"/>
      <point x="70" y="469" type="curve" smooth="yes"/>
      <point x="70" y="197"/>
      <point x="223" y="-25"/>
      <point x="475" y="-25" type="curve" smooth="yes"/>
      <point x="567" y="-25"/>
      <point x="686" y="18"/>
      <point x="762" y="55" type="curve"/>
      <point x="762" y="-315" type="line" smooth="yes"/>
      <point x="762" y="-340"/>
      <point x="743" y="-356"/>
      <point x="719" y="-358" type="curve" smooth="yes"/>
      <point x="598" y="-369" type="line"/>
    </contour>
    <contour>
      <point x="586" y="96" type="curve" smooth="yes"/>
      <point x="365" y="96"/>
      <point x="276" y="291"/>
      <point x="276" y="502" type="curve" smooth="yes"/>
      <point x="276" y="752"/>
      <point x="397" y="918"/>
      <point x="621" y="918" type="curve" smooth="yes"/>
      <point x="676" y="918"/>
      <point x="725" y="903"/>
      <point x="762" y="895" type="curve"/>
      <point x="762" y="125" type="line"/>
      <point x="717" y="111"/>
      <point x="637" y="96"/>
    </contour>
    <contour>
      <point x="1118" y="70" type="curve" smooth="yes"/>
      <point x="1057" y="70"/>
      <point x="987" y="88"/>
      <point x="952" y="102" type="curve"/>
      <point x="952" y="807" type="line"/>
      <point x="998" y="833"/>
      <point x="1086" y="868"/>
      <point x="1161" y="868" type="curve" smooth="yes"/>
      <point x="1349" y="868"/>
      <point x="1447" y="690"/>
      <point x="1447" y="479" type="curve" smooth="yes"/>
      <point x="1447" y="266"/>
      <point x="1343" y="70"/>
    </contour>
  </outline>
</glyph>
<glyph name="LtnCapCStrk" format="2">
  <advance width="1284"/>
  <unicode hex="023B"/>
  <anchor x="645" y="0" name="H"/>
  <anchor x="693" y="-100" name="L"/>
  <anchor x="693" y="1500" name="U"/>
  <outline>
    <component base="LtnCapC"/>
    <contour>
      <point x="142" y="-104" type="line"/>
      <point x="236" y="-162" type="line"/>
      <point x="1211" y="1475" type="line"/>
      <point x="1114" y="1532" type="line"/>
    </contour>
  </outline>
</glyph>
<glyph name="LtnCapGlottalStop" format="2">
  <advance width="965"/>
  <unicode hex="0241"/>
  <anchor x="493" y="-35" name="L"/>
  <anchor x="493" y="1435" name="U"/>
  <outline>
    <contour>
      <point x="885" y="1024" type="curve" smooth="yes"/>
      <point x="885" y="1247"/>
      <point x="690" y="1409"/>
      <point x="449" y="1409" type="curve" smooth="yes"/>
      <point x="225" y="1409"/>
      <point x="80" y="1274"/>
      <point x="80" y="1178" type="curve" smooth="yes"/>
      <point x="80" y="1118"/>
      <point x="106" y="1061"/>
      <point x="188" y="1061" type="curve" smooth="yes"/>
      <point x="218" y="1061"/>
      <point x="249" y="1076"/>
      <point x="279" y="1092" type="curve"/>
      <point x="334" y="1270" type="line"/>
      <point x="371" y="1296"/>
      <point x="412" y="1307"/>
      <point x="453" y="1307" type="curve" smooth="yes"/>
      <point x="563" y="1307"/>
      <point x="670" y="1204"/>
      <point x="670" y="1024" type="curve" smooth="yes"/>
      <point x="670" y="821"/>
      <point x="479" y="713"/>
      <point x="350" y="670" type="curve"/>
      <point x="350" y="137" type="line" smooth="yes"/>
      <point x="350" y="119"/>
      <point x="324" y="97"/>
      <point x="305" y="96" type="curve" smooth="yes"/>
      <point x="201" y="88" type="line"/>
      <point x="201" y="0" type="line"/>
      <point x="711" y="0" type="line"/>
      <point x="711" y="88" type="line"/>
      <point x="602" y="96" type="line" smooth="yes"/>
      <point x="584" y="97"/>
      <point x="557" y="119"/>
      <point x="557" y="137" type="curve" smooth="yes"/>
      <point x="557" y="637" type="line"/>
      <point x="670" y="678"/>
      <point x="885" y="764"/>
    </contour>
  </outline>
</glyph>
<glyph name="LtnCapBBarredLowStem" format="2">
  <advance width="1239"/>
  <unicode hex="0243"/>
  <anchor x="597" y="-100" name="L"/>
  <anchor x="597" y="1500" name="U"/>
  <outline>
    <contour>
      <point x="1159" y="406" type="curve" smooth="yes"/>
      <point x="1159" y="647"/>
      <point x="963" y="729"/>
      <point x="780" y="729" type="curve"/>
      <point x="901" y="760"/>
      <point x="1077" y="840"/>
      <point x="1077" y="1044" type="curve" smooth="yes"/>
      <point x="1077" y="1249"/>
      <point x="940" y="1374"/>
      <point x="614" y="1374" type="curve" smooth="yes"/>
      <point x="66" y="1374" type="line"/>
      <point x="66" y="1286" type="line"/>
      <point x="174" y="1276" type="line" smooth="yes"/>
      <point x="203" y="1274"/>
      <point x="217" y="1253"/>
      <point x="217" y="1233" type="curve" smooth="yes"/>
      <point x="217" y="469" type="line"/>
      <point x="35" y="469" type="line"/>
      <point x="35" y="365" type="line"/>
      <point x="217" y="365" type="line"/>
      <point x="217" y="141" type="line" smooth="yes"/>
      <point x="217" y="121"/>
      <point x="203" y="98"/>
      <point x="174" y="96" type="curve" smooth="yes"/>
      <point x="66" y="88" type="line"/>
      <point x="66" y="0" type="line"/>
      <point x="639" y="0" type="line" smooth="yes"/>
      <point x="854" y="0"/>
      <point x="1159" y="74"/>
    </contour>
    <contour>
      <point x="854" y="1032" type="curve" smooth="yes"/>
      <point x="854" y="856"/>
      <point x="762" y="752"/>
      <point x="496" y="754" type="curve" smooth="yes"/>
      <point x="473" y="754"/>
      <point x="422" y="756"/>
      <point x="422" y="756" type="curve"/>
      <point x="422" y="1274" type="line"/>
      <point x="436" y="1274"/>
      <point x="496" y="1280"/>
      <point x="539" y="1280" type="curve" smooth="yes"/>
      <point x="750" y="1282"/>
      <point x="854" y="1192"/>
    </contour>
    <contour>
      <point x="936" y="389" type="curve" smooth="yes"/>
      <point x="936" y="195"/>
      <point x="834" y="98"/>
      <point x="547" y="100" type="curve" smooth="yes"/>
      <point x="508" y="100"/>
      <point x="422" y="106"/>
      <point x="422" y="106" type="curve"/>
      <point x="422" y="365" type="line"/>
      <point x="727" y="365" type="line"/>
      <point x="727" y="469" type="line"/>
      <point x="422" y="469" type="line"/>
      <point x="422" y="647" type="line"/>
      <point x="434" y="647"/>
      <point x="539" y="659"/>
      <point x="606" y="659" type="curve" smooth="yes"/>
      <point x="823" y="659"/>
      <point x="936" y="575"/>
    </contour>
  </outline>
</glyph>
<glyph name="LtnCapEStrk" format="2">
  <advance width="1194"/>
  <unicode hex="0246"/>
  <anchor x="604" y="-100" name="L"/>
  <anchor x="604" y="1500" name="U"/>
  <outline>
    <component base="LtnCapE"/>
    <contour>
      <point x="32" y="-104" type="line"/>
      <point x="126" y="-162" type="line"/>
      <point x="1101" y="1475" type="line"/>
      <point x="1004" y="1532" type="line"/>
    </contour>
  </outline>
</glyph>
<glyph name="LtnCapSmQHookTail" format="2">
  <advance width="1452"/>
  <unicode hex="024A"/>
  <anchor x="649" y="-100" name="L"/>
  <anchor x="876" y="1500" name="U"/>
  <outline>
    <contour>
      <point x="1673" y="-313" type="curve" smooth="yes"/>
      <point x="1673" y="-225"/>
      <point x="1585" y="-188"/>
      <point x="1569" y="-186" type="curve"/>
      <point x="1411" y="-362" type="line"/>
      <point x="1300" y="-362"/>
      <point x="1245" y="-223"/>
      <point x="1245" y="-68" type="curve" smooth="yes"/>
      <point x="1245" y="1319" type="line"/>
      <point x="1141" y="1374"/>
      <point x="1018" y="1411"/>
      <point x="791" y="1411" type="curve" smooth="yes"/>
      <point x="301" y="1411"/>
      <point x="80" y="1044"/>
      <point x="80" y="690" type="curve" smooth="yes"/>
      <point x="80" y="211"/>
      <point x="358" y="-25"/>
      <point x="788" y="-25" type="curve" smooth="yes"/>
      <point x="879" y="-25"/>
      <point x="967" y="4"/>
      <point x="1038" y="74" type="curve"/>
      <point x="1038" y="-68" type="line" smooth="yes"/>
      <point x="1038" y="-317"/>
      <point x="1182" y="-469"/>
      <point x="1389" y="-469" type="curve" smooth="yes"/>
      <point x="1593" y="-469"/>
      <point x="1673" y="-385"/>
    </contour>
    <contour>
      <point x="1038" y="178" type="line"/>
      <point x="971" y="119"/>
      <point x="889" y="76"/>
      <point x="797" y="76" type="curve" smooth="yes"/>
      <point x="518" y="76"/>
      <point x="319" y="264"/>
      <point x="319" y="686" type="curve" smooth="yes"/>
      <point x="319" y="1114"/>
      <point x="537" y="1311"/>
      <point x="836" y="1311" type="curve" smooth="yes"/>
      <point x="938" y="1311"/>
      <point x="993" y="1276"/>
      <point x="1038" y="1233" type="curve"/>
    </contour>
  </outline>
</glyph>
<glyph name="LtnCapRBarredStem" format="2">
  <advance width="1329"/>
  <unicode hex="024C"/>
  <anchor x="669" y="-100" name="L"/>
  <anchor x="669" y="1500" name="U"/>
  <outline>
    <contour>
      <point x="1194" y="-33" type="curve" smooth="yes"/>
      <point x="1255" y="-33"/>
      <point x="1311" y="-2"/>
      <point x="1329" y="0" type="curve"/>
      <point x="1329" y="84" type="line"/>
      <point x="889" y="84"/>
      <point x="1200" y="567"/>
      <point x="766" y="668" type="curve"/>
      <point x="940" y="707"/>
      <point x="1102" y="795"/>
      <point x="1102" y="1010" type="curve" smooth="yes"/>
      <point x="1102" y="1278"/>
      <point x="911" y="1374"/>
      <point x="600" y="1374" type="curve" smooth="yes"/>
      <point x="66" y="1374" type="line"/>
      <point x="66" y="1286" type="line"/>
      <point x="172" y="1278" type="line"/>
      <point x="201" y="1274"/>
      <point x="217" y="1253"/>
      <point x="217" y="1233" type="curve" smooth="yes"/>
      <point x="217" y="715" type="line"/>
      <point x="10" y="715" type="line"/>
      <point x="10" y="608" type="line"/>
      <point x="217" y="608" type="line"/>
      <point x="217" y="141" type="line" smooth="yes"/>
      <point x="217" y="121"/>
      <point x="201" y="98"/>
      <point x="172" y="96" type="curve" smooth="yes"/>
      <point x="66" y="88" type="line"/>
      <point x="66" y="0" type="line"/>
      <point x="578" y="0" type="line"/>
      <point x="578" y="88" type="line"/>
      <point x="467" y="96" type="line" smooth="yes"/>
      <point x="438" y="98"/>
      <point x="424" y="121"/>
      <point x="424" y="141" type="curve" smooth="yes"/>
      <point x="424" y="608" type="line"/>
      <point x="516" y="608" type="line" smooth="yes"/>
      <point x="1028" y="608"/>
      <point x="676" y="-33"/>
    </contour>
    <contour>
      <point x="526" y="715" type="curve" smooth="yes"/>
      <point x="492" y="715"/>
      <point x="458" y="715"/>
      <point x="424" y="715" type="curve"/>
      <point x="424" y="1272" type="line"/>
      <point x="455" y="1273"/>
      <point x="487" y="1273"/>
      <point x="518" y="1274" type="curve" smooth="yes"/>
      <point x="776" y="1280"/>
      <point x="879" y="1174"/>
      <point x="879" y="1001" type="curve" smooth="yes"/>
      <point x="879" y="782"/>
      <point x="754" y="715"/>
    </contour>
  </outline>
</glyph>
<glyph name="LtnSmYStrk" format="2">
  <advance width="1085"/>
  <unicode hex="024F"/>
  <anchor x="779" y="-100" name="L"/>
  <anchor x="472" y="-397" name="O"/>
  <anchor x="581" y="1100" name="U"/>
  <outline>
    <contour>
      <point x="1015" y="627" type="line"/>
      <point x="1015" y="730" type="line"/>
      <point x="70" y="730" type="line"/>
      <point x="70" y="627" type="line"/>
    </contour>
    <contour>
      <point x="1065" y="907" type="line"/>
      <point x="1065" y="987" type="line"/>
      <point x="700" y="987" type="line"/>
      <point x="700" y="907" type="line"/>
      <point x="797" y="901" type="line" smooth="yes"/>
      <point x="819" y="899"/>
      <point x="834" y="877"/>
      <point x="825" y="856" type="curve" smooth="yes"/>
      <point x="582" y="252" type="line"/>
      <point x="344" y="856" type="line"/>
      <point x="336" y="879"/>
      <point x="352" y="899"/>
      <point x="375" y="901" type="curve" smooth="yes"/>
      <point x="473" y="907" type="line"/>
      <point x="473" y="987" type="line"/>
      <point x="20" y="987" type="line"/>
      <point x="20" y="907" type="line"/>
      <point x="133" y="895" type="line"/>
      <point x="481" y="2" type="line"/>
      <point x="451" y="-88"/>
      <point x="377" y="-250"/>
      <point x="309" y="-317" type="curve"/>
      <point x="117" y="-229" type="line"/>
      <point x="70" y="-268"/>
      <point x="51" y="-305"/>
      <point x="51" y="-352" type="curve" smooth="yes"/>
      <point x="51" y="-414"/>
      <point x="104" y="-469"/>
      <point x="201" y="-469" type="curve" smooth="yes"/>
      <point x="270" y="-469"/>
      <point x="330" y="-440"/>
      <point x="379" y="-391" type="curve" smooth="yes"/>
      <point x="465" y="-305"/>
      <point x="539" y="-129"/>
      <point x="565" y="-63" type="curve"/>
      <point x="958" y="895" type="line"/>
    </contour>
  </outline>
</glyph>
<glyph name="LtnSmTurnedAlpha" format="2">
  <advance width="1155"/>
  <unicode hex="0252"/>
  <anchor x="568" y="0" name="H"/>
  <anchor x="568" y="-100" name="L"/>
  <anchor x="621" y="0" name="O"/>
  <anchor x="1155" y="1000" name="R"/>
  <anchor x="568" y="1100" name="U"/>
  <outline>
    <contour>
      <point x="1085" y="524" type="curve" smooth="yes"/>
      <point x="1085" y="756"/>
      <point x="965" y="1012"/>
      <point x="690" y="1012" type="curve" smooth="yes"/>
      <point x="571" y="1012"/>
      <point x="467" y="950"/>
      <point x="373" y="879" type="curve"/>
      <point x="373" y="987" type="line"/>
      <point x="51" y="987" type="line"/>
      <point x="51" y="909" type="line"/>
      <point x="137" y="901" type="line" smooth="yes"/>
      <point x="156" y="899"/>
      <point x="182" y="877"/>
      <point x="182" y="858" type="curve" smooth="yes"/>
      <point x="182" y="-25" type="line"/>
      <point x="244" y="-25" type="line"/>
      <point x="369" y="53" type="line"/>
      <point x="422" y="8"/>
      <point x="502" y="-25"/>
      <point x="567" y="-25" type="curve" smooth="yes"/>
      <point x="915" y="-25"/>
      <point x="1085" y="246"/>
    </contour>
    <contour>
      <point x="883" y="489" type="curve" smooth="yes"/>
      <point x="883" y="242"/>
      <point x="758" y="72"/>
      <point x="555" y="72" type="curve" smooth="yes"/>
      <point x="496" y="72"/>
      <point x="414" y="117"/>
      <point x="373" y="160" type="curve"/>
      <point x="373" y="801" type="line"/>
      <point x="426" y="834"/>
      <point x="502" y="868"/>
      <point x="584" y="868" type="curve" smooth="yes"/>
      <point x="772" y="868"/>
      <point x="883" y="713"/>
    </contour>
  </outline>
</glyph>
<glyph name="LtnSmOpnO" format="2">
  <advance width="954"/>
  <unicode hex="0254"/>
  <anchor x="477" y="0" name="H"/>
  <anchor x="477" y="-100" name="L"/>
  <anchor x="530" y="0" name="O"/>
  <anchor x="954" y="1000" name="R"/>
  <anchor x="477" y="1100" name="U"/>
  <outline>
    <contour>
      <point x="885" y="500" type="curve" smooth="yes"/>
      <point x="885" y="795"/>
      <point x="702" y="1012"/>
      <point x="416" y="1012" type="curve" smooth="yes"/>
      <point x="276" y="1012"/>
      <point x="162" y="961"/>
      <point x="70" y="911" type="curve"/>
      <point x="70" y="795" type="line"/>
      <point x="158" y="852"/>
      <point x="242" y="883"/>
      <point x="336" y="883" type="curve" smooth="yes"/>
      <point x="561" y="883"/>
      <point x="676" y="700"/>
      <point x="676" y="473" type="curve" smooth="yes"/>
      <point x="676" y="236"/>
      <point x="565" y="61"/>
      <point x="383" y="61" type="curve" smooth="yes"/>
      <point x="356" y="61"/>
      <point x="326" y="70"/>
      <point x="297" y="86" type="curve"/>
      <point x="297" y="266" type="line"/>
      <point x="272" y="283"/>
      <point x="240" y="299"/>
      <point x="195" y="299" type="curve" smooth="yes"/>
      <point x="133" y="299"/>
      <point x="74" y="260"/>
      <point x="74" y="180" type="curve" smooth="yes"/>
      <point x="74" y="47"/>
      <point x="211" y="-25"/>
      <point x="391" y="-25" type="curve" smooth="yes"/>
      <point x="653" y="-25"/>
      <point x="885" y="156"/>
    </contour>
  </outline>
</glyph>
<glyph name="LtnSmCCurl" format="2">
  <advance width="954"/>
  <unicode hex="0255"/>
  <anchor x="535" y="-320" name="L"/>
  <anchor x="550" y="1100" name="U"/>
  <outline>
    <contour>
      <point x="473" y="-264" type="line"/>
      <point x="473" y="-156"/>
      <point x="495" y="-27"/>
      <point x="513" y="49" type="curve" smooth="yes"/>
      <point x="537" y="152"/>
      <point x="611" y="334"/>
      <point x="711" y="334" type="curve" smooth="yes"/>
      <point x="764" y="334"/>
      <point x="789" y="304"/>
      <point x="789" y="265" type="curve" smooth="yes"/>
      <point x="789" y="179"/>
      <point x="690" y="100"/>
      <point x="586" y="100" type="curve" smooth="yes"/>
      <point x="385" y="100"/>
      <point x="279" y="275"/>
      <point x="279" y="512" type="curve" smooth="yes"/>
      <point x="279" y="750"/>
      <point x="389" y="926"/>
      <point x="571" y="926" type="curve" smooth="yes"/>
      <point x="598" y="926"/>
      <point x="629" y="915"/>
      <point x="657" y="899" type="curve"/>
      <point x="657" y="719" type="line"/>
      <point x="682" y="702"/>
      <point x="715" y="686"/>
      <point x="760" y="686" type="curve" smooth="yes"/>
      <point x="821" y="686"/>
      <point x="879" y="725"/>
      <point x="879" y="805" type="curve" smooth="yes"/>
      <point x="879" y="938"/>
      <point x="741" y="1012"/>
      <point x="561" y="1012" type="curve" smooth="yes"/>
      <point x="299" y="1012"/>
      <point x="70" y="831"/>
      <point x="70" y="487" type="curve" smooth="yes"/>
      <point x="70" y="194"/>
      <point x="258" y="-25"/>
      <point x="549" y="-25" type="curve" smooth="yes"/>
      <point x="743" y="-25"/>
      <point x="899" y="96"/>
      <point x="899" y="266" type="curve" smooth="yes"/>
      <point x="899" y="350"/>
      <point x="841" y="431"/>
      <point x="729" y="431" type="curve" smooth="yes"/>
      <point x="557" y="431"/>
      <point x="459" y="256"/>
      <point x="413" y="74" type="curve" smooth="yes"/>
      <point x="391" y="-15"/>
      <point x="375" y="-160"/>
      <point x="375" y="-264" type="curve"/>
    </contour>
  </outline>
</glyph>
<glyph name="LtnSmClosedRevOpnE" format="2">
  <advance width="1016"/>
  <unicode hex="025E"/>
  <anchor x="508" y="-100" name="L"/>
  <anchor x="1016" y="1000" name="R"/>
  <anchor x="508" y="1100" name="U"/>
  <outline>
    <contour>
      <point x="946" y="276" type="curve" smooth="yes"/>
      <point x="946" y="418"/>
      <point x="827" y="489"/>
      <point x="702" y="502" type="curve"/>
      <point x="834" y="547"/>
      <point x="895" y="657"/>
      <point x="895" y="743" type="curve" smooth="yes"/>
      <point x="895" y="899"/>
      <point x="725" y="1012"/>
      <point x="522" y="1012" type="curve" smooth="yes"/>
      <point x="250" y="1012"/>
      <point x="70" y="797"/>
      <point x="70" y="516" type="curve" smooth="yes"/>
      <point x="70" y="238"/>
      <point x="250" y="-25"/>
      <point x="522" y="-25" type="curve" smooth="yes"/>
      <point x="805" y="-25"/>
      <point x="946" y="80"/>
    </contour>
    <contour>
      <point x="748" y="279" type="curve" smooth="yes"/>
      <point x="748" y="154"/>
      <point x="641" y="76"/>
      <point x="524" y="76" type="curve" smooth="yes"/>
      <point x="375" y="76"/>
      <point x="197" y="229"/>
      <point x="197" y="516" type="curve" smooth="yes"/>
      <point x="197" y="805"/>
      <point x="375" y="928"/>
      <point x="524" y="928" type="curve" smooth="yes"/>
      <point x="610" y="928"/>
      <point x="702" y="864"/>
      <point x="702" y="743" type="curve" smooth="yes"/>
      <point x="702" y="596"/>
      <point x="618" y="530"/>
      <point x="475" y="530" type="curve"/>
      <point x="475" y="442" type="line"/>
      <point x="539" y="442" type="line" smooth="yes"/>
      <point x="645" y="442"/>
      <point x="748" y="420"/>
    </contour>
  </outline>
</glyph>
<glyph name="LtnSmGamma" format="2">
  <advance width="1188"/>
  <unicode hex="0263"/>
  <anchor x="630" y="-500" name="L"/>
  <anchor x="630" y="1100" name="U"/>
  <outline>
    <contour>
      <point x="1167" y="907" type="line"/>
      <point x="1167" y="987" type="line"/>
      <point x="795" y="987" type="line"/>
      <point x="795" y="907" type="line"/>
      <point x="897" y="899" type="line" smooth="yes"/>
      <point x="920" y="897"/>
      <point x="926" y="877"/>
      <point x="918" y="862" type="curve" smooth="yes"/>
      <point x="629" y="264" type="line"/>
      <point x="360" y="862" type="line" smooth="yes"/>
      <point x="354" y="877"/>
      <point x="362" y="897"/>
      <point x="389" y="899" type="curve" smooth="yes"/>
      <point x="489" y="907" type="line"/>
      <point x="489" y="987" type="line"/>
      <point x="20" y="987" type="line"/>
      <point x="20" y="907" type="line"/>
      <point x="145" y="895" type="line"/>
      <point x="524" y="47" type="line"/>
      <point x="416" y="-178" type="line" smooth="yes"/>
      <point x="403" y="-203"/>
      <point x="397" y="-233"/>
      <point x="397" y="-262" type="curve" smooth="yes"/>
      <point x="397" y="-354"/>
      <point x="457" y="-469"/>
      <point x="612" y="-469" type="curve" smooth="yes"/>
      <point x="768" y="-469"/>
      <point x="836" y="-326"/>
      <point x="836" y="-233" type="curve" smooth="yes"/>
      <point x="836" y="-211"/>
      <point x="831" y="-193"/>
      <point x="823" y="-174" type="curve" smooth="yes"/>
      <point x="810" y="-144"/>
      <point x="736" y="20"/>
      <point x="684" y="135" type="curve"/>
      <point x="1047" y="893" type="line"/>
    </contour>
    <contour>
      <point x="649" y="-252" type="curve" smooth="yes"/>
      <point x="649" y="-291"/>
      <point x="627" y="-350"/>
      <point x="582" y="-350" type="curve" smooth="yes"/>
      <point x="539" y="-350"/>
      <point x="510" y="-289"/>
      <point x="510" y="-252" type="curve" smooth="yes"/>
      <point x="510" y="-238"/>
      <point x="512" y="-223"/>
      <point x="518" y="-211" type="curve" smooth="yes"/>
      <point x="525" y="-194"/>
      <point x="559" y="-126"/>
      <point x="582" y="-80" type="curve"/>
      <point x="603" y="-129"/>
      <point x="633" y="-198"/>
      <point x="639" y="-211" type="curve" smooth="yes"/>
      <point x="645" y="-223"/>
      <point x="649" y="-238"/>
    </contour>
  </outline>
</glyph>
<glyph name="LtnSmTurnedM" format="2">
  <advance width="1741"/>
  <unicode hex="026F"/>
  <anchor x="871" y="-100" name="L"/>
  <anchor x="1741" y="1000" name="R"/>
  <anchor x="871" y="1100" name="U"/>
  <outline>
    <contour>
      <point x="451" y="-25" type="curve" smooth="yes"/>
      <point x="559" y="-25"/>
      <point x="725" y="66"/>
      <point x="807" y="117" type="curve"/>
      <point x="842" y="49"/>
      <point x="911" y="-25"/>
      <point x="1030" y="-25" type="curve" smooth="yes"/>
      <point x="1137" y="-25"/>
      <point x="1274" y="47"/>
      <point x="1366" y="102" type="curve"/>
      <point x="1366" y="0" type="line"/>
      <point x="1450" y="0" type="line"/>
      <point x="1698" y="78" type="line"/>
      <point x="1698" y="145" type="line"/>
      <point x="1554" y="145" type="line"/>
      <point x="1554" y="856" type="line" smooth="yes"/>
      <point x="1554" y="881"/>
      <point x="1573" y="899"/>
      <point x="1597" y="901" type="curve" smooth="yes"/>
      <point x="1700" y="907" type="line"/>
      <point x="1700" y="987" type="line"/>
      <point x="1237" y="987" type="line"/>
      <point x="1237" y="907" type="line"/>
      <point x="1323" y="901" type="line" smooth="yes"/>
      <point x="1346" y="899"/>
      <point x="1366" y="881"/>
      <point x="1366" y="856" type="curve" smooth="yes"/>
      <point x="1366" y="184" type="line"/>
      <point x="1319" y="158"/>
      <point x="1225" y="125"/>
      <point x="1147" y="125" type="curve" smooth="yes"/>
      <point x="1016" y="125"/>
      <point x="965" y="205"/>
      <point x="965" y="322" type="curve" smooth="yes"/>
      <point x="965" y="856" type="line" smooth="yes"/>
      <point x="965" y="881"/>
      <point x="983" y="899"/>
      <point x="1008" y="901" type="curve" smooth="yes"/>
      <point x="1094" y="907" type="line"/>
      <point x="1094" y="987" type="line"/>
      <point x="645" y="987" type="line"/>
      <point x="645" y="907" type="line"/>
      <point x="731" y="901" type="line" smooth="yes"/>
      <point x="756" y="899"/>
      <point x="774" y="881"/>
      <point x="774" y="856" type="curve" smooth="yes"/>
      <point x="774" y="182" type="line"/>
      <point x="711" y="150"/>
      <point x="625" y="125"/>
      <point x="557" y="125" type="curve" smooth="yes"/>
      <point x="420" y="125"/>
      <point x="375" y="207"/>
      <point x="375" y="334" type="curve" smooth="yes"/>
      <point x="375" y="856" type="line" smooth="yes"/>
      <point x="375" y="881"/>
      <point x="393" y="899"/>
      <point x="418" y="901" type="curve" smooth="yes"/>
      <point x="502" y="907" type="line"/>
      <point x="502" y="987" type="line"/>
      <point x="43" y="987" type="line"/>
      <point x="43" y="907" type="line"/>
      <point x="141" y="901" type="line" smooth="yes"/>
      <point x="166" y="899"/>
      <point x="184" y="881"/>
      <point x="184" y="856" type="curve" smooth="yes"/>
      <point x="184" y="289" type="line" smooth="yes"/>
      <point x="184" y="150"/>
      <point x="236" y="-25"/>
    </contour>
  </outline>
</glyph>
<glyph name="LtnSmMHook" format="2">
  <advance width="1714"/>
  <unicode hex="0271"/>
  <anchor x="573" y="-100" name="L"/>
  <anchor x="797" y="1100" name="U"/>
  <outline>
    <contour>
      <point x="1554" y="131" type="curve"/>
      <point x="1554" y="698" type="line" smooth="yes"/>
      <point x="1554" y="836"/>
      <point x="1501" y="1012"/>
      <point x="1286" y="1012" type="curve" smooth="yes"/>
      <point x="1178" y="1012"/>
      <point x="1016" y="922"/>
      <point x="934" y="870" type="curve"/>
      <point x="899" y="938"/>
      <point x="825" y="1012"/>
      <point x="707" y="1012" type="curve" smooth="yes"/>
      <point x="600" y="1012"/>
      <point x="467" y="940"/>
      <point x="375" y="885" type="curve"/>
      <point x="375" y="987" type="line"/>
      <point x="291" y="987" type="line"/>
      <point x="43" y="909" type="line"/>
      <point x="43" y="842" type="line"/>
      <point x="184" y="842" type="line"/>
      <point x="184" y="131" type="line" smooth="yes"/>
      <point x="184" y="106"/>
      <point x="166" y="88"/>
      <point x="141" y="86" type="curve" smooth="yes"/>
      <point x="41" y="80" type="line"/>
      <point x="41" y="0" type="line"/>
      <point x="504" y="0" type="line"/>
      <point x="504" y="80" type="line"/>
      <point x="418" y="86" type="line"/>
      <point x="393" y="90"/>
      <point x="375" y="106"/>
      <point x="375" y="131" type="curve" smooth="yes"/>
      <point x="375" y="803" type="line"/>
      <point x="424" y="829"/>
      <point x="516" y="862"/>
      <point x="594" y="862" type="curve" smooth="yes"/>
      <point x="727" y="862"/>
      <point x="774" y="778"/>
      <point x="774" y="664" type="curve" smooth="yes"/>
      <point x="774" y="131" type="line" smooth="yes"/>
      <point x="774" y="106"/>
      <point x="756" y="90"/>
      <point x="731" y="86" type="curve"/>
      <point x="645" y="80" type="line"/>
      <point x="645" y="0" type="line"/>
      <point x="1094" y="0" type="line"/>
      <point x="1094" y="80" type="line"/>
      <point x="1008" y="86" type="line"/>
      <point x="983" y="90"/>
      <point x="965" y="106"/>
      <point x="965" y="131" type="curve" smooth="yes"/>
      <point x="965" y="803" type="line"/>
      <point x="1030" y="836"/>
      <point x="1112" y="862"/>
      <point x="1182" y="862" type="curve" smooth="yes"/>
      <point x="1317" y="862"/>
      <point x="1364" y="778"/>
      <point x="1364" y="653" type="curve" smooth="yes"/>
      <point x="1364" y="-43" type="line" smooth="yes"/>
      <point x="1364" y="-199"/>
      <point x="1341" y="-330"/>
      <point x="1266" y="-375" type="curve"/>
      <point x="1067" y="-238" type="line"/>
      <point x="1026" y="-252"/>
      <point x="979" y="-287"/>
      <point x="979" y="-356" type="curve" smooth="yes"/>
      <point x="979" y="-432"/>
      <point x="1053" y="-469"/>
      <point x="1135" y="-469" type="curve" smooth="yes"/>
      <point x="1481" y="-469"/>
      <point x="1554" y="-145"/>
    </contour>
  </outline>
</glyph>
<glyph name="LtnSmPhi" format="2">
  <advance width="1124"/>
  <unicode hex="0278"/>
  <anchor x="562" y="-500" name="L"/>
  <anchor x="562" y="1540" name="U"/>
  <outline>
    <contour>
      <point x="1055" y="496" type="curve" smooth="yes"/>
      <point x="1055" y="754"/>
      <point x="905" y="958"/>
      <point x="657" y="1001" type="curve"/>
      <point x="657" y="1245" type="line" smooth="yes"/>
      <point x="657" y="1264"/>
      <point x="684" y="1284"/>
      <point x="702" y="1286" type="curve" smooth="yes"/>
      <point x="811" y="1296" type="line"/>
      <point x="811" y="1374" type="line"/>
      <point x="313" y="1374" type="line"/>
      <point x="313" y="1296" type="line"/>
      <point x="424" y="1286" type="line" smooth="yes"/>
      <point x="442" y="1284"/>
      <point x="467" y="1264"/>
      <point x="467" y="1245" type="curve" smooth="yes"/>
      <point x="467" y="1004" type="line"/>
      <point x="219" y="963"/>
      <point x="70" y="758"/>
      <point x="70" y="496" type="curve" smooth="yes"/>
      <point x="70" y="233"/>
      <point x="223" y="31"/>
      <point x="467" y="-10" type="curve"/>
      <point x="467" y="-317" type="line" smooth="yes"/>
      <point x="467" y="-336"/>
      <point x="442" y="-358"/>
      <point x="424" y="-360" type="curve" smooth="yes"/>
      <point x="313" y="-369" type="line"/>
      <point x="313" y="-446" type="line"/>
      <point x="811" y="-446" type="line"/>
      <point x="811" y="-369" type="line"/>
      <point x="702" y="-360" type="line" smooth="yes"/>
      <point x="684" y="-358"/>
      <point x="657" y="-336"/>
      <point x="657" y="-317" type="curve" smooth="yes"/>
      <point x="657" y="-10" type="line"/>
      <point x="901" y="31"/>
      <point x="1055" y="238"/>
    </contour>
    <contour>
      <point x="848" y="496" type="curve" smooth="yes"/>
      <point x="848" y="313"/>
      <point x="784" y="152"/>
      <point x="657" y="96" type="curve"/>
      <point x="657" y="895" type="line"/>
      <point x="780" y="840"/>
      <point x="848" y="676"/>
    </contour>
    <contour>
      <point x="467" y="96" type="line"/>
      <point x="344" y="152"/>
      <point x="276" y="315"/>
      <point x="276" y="496" type="curve" smooth="yes"/>
      <point x="276" y="678"/>
      <point x="340" y="844"/>
      <point x="467" y="897" type="curve"/>
    </contour>
  </outline>
</glyph>
<glyph name="LtnSmRHookTail" format="2">
  <advance width="801"/>
  <unicode hex="027D"/>
  <anchor x="413" y="-500" name="L"/>
  <anchor x="413" y="1100" name="U"/>
  <outline>
    <contour>
      <point x="547" y="-469" type="curve" smooth="yes"/>
      <point x="629" y="-469"/>
      <point x="739" y="-408"/>
      <point x="739" y="-332" type="curve" smooth="yes"/>
      <point x="739" y="-260"/>
      <point x="694" y="-229"/>
      <point x="653" y="-213" type="curve"/>
      <point x="483" y="-375" type="line"/>
      <point x="391" y="-322"/>
      <point x="385" y="-104"/>
      <point x="385" y="-14" type="curve"/>
      <point x="385" y="707" type="line"/>
      <point x="455" y="786"/>
      <point x="524" y="834"/>
      <point x="590" y="834" type="curve" smooth="yes"/>
      <point x="641" y="834"/>
      <point x="674" y="809"/>
      <point x="700" y="778" type="curve"/>
      <point x="780" y="778" type="line"/>
      <point x="780" y="981" type="line"/>
      <point x="754" y="995"/>
      <point x="698" y="1012"/>
      <point x="655" y="1012" type="curve" smooth="yes"/>
      <point x="559" y="1012"/>
      <point x="434" y="870"/>
      <point x="385" y="805" type="curve"/>
      <point x="385" y="987" type="line"/>
      <point x="301" y="987" type="line"/>
      <point x="47" y="909" type="line"/>
      <point x="47" y="842" type="line"/>
      <point x="195" y="842" type="line"/>
      <point x="195" y="4" type="line"/>
      <point x="195" y="-272"/>
      <point x="272" y="-469"/>
    </contour>
  </outline>
</glyph>
<glyph name="LtnSmDotlessJStrkHook" format="2">
  <advance width="668"/>
  <unicode hex="0284"/>
  <anchor x="315" y="-500" name="L"/>
  <anchor x="346" y="-377" name="O"/>
  <anchor x="315" y="1540" name="U"/>
  <outline>
    <contour>
      <point x="-6" y="-469" type="curve" smooth="yes"/>
      <point x="233" y="-469"/>
      <point x="406" y="-256"/>
      <point x="406" y="-47" type="curve"/>
      <point x="406" y="567" type="line"/>
      <point x="573" y="567" type="line"/>
      <point x="573" y="670" type="line"/>
      <point x="410" y="670" type="line"/>
      <point x="410" y="1102" type="line" smooth="yes"/>
      <point x="410" y="1282"/>
      <point x="471" y="1378"/>
      <point x="530" y="1409" type="curve"/>
      <point x="719" y="1276" type="line"/>
      <point x="733" y="1280"/>
      <point x="813" y="1303"/>
      <point x="813" y="1386" type="curve" smooth="yes"/>
      <point x="813" y="1450"/>
      <point x="756" y="1509"/>
      <point x="639" y="1509" type="curve" smooth="yes"/>
      <point x="344" y="1509"/>
      <point x="219" y="1274"/>
      <point x="219" y="1024" type="curve" smooth="yes"/>
      <point x="219" y="670" type="line"/>
      <point x="55" y="670" type="line"/>
      <point x="55" y="567" type="line"/>
      <point x="219" y="567" type="line"/>
      <point x="219" y="-63" type="line" smooth="yes"/>
      <point x="219" y="-256"/>
      <point x="160" y="-340"/>
      <point x="100" y="-373" type="curve"/>
      <point x="-88" y="-238" type="line"/>
      <point x="-88" y="-238"/>
      <point x="-182" y="-262"/>
      <point x="-182" y="-346" type="curve" smooth="yes"/>
      <point x="-182" y="-412"/>
      <point x="-123" y="-469"/>
    </contour>
  </outline>
</glyph>
<glyph name="LtnSmVHook" format="2">
  <advance width="1110"/>
  <unicode hex="028B"/>
  <anchor x="580" y="0" name="H"/>
  <anchor x="541" y="-100" name="L"/>
  <anchor x="751" y="0" name="O"/>
  <anchor x="541" y="1100" name="U"/>
  <outline>
    <contour>
      <point x="1040" y="539" type="curve" smooth="yes"/>
      <point x="1040" y="748"/>
      <point x="924" y="1012"/>
      <point x="721" y="1012" type="curve" smooth="yes"/>
      <point x="659" y="1012"/>
      <point x="602" y="967"/>
      <point x="602" y="901" type="curve" smooth="yes"/>
      <point x="602" y="870"/>
      <point x="621" y="838"/>
      <point x="635" y="823" type="curve"/>
      <point x="819" y="823" type="line"/>
      <point x="889" y="778"/>
      <point x="940" y="653"/>
      <point x="940" y="563" type="curve" smooth="yes"/>
      <point x="940" y="313"/>
      <point x="825" y="111"/>
      <point x="664" y="111" type="curve" smooth="yes"/>
      <point x="526" y="111"/>
      <point x="377" y="176"/>
      <point x="377" y="334" type="curve" smooth="yes"/>
      <point x="377" y="1012" type="line"/>
      <point x="293" y="1012" type="line"/>
      <point x="43" y="934" type="line"/>
      <point x="43" y="864" type="line"/>
      <point x="186" y="864" type="line"/>
      <point x="186" y="319" type="line" smooth="yes"/>
      <point x="186" y="68"/>
      <point x="383" y="-25"/>
      <point x="569" y="-25" type="curve" smooth="yes"/>
      <point x="866" y="-25"/>
      <point x="1040" y="238"/>
    </contour>
  </outline>
</glyph>
<glyph name="LtnSmTurnedW" format="2">
  <advance width="1604"/>
  <unicode hex="028D"/>
  <anchor x="801" y="-100" name="L"/>
  <anchor x="801" y="1100" name="U"/>
  <outline>
    <contour>
      <point x="1583" y="0" type="line"/>
      <point x="1583" y="80" type="line"/>
      <point x="1470" y="92" type="line"/>
      <point x="1208" y="987" type="line"/>
      <point x="1063" y="987" type="line"/>
      <point x="793" y="221" type="line"/>
      <point x="551" y="987" type="line"/>
      <point x="406" y="987" type="line"/>
      <point x="125" y="92" type="line"/>
      <point x="20" y="80" type="line"/>
      <point x="20" y="0" type="line"/>
      <point x="379" y="0" type="line"/>
      <point x="379" y="80" type="line"/>
      <point x="285" y="86" type="line" smooth="yes"/>
      <point x="262" y="88"/>
      <point x="250" y="111"/>
      <point x="256" y="131" type="curve" smooth="yes"/>
      <point x="444" y="768" type="line"/>
      <point x="682" y="0" type="line"/>
      <point x="827" y="0" type="line"/>
      <point x="1092" y="768" type="line"/>
      <point x="1262" y="131" type="line" smooth="yes"/>
      <point x="1268" y="109"/>
      <point x="1253" y="88"/>
      <point x="1231" y="86" type="curve" smooth="yes"/>
      <point x="1135" y="80" type="line"/>
      <point x="1135" y="0" type="line"/>
    </contour>
  </outline>
</glyph>
<glyph name="LtnSmCapY" format="2">
  <advance width="1053"/>
  <unicode hex="028F"/>
  <anchor x="526" y="-100" name="L"/>
  <anchor x="1053" y="1000" name="R"/>
  <anchor x="526" y="1100" name="U"/>
  <outline>
    <contour>
      <point x="293" y="0" type="line"/>
      <point x="754" y="0" type="line"/>
      <point x="754" y="80" type="line"/>
      <point x="639" y="86" type="line" smooth="yes"/>
      <point x="623" y="86"/>
      <point x="614" y="100"/>
      <point x="614" y="109" type="curve" smooth="yes"/>
      <point x="614" y="420" type="line"/>
      <point x="940" y="893" type="line"/>
      <point x="1032" y="907" type="line"/>
      <point x="1032" y="987" type="line"/>
      <point x="682" y="987" type="line"/>
      <point x="682" y="907" type="line"/>
      <point x="780" y="895" type="line"/>
      <point x="795" y="895"/>
      <point x="797" y="885"/>
      <point x="793" y="881" type="curve" smooth="yes"/>
      <point x="547" y="520" type="line"/>
      <point x="324" y="883" type="line" smooth="yes"/>
      <point x="319" y="891"/>
      <point x="319" y="897"/>
      <point x="336" y="899" type="curve" smooth="yes"/>
      <point x="428" y="905" type="line"/>
      <point x="428" y="987" type="line"/>
      <point x="20" y="987" type="line"/>
      <point x="20" y="907" type="line"/>
      <point x="119" y="891" type="line"/>
      <point x="430" y="397" type="line"/>
      <point x="430" y="109" type="line" smooth="yes"/>
      <point x="430" y="100"/>
      <point x="420" y="86"/>
      <point x="401" y="86" type="curve" smooth="yes"/>
      <point x="293" y="80" type="line"/>
    </contour>
  </outline>
</glyph>
<glyph name="LtnSmZCurl" format="2">
  <advance width="946"/>
  <unicode hex="0291"/>
  <anchor x="483" y="-500" name="L"/>
  <anchor x="483" y="1100" name="U"/>
  <outline>
    <contour>
      <point x="918" y="268" type="curve" smooth="yes"/>
      <point x="918" y="348"/>
      <point x="852" y="414"/>
      <point x="770" y="414" type="curve" smooth="yes"/>
      <point x="604" y="414"/>
      <point x="494" y="293"/>
      <point x="440" y="98" type="curve"/>
      <point x="287" y="98" type="line"/>
      <point x="848" y="901" type="line"/>
      <point x="848" y="987" type="line"/>
      <point x="90" y="987" type="line"/>
      <point x="90" y="696" type="line"/>
      <point x="195" y="696" type="line"/>
      <point x="215" y="846" type="line" smooth="yes"/>
      <point x="217" y="864"/>
      <point x="236" y="889"/>
      <point x="256" y="889" type="curve" smooth="yes"/>
      <point x="612" y="889" type="line"/>
      <point x="70" y="109" type="line"/>
      <point x="70" y="0" type="line"/>
      <point x="420" y="0" type="line"/>
      <point x="408" y="-80"/>
      <point x="403" y="-168"/>
      <point x="403" y="-264" type="curve"/>
      <point x="492" y="-264" type="line"/>
      <point x="492" y="-195"/>
      <point x="498" y="-96"/>
      <point x="512" y="0" type="curve"/>
      <point x="635" y="0" type="line" smooth="yes"/>
      <point x="768" y="0"/>
      <point x="918" y="115"/>
    </contour>
    <contour>
      <point x="819" y="264" type="curve" smooth="yes"/>
      <point x="819" y="176"/>
      <point x="737" y="98"/>
      <point x="618" y="98" type="curve" smooth="yes"/>
      <point x="535" y="98" type="line"/>
      <point x="569" y="221"/>
      <point x="635" y="322"/>
      <point x="752" y="322" type="curve" smooth="yes"/>
      <point x="786" y="322"/>
      <point x="819" y="299"/>
    </contour>
  </outline>
</glyph>
<glyph name="LtnSmEzhCurl" format="2">
  <advance width="1069"/>
  <unicode hex="0293"/>
  <anchor x="521" y="-500" name="L"/>
  <anchor x="521" y="1100" name="U"/>
  <outline>
    <contour>
      <point x="999" y="10" type="curve" smooth="yes"/>
      <point x="999" y="227"/>
      <point x="797" y="406"/>
      <point x="547" y="406" type="curve"/>
      <point x="944" y="850" type="line"/>
      <point x="944" y="987" type="line"/>
      <point x="121" y="987" type="line"/>
      <point x="121" y="612" type="line"/>
      <point x="227" y="612" type="line"/>
      <point x="248" y="768" type="line" smooth="yes"/>
      <point x="250" y="786"/>
      <point x="266" y="811"/>
      <point x="287" y="811" type="curve" smooth="yes"/>
      <point x="764" y="811" type="line"/>
      <point x="354" y="360" type="line"/>
      <point x="410" y="303" type="line"/>
      <point x="420" y="311"/>
      <point x="440" y="326"/>
      <point x="487" y="326" type="curve" smooth="yes"/>
      <point x="616" y="326"/>
      <point x="788" y="215"/>
      <point x="788" y="12" type="curve" smooth="yes"/>
      <point x="788" y="-74"/>
      <point x="750" y="-168"/>
      <point x="686" y="-240" type="curve"/>
      <point x="604" y="-131"/>
      <point x="481" y="-18"/>
      <point x="291" y="-18" type="curve" smooth="yes"/>
      <point x="170" y="-18"/>
      <point x="43" y="-88"/>
      <point x="43" y="-223" type="curve" smooth="yes"/>
      <point x="43" y="-381"/>
      <point x="190" y="-469"/>
      <point x="416" y="-469" type="curve" smooth="yes"/>
      <point x="530" y="-469"/>
      <point x="608" y="-440"/>
      <point x="680" y="-410" type="curve"/>
      <point x="704" y="-447"/>
      <point x="723" y="-482"/>
      <point x="731" y="-498" type="curve"/>
      <point x="815" y="-446" type="line"/>
      <point x="803" y="-424"/>
      <point x="788" y="-397"/>
      <point x="768" y="-365" type="curve"/>
      <point x="907" y="-279"/>
      <point x="999" y="-139"/>
    </contour>
    <contour>
      <point x="604" y="-307" type="curve"/>
      <point x="571" y="-336"/>
      <point x="508" y="-365"/>
      <point x="443" y="-365" type="curve" smooth="yes"/>
      <point x="363" y="-365"/>
      <point x="201" y="-334"/>
      <point x="201" y="-221" type="curve" smooth="yes"/>
      <point x="201" y="-166"/>
      <point x="252" y="-125"/>
      <point x="309" y="-125" type="curve" smooth="yes"/>
      <point x="424" y="-125"/>
      <point x="528" y="-215"/>
    </contour>
  </outline>
</glyph>
<glyph name="LtnRevGlottalStop" format="2">
  <advance width="954"/>
  <unicode hex="0295"/>
  <anchor x="477" y="-100" name="L"/>
  <anchor x="477" y="1540" name="U"/>
  <outline>
    <contour>
      <point x="80" y="1042" type="curve" smooth="yes"/>
      <point x="80" y="782"/>
      <point x="280" y="676"/>
      <point x="393" y="625" type="curve"/>
      <point x="393" y="131" type="line" smooth="yes"/>
      <point x="393" y="113"/>
      <point x="366" y="92"/>
      <point x="348" y="90" type="curve" smooth="yes"/>
      <point x="241" y="80" type="line"/>
      <point x="241" y="0" type="line"/>
      <point x="733" y="0" type="line"/>
      <point x="733" y="80" type="line"/>
      <point x="628" y="90" type="line" smooth="yes"/>
      <point x="610" y="92"/>
      <point x="583" y="113"/>
      <point x="583" y="131" type="curve" smooth="yes"/>
      <point x="583" y="643" type="line"/>
      <point x="454" y="686"/>
      <point x="284" y="819"/>
      <point x="284" y="1022" type="curve" smooth="yes"/>
      <point x="284" y="1202"/>
      <point x="391" y="1315"/>
      <point x="501" y="1315" type="curve" smooth="yes"/>
      <point x="542" y="1315"/>
      <point x="583" y="1305"/>
      <point x="620" y="1278" type="curve"/>
      <point x="675" y="1100" type="line"/>
      <point x="694" y="1086"/>
      <point x="736" y="1069"/>
      <point x="766" y="1069" type="curve" smooth="yes"/>
      <point x="848" y="1069"/>
      <point x="874" y="1126"/>
      <point x="874" y="1186" type="curve" smooth="yes"/>
      <point x="874" y="1282"/>
      <point x="729" y="1407"/>
      <point x="505" y="1407" type="curve" smooth="yes"/>
      <point x="264" y="1407"/>
      <point x="80" y="1266"/>
    </contour>
  </outline>
</glyph>
<glyph name="LtnStretchedC" format="2">
  <advance width="954"/>
  <unicode hex="0297"/>
  <anchor x="535" y="-500" name="L"/>
  <anchor x="550" y="1100" name="U"/>
  <outline>
    <contour>
      <point x="885" y="-371" type="curve"/>
      <point x="885" y="-254" type="line"/>
      <point x="797" y="-309"/>
      <point x="715" y="-342"/>
      <point x="618" y="-342" type="curve" smooth="yes"/>
      <point x="393" y="-342"/>
      <point x="279" y="-168"/>
      <point x="279" y="59" type="curve" smooth="yes"/>
      <point x="279" y="514" type="line" smooth="yes"/>
      <point x="279" y="752"/>
      <point x="391" y="926"/>
      <point x="571" y="926" type="curve" smooth="yes"/>
      <point x="598" y="926"/>
      <point x="629" y="915"/>
      <point x="657" y="899" type="curve"/>
      <point x="657" y="719" type="line"/>
      <point x="682" y="702"/>
      <point x="715" y="686"/>
      <point x="760" y="686" type="curve" smooth="yes"/>
      <point x="821" y="686"/>
      <point x="881" y="725"/>
      <point x="881" y="805" type="curve" smooth="yes"/>
      <point x="881" y="938"/>
      <point x="743" y="1012"/>
      <point x="563" y="1012" type="curve" smooth="yes"/>
      <point x="301" y="1012"/>
      <point x="70" y="831"/>
      <point x="70" y="487" type="curve" smooth="yes"/>
      <point x="70" y="35" type="line" smooth="yes"/>
      <point x="70" y="-260"/>
      <point x="252" y="-469"/>
      <point x="539" y="-469" type="curve" smooth="yes"/>
      <point x="678" y="-469"/>
      <point x="795" y="-420"/>
    </contour>
  </outline>
</glyph>
<glyph name="LtnBilabialClick" format="2">
  <advance width="1589"/>
  <unicode hex="0298"/>
  <anchor x="794" y="-100" name="L"/>
  <anchor x="794" y="1500" name="U"/>
  <outline>
    <contour>
      <point x="1509" y="688" type="curve" smooth="yes"/>
      <point x="1509" y="1077"/>
      <point x="1196" y="1407"/>
      <point x="797" y="1407" type="curve" smooth="yes"/>
      <point x="399" y="1407"/>
      <point x="80" y="1083"/>
      <point x="80" y="686" type="curve" smooth="yes"/>
      <point x="80" y="291"/>
      <point x="399" y="-33"/>
      <point x="795" y="-33" type="curve" smooth="yes"/>
      <point x="1192" y="-33"/>
      <point x="1509" y="291"/>
    </contour>
    <contour>
      <point x="1368" y="686" type="curve" smooth="yes"/>
      <point x="1368" y="369"/>
      <point x="1112" y="109"/>
      <point x="795" y="109" type="curve" smooth="yes"/>
      <point x="479" y="109"/>
      <point x="221" y="369"/>
      <point x="221" y="686" type="curve" smooth="yes"/>
      <point x="221" y="1006"/>
      <point x="477" y="1266"/>
      <point x="797" y="1266" type="curve" smooth="yes"/>
      <point x="1114" y="1266"/>
      <point x="1370" y="1004"/>
    </contour>
    <contour>
      <point x="938" y="696" type="curve"/>
      <point x="944" y="776"/>
      <point x="877" y="836"/>
      <point x="795" y="836" type="curve" smooth="yes"/>
      <point x="715" y="836"/>
      <point x="653" y="776"/>
      <point x="653" y="696" type="curve" smooth="yes"/>
      <point x="653" y="614"/>
      <point x="715" y="545"/>
      <point x="795" y="545" type="curve" smooth="yes"/>
      <point x="877" y="545"/>
      <point x="944" y="614"/>
    </contour>
  </outline>
</glyph>
<glyph name="LtnSmJCrossedTail" format="2">
  <advance width="641"/>
  <unicode hex="029D"/>
  <anchor x="133" y="-500" name="L"/>
  <anchor x="330" y="-377" name="O"/>
  <anchor x="323" y="1500" name="U"/>
  <outline>
    <contour>
      <point x="551" y="-434" type="curve"/>
      <point x="625" y="-379" type="line"/>
      <point x="565" y="-279"/>
      <point x="485" y="-160"/>
      <point x="395" y="-90" type="curve"/>
      <point x="420" y="0"/>
      <point x="428" y="98"/>
      <point x="428" y="190" type="curve" smooth="yes"/>
      <point x="428" y="1012" type="line"/>
      <point x="344" y="1012" type="line"/>
      <point x="92" y="934" type="line"/>
      <point x="92" y="866" type="line"/>
      <point x="238" y="866" type="line"/>
      <point x="238" y="16" type="line" smooth="yes"/>
      <point x="238" y="8"/>
      <point x="238" y="0"/>
      <point x="236" y="-10" type="curve"/>
      <point x="205" y="-2"/>
      <point x="172" y="0"/>
      <point x="137" y="0" type="curve" smooth="yes"/>
      <point x="-8" y="0"/>
      <point x="-162" y="-94"/>
      <point x="-162" y="-258" type="curve" smooth="yes"/>
      <point x="-162" y="-362"/>
      <point x="-102" y="-469"/>
      <point x="16" y="-469" type="curve" smooth="yes"/>
      <point x="190" y="-469"/>
      <point x="299" y="-319"/>
      <point x="360" y="-190" type="curve"/>
      <point x="436" y="-254"/>
      <point x="508" y="-358"/>
    </contour>
    <contour>
      <point x="31" y="-375" type="curve" smooth="yes"/>
      <point x="-35" y="-375"/>
      <point x="-57" y="-313"/>
      <point x="-57" y="-256" type="curve" smooth="yes"/>
      <point x="-57" y="-162"/>
      <point x="27" y="-89"/>
      <point x="127" y="-89" type="curve" smooth="yes"/>
      <point x="160" y="-89"/>
      <point x="192" y="-94"/>
      <point x="223" y="-104" type="curve"/>
      <point x="201" y="-215"/>
      <point x="143" y="-375"/>
    </contour>
    <contour>
      <point x="326" y="1198" type="curve" smooth="yes"/>
      <point x="395" y="1198"/>
      <point x="451" y="1255"/>
      <point x="451" y="1325" type="curve" smooth="yes"/>
      <point x="451" y="1395"/>
      <point x="395" y="1450"/>
      <point x="326" y="1450" type="curve" smooth="yes"/>
      <point x="256" y="1450"/>
      <point x="199" y="1395"/>
      <point x="199" y="1325" type="curve" smooth="yes"/>
      <point x="199" y="1255"/>
      <point x="256" y="1198"/>
    </contour>
  </outline>
</glyph>
<glyph name="LtnSmTurnedK" format="2">
  <advance width="1094"/>
  <unicode hex="029E"/>
  <anchor x="373" y="-100" name="L"/>
  <anchor x="542" y="1100" name="U"/>
  <outline>
    <contour>
      <point x="1065" y="-391" type="line"/>
      <point x="1065" y="-324" type="line"/>
      <point x="907" y="-324" type="line"/>
      <point x="907" y="856" type="line" smooth="yes"/>
      <point x="907" y="881"/>
      <point x="926" y="900"/>
      <point x="950" y="901" type="curve" smooth="yes"/>
      <point x="1053" y="907" type="line"/>
      <point x="1053" y="987" type="line"/>
      <point x="588" y="987" type="line"/>
      <point x="588" y="907" type="line"/>
      <point x="676" y="901" type="line" smooth="yes"/>
      <point x="700" y="899"/>
      <point x="719" y="881"/>
      <point x="719" y="856" type="curve" smooth="yes"/>
      <point x="719" y="522" type="line"/>
      <point x="602" y="522" type="line"/>
      <point x="346" y="907" type="line"/>
      <point x="346" y="987" type="line"/>
      <point x="20" y="987" type="line"/>
      <point x="20" y="907" type="line"/>
      <point x="129" y="895" type="line"/>
      <point x="479" y="383" type="line"/>
      <point x="211" y="94" type="line"/>
      <point x="80" y="80" type="line"/>
      <point x="80" y="0" type="line"/>
      <point x="475" y="0" type="line"/>
      <point x="475" y="80" type="line"/>
      <point x="391" y="88" type="line" smooth="yes"/>
      <point x="373" y="90"/>
      <point x="366" y="110"/>
      <point x="377" y="123" type="curve" smooth="yes"/>
      <point x="678" y="463" type="line"/>
      <point x="719" y="463" type="line"/>
      <point x="719" y="-469" type="line"/>
      <point x="803" y="-469" type="line"/>
    </contour>
  </outline>
</glyph>
<glyph name="LtnSmCapL" format="2">
  <advance width="903"/>
  <unicode hex="029F"/>
  <anchor x="460" y="-100" name="L"/>
  <anchor x="460" y="1100" name="U"/>
  <outline>
    <contour>
      <point x="53" y="0" type="line"/>
      <point x="346" y="0"/>
      <point x="190" y="0"/>
      <point x="868" y="0" type="curve"/>
      <point x="868" y="287" type="line"/>
      <point x="758" y="287" type="line"/>
      <point x="752" y="256"/>
      <point x="762" y="90"/>
      <point x="702" y="90" type="curve" smooth="yes"/>
      <point x="371" y="90" type="line"/>
      <point x="371" y="870" type="line" smooth="yes"/>
      <point x="371" y="885"/>
      <point x="383" y="899"/>
      <point x="406" y="901" type="curve" smooth="yes"/>
      <point x="492" y="907" type="line"/>
      <point x="492" y="987" type="line"/>
      <point x="53" y="987" type="line"/>
      <point x="53" y="907" type="line"/>
      <point x="154" y="901" type="line" smooth="yes"/>
      <point x="176" y="899"/>
      <point x="184" y="885"/>
      <point x="184" y="870" type="curve" smooth="yes"/>
      <point x="184" y="127" type="line" smooth="yes"/>
      <point x="184" y="113"/>
      <point x="176" y="88"/>
      <point x="154" y="86" type="curve" smooth="yes"/>
      <point x="53" y="80" type="line"/>
    </contour>
  </outline>
</glyph>
<glyph name="LtnSmQHook" format="2">
  <advance width="1169"/>
  <unicode hex="02A0"/>
  <anchor x="349" y="-100" name="L"/>
  <anchor x="712" y="1540" name="U"/>
  <outline>
    <contour>
      <point x="598" y="-446" type="line"/>
      <point x="1094" y="-446" type="line"/>
      <point x="1094" y="-369" type="line"/>
      <point x="993" y="-358" type="line" smooth="yes"/>
      <point x="971" y="-356"/>
      <point x="952" y="-342"/>
      <point x="952" y="-319" type="curve" smooth="yes"/>
      <point x="952" y="1100" type="line" smooth="yes"/>
      <point x="952" y="1294"/>
      <point x="985" y="1380"/>
      <point x="1073" y="1425" type="curve"/>
      <point x="1262" y="1290" type="line"/>
      <point x="1276" y="1290"/>
      <point x="1354" y="1317"/>
      <point x="1354" y="1399" type="curve" smooth="yes"/>
      <point x="1354" y="1464"/>
      <point x="1294" y="1524"/>
      <point x="1178" y="1524" type="curve" smooth="yes"/>
      <point x="934" y="1524"/>
      <point x="762" y="1335"/>
      <point x="762" y="1100" type="curve" smooth="yes"/>
      <point x="762" y="990" type="line"/>
      <point x="726" y="1006"/>
      <point x="692" y="1012"/>
      <point x="651" y="1012" type="curve" smooth="yes"/>
      <point x="285" y="1012"/>
      <point x="70" y="797"/>
      <point x="70" y="467" type="curve" smooth="yes"/>
      <point x="70" y="195"/>
      <point x="225" y="-25"/>
      <point x="477" y="-25" type="curve" smooth="yes"/>
      <point x="569" y="-25"/>
      <point x="686" y="27"/>
      <point x="762" y="63" type="curve"/>
      <point x="762" y="-319" type="line" smooth="yes"/>
      <point x="762" y="-340"/>
      <point x="745" y="-356"/>
      <point x="723" y="-358" type="curve" smooth="yes"/>
      <point x="598" y="-367" type="line"/>
    </contour>
    <contour>
      <point x="586" y="96" type="curve" smooth="yes"/>
      <point x="365" y="96"/>
      <point x="276" y="291"/>
      <point x="276" y="502" type="curve" smooth="yes"/>
      <point x="276" y="752"/>
      <point x="397" y="918"/>
      <point x="621" y="918" type="curve" smooth="yes"/>
      <point x="676" y="918"/>
      <point x="725" y="905"/>
      <point x="762" y="895" type="curve"/>
      <point x="762" y="135" type="line"/>
      <point x="717" y="119"/>
      <point x="637" y="96"/>
    </contour>
  </outline>
</glyph>
<glyph name="LtnRevGlottalStopStrk" format="2">
  <advance width="954"/>
  <unicode hex="02A2"/>
  <anchor x="477" y="-100" name="L"/>
  <anchor x="477" y="1540" name="U"/>
  <outline>
    <contour>
      <point x="242" y="0" type="line"/>
      <point x="733" y="0" type="line"/>
      <point x="733" y="80" type="line"/>
      <point x="631" y="90" type="line" smooth="yes"/>
      <point x="612" y="92"/>
      <point x="584" y="113"/>
      <point x="584" y="131" type="curve" smooth="yes"/>
      <point x="584" y="426" type="line"/>
      <point x="852" y="426" type="line"/>
      <point x="852" y="532" type="line"/>
      <point x="584" y="532" type="line"/>
      <point x="584" y="643" type="line"/>
      <point x="455" y="686"/>
      <point x="285" y="819"/>
      <point x="285" y="1022" type="curve" smooth="yes"/>
      <point x="285" y="1202"/>
      <point x="391" y="1317"/>
      <point x="502" y="1315" type="curve" smooth="yes"/>
      <point x="543" y="1315"/>
      <point x="584" y="1305"/>
      <point x="621" y="1278" type="curve"/>
      <point x="676" y="1100" type="line"/>
      <point x="676" y="1100"/>
      <point x="717" y="1069"/>
      <point x="766" y="1069" type="curve" smooth="yes"/>
      <point x="848" y="1069"/>
      <point x="874" y="1126"/>
      <point x="874" y="1186" type="curve" smooth="yes"/>
      <point x="874" y="1282"/>
      <point x="729" y="1407"/>
      <point x="506" y="1407" type="curve" smooth="yes"/>
      <point x="264" y="1407"/>
      <point x="80" y="1266"/>
      <point x="80" y="1042" type="curve" smooth="yes"/>
      <point x="80" y="782"/>
      <point x="281" y="676"/>
      <point x="393" y="625" type="curve"/>
      <point x="393" y="532" type="line"/>
      <point x="131" y="532" type="line"/>
      <point x="131" y="426" type="line"/>
      <point x="393" y="426" type="line"/>
      <point x="393" y="131" type="line" smooth="yes"/>
      <point x="393" y="113"/>
      <point x="367" y="92"/>
      <point x="348" y="90" type="curve" smooth="yes"/>
      <point x="242" y="80" type="line"/>
    </contour>
  </outline>
</glyph>
<glyph name="LtnSmTsDigraph" format="2">
  <advance width="1321"/>
  <unicode hex="02A6"/>
  <anchor x="652" y="-100" name="L"/>
  <anchor x="686" y="1363" name="U"/>
  <outline>
    <contour>
      <point x="1249" y="297" type="curve" smooth="yes"/>
      <point x="1249" y="588"/>
      <point x="774" y="549"/>
      <point x="774" y="776" type="curve" smooth="yes"/>
      <point x="774" y="856"/>
      <point x="827" y="913"/>
      <point x="940" y="913" type="curve" smooth="yes"/>
      <point x="1004" y="913"/>
      <point x="1067" y="889"/>
      <point x="1096" y="866" type="curve"/>
      <point x="1112" y="723" type="line"/>
      <point x="1219" y="723" type="line"/>
      <point x="1219" y="965" type="line"/>
      <point x="1178" y="983"/>
      <point x="1077" y="1012"/>
      <point x="956" y="1012" type="curve" smooth="yes"/>
      <point x="721" y="1012"/>
      <point x="588" y="897"/>
      <point x="588" y="715" type="curve" smooth="yes"/>
      <point x="588" y="424"/>
      <point x="1069" y="463"/>
      <point x="1069" y="227" type="curve" smooth="yes"/>
      <point x="1069" y="145"/>
      <point x="1001" y="68"/>
      <point x="885" y="68" type="curve" smooth="yes"/>
      <point x="805" y="68"/>
      <point x="743" y="98"/>
      <point x="702" y="125" type="curve"/>
      <point x="678" y="299" type="line"/>
      <point x="573" y="299" type="line"/>
      <point x="573" y="94" type="line"/>
      <point x="557" y="86"/>
      <point x="537" y="82"/>
      <point x="510" y="82" type="curve" smooth="yes"/>
      <point x="401" y="82"/>
      <point x="377" y="150"/>
      <point x="377" y="313" type="curve" smooth="yes"/>
      <point x="377" y="885" type="line"/>
      <point x="575" y="885" type="line"/>
      <point x="575" y="987" type="line"/>
      <point x="377" y="987" type="line"/>
      <point x="377" y="1235" type="line"/>
      <point x="287" y="1235" type="line"/>
      <point x="195" y="1018" type="line"/>
      <point x="55" y="952" type="line"/>
      <point x="55" y="885" type="line"/>
      <point x="186" y="885" type="line"/>
      <point x="186" y="205" type="line" smooth="yes"/>
      <point x="186" y="43"/>
      <point x="252" y="-25"/>
      <point x="406" y="-25" type="curve" smooth="yes"/>
      <point x="475" y="-25"/>
      <point x="541" y="-2"/>
      <point x="590" y="20" type="curve"/>
      <point x="641" y="2"/>
      <point x="748" y="-25"/>
      <point x="858" y="-25" type="curve" smooth="yes"/>
      <point x="1102" y="-25"/>
      <point x="1249" y="96"/>
    </contour>
  </outline>
</glyph>
<glyph name="LtnSmLSDigraph" format="2">
  <advance width="1225"/>
  <unicode hex="02AA"/>
  <anchor x="604" y="-100" name="L"/>
  <anchor x="671" y="1580" name="U"/>
  <outline>
    <contour>
      <point x="764" y="-25" type="curve" smooth="yes"/>
      <point x="1008" y="-25"/>
      <point x="1155" y="96"/>
      <point x="1155" y="297" type="curve" smooth="yes"/>
      <point x="1155" y="430"/>
      <point x="1051" y="502"/>
      <point x="908" y="565" type="curve"/>
      <point x="736" y="645"/>
      <point x="680" y="684"/>
      <point x="680" y="776" type="curve" smooth="yes"/>
      <point x="680" y="856"/>
      <point x="734" y="913"/>
      <point x="846" y="913" type="curve" smooth="yes"/>
      <point x="910" y="913"/>
      <point x="973" y="889"/>
      <point x="1002" y="866" type="curve"/>
      <point x="1018" y="723" type="line"/>
      <point x="1125" y="723" type="line"/>
      <point x="1125" y="965" type="line"/>
      <point x="1084" y="983"/>
      <point x="983" y="1012"/>
      <point x="863" y="1012" type="curve" smooth="yes"/>
      <point x="627" y="1012"/>
      <point x="494" y="897"/>
      <point x="494" y="715" type="curve" smooth="yes"/>
      <point x="494" y="592"/>
      <point x="576" y="526"/>
      <point x="725" y="455" type="curve" smooth="yes"/>
      <point x="883" y="379"/>
      <point x="975" y="342"/>
      <point x="975" y="227" type="curve" smooth="yes"/>
      <point x="975" y="145"/>
      <point x="908" y="68"/>
      <point x="791" y="68" type="curve" smooth="yes"/>
      <point x="711" y="68"/>
      <point x="650" y="98"/>
      <point x="609" y="125" type="curve"/>
      <point x="584" y="299" type="line"/>
      <point x="480" y="299" type="line"/>
      <point x="480" y="84" type="line"/>
      <point x="442" y="86" type="line"/>
      <point x="424" y="86"/>
      <point x="399" y="111"/>
      <point x="399" y="129" type="curve" smooth="yes"/>
      <point x="399" y="1509" type="line"/>
      <point x="315" y="1509" type="line"/>
      <point x="53" y="1430" type="line"/>
      <point x="53" y="1362" type="line"/>
      <point x="209" y="1362" type="line"/>
      <point x="209" y="129" type="line" smooth="yes"/>
      <point x="209" y="111"/>
      <point x="182" y="86"/>
      <point x="164" y="86" type="curve"/>
      <point x="55" y="80" type="line"/>
      <point x="55" y="0" type="line"/>
      <point x="553" y="0" type="line"/>
      <point x="609" y="-14"/>
      <point x="685" y="-25"/>
    </contour>
  </outline>
</glyph>
<glyph name="LtnSmLZDigraph" format="2">
  <advance width="1188"/>
  <unicode hex="02AB"/>
  <anchor x="586" y="-100" name="L"/>
  <anchor x="640" y="1580" name="U"/>
  <outline>
    <contour>
      <point x="1119" y="0" type="line"/>
      <point x="1119" y="309" type="line"/>
      <point x="1008" y="309" type="line"/>
      <point x="987" y="147" type="line" smooth="yes"/>
      <point x="985" y="127"/>
      <point x="961" y="98"/>
      <point x="942" y="98" type="curve" smooth="yes"/>
      <point x="529" y="98" type="line"/>
      <point x="1090" y="903" type="line"/>
      <point x="1090" y="987" type="line"/>
      <point x="399" y="987" type="line"/>
      <point x="399" y="1509" type="line"/>
      <point x="315" y="1509" type="line"/>
      <point x="53" y="1430" type="line"/>
      <point x="53" y="1362" type="line"/>
      <point x="209" y="1362" type="line"/>
      <point x="209" y="129" type="line" smooth="yes"/>
      <point x="209" y="111"/>
      <point x="182" y="86"/>
      <point x="164" y="86" type="curve"/>
      <point x="55" y="80" type="line"/>
      <point x="55" y="0" type="line"/>
    </contour>
    <contour>
      <point x="439" y="848" type="line"/>
      <point x="443" y="866"/>
      <point x="460" y="891"/>
      <point x="480" y="891" type="curve" smooth="yes"/>
      <point x="854" y="891" type="line"/>
      <point x="399" y="234" type="line"/>
      <point x="399" y="696" type="line"/>
    </contour>
  </outline>
</glyph>
<glyph name="LtnBidentalPercussive" format="2">
  <advance width="1015"/>
  <unicode hex="02AD"/>
  <anchor x="507" y="-100" name="L"/>
  <anchor x="507" y="1540" name="U"/>
  <outline>
    <contour>
      <point x="945" y="1005" type="line"/>
      <point x="945" y="1410" type="line"/>
      <point x="60" y="1410" type="line"/>
      <point x="60" y="1005" type="line"/>
      <point x="139" y="1005" type="line"/>
      <point x="139" y="1292" type="line"/>
      <point x="866" y="1292" type="line"/>
      <point x="866" y="1005" type="line"/>
    </contour>
    <contour>
      <point x="955" y="0" type="line"/>
      <point x="955" y="405" type="line"/>
      <point x="70" y="405" type="line"/>
      <point x="70" y="0" type="line"/>
      <point x="149" y="0" type="line"/>
      <point x="149" y="287" type="line"/>
      <point x="876" y="287" type="line"/>
      <point x="876" y="0" type="line"/>
    </contour>
  </outline>
</glyph>
<glyph name="ModSmHHook" format="2">
  <advance width="774"/>
  <unicode hex="02B1"/>
  <anchor x="387" y="725" name="L"/>
  <anchor x="387" y="1700" name="U"/>
  <outline>
    <contour>
      <point x="739" y="784" type="line"/>
      <point x="739" y="831" type="line"/>
      <point x="678" y="836" type="line" smooth="yes"/>
      <point x="662" y="838"/>
      <point x="649" y="848"/>
      <point x="649" y="862" type="curve" smooth="yes"/>
      <point x="649" y="1204" type="line" smooth="yes"/>
      <point x="649" y="1331"/>
      <point x="571" y="1391"/>
      <point x="469" y="1391" type="curve" smooth="yes"/>
      <point x="399" y="1391"/>
      <point x="299" y="1341"/>
      <point x="250" y="1315" type="curve"/>
      <point x="250" y="1434" type="line" smooth="yes"/>
      <point x="250" y="1569"/>
      <point x="326" y="1634"/>
      <point x="412" y="1634" type="curve" smooth="yes"/>
      <point x="440" y="1634"/>
      <point x="471" y="1630"/>
      <point x="487" y="1620" type="curve"/>
      <point x="532" y="1516" type="line"/>
      <point x="532" y="1516"/>
      <point x="547" y="1509"/>
      <point x="563" y="1509" type="curve" smooth="yes"/>
      <point x="604" y="1509"/>
      <point x="637" y="1542"/>
      <point x="637" y="1579" type="curve" smooth="yes"/>
      <point x="637" y="1669"/>
      <point x="547" y="1698"/>
      <point x="403" y="1698" type="curve" smooth="yes"/>
      <point x="176" y="1698"/>
      <point x="127" y="1497"/>
      <point x="127" y="1434" type="curve" smooth="yes"/>
      <point x="127" y="862" type="line" smooth="yes"/>
      <point x="127" y="848"/>
      <point x="115" y="838"/>
      <point x="98" y="836" type="curve" smooth="yes"/>
      <point x="35" y="831" type="line"/>
      <point x="35" y="784" type="line"/>
      <point x="336" y="784" type="line"/>
      <point x="336" y="831" type="line"/>
      <point x="279" y="836" type="line" smooth="yes"/>
      <point x="262" y="838"/>
      <point x="252" y="848"/>
      <point x="252" y="862" type="curve" smooth="yes"/>
      <point x="252" y="1266" type="line"/>
      <point x="289" y="1286"/>
      <point x="348" y="1303"/>
      <point x="395" y="1303" type="curve" smooth="yes"/>
      <point x="498" y="1303"/>
      <point x="526" y="1249"/>
      <point x="526" y="1180" type="curve" smooth="yes"/>
      <point x="526" y="862" type="line" smooth="yes"/>
      <point x="526" y="848"/>
      <point x="514" y="838"/>
      <point x="498" y="836" type="curve" smooth="yes"/>
      <point x="442" y="831" type="line"/>
      <point x="442" y="784" type="line"/>
    </contour>
  </outline>
</glyph>
<glyph name="ModSmJ" format="2">
  <advance width="410"/>
  <unicode hex="02B2"/>
  <anchor x="89" y="485" name="L"/>
  <anchor x="89" y="1650" name="U"/>
  <outline>
    <contour>
      <point x="283" y="1579" type="curve" smooth="yes"/>
      <point x="283" y="1620"/>
      <point x="248" y="1655"/>
      <point x="203" y="1655" type="curve" smooth="yes"/>
      <point x="158" y="1655"/>
      <point x="121" y="1620"/>
      <point x="121" y="1579" type="curve" smooth="yes"/>
      <point x="121" y="1538"/>
      <point x="158" y="1503"/>
      <point x="203" y="1503" type="curve" smooth="yes"/>
      <point x="248" y="1503"/>
      <point x="283" y="1538"/>
    </contour>
    <contour>
      <point x="268" y="879" type="curve"/>
      <point x="268" y="1391" type="line"/>
      <point x="213" y="1391" type="line"/>
      <point x="51" y="1343" type="line"/>
      <point x="51" y="1305" type="line"/>
      <point x="145" y="1305" type="line"/>
      <point x="145" y="772" type="line" smooth="yes"/>
      <point x="145" y="678"/>
      <point x="131" y="600"/>
      <point x="82" y="573" type="curve"/>
      <point x="-47" y="655" type="line"/>
      <point x="-74" y="647"/>
      <point x="-104" y="627"/>
      <point x="-104" y="586" type="curve" smooth="yes"/>
      <point x="-104" y="539"/>
      <point x="-59" y="516"/>
      <point x="-4" y="516" type="curve" smooth="yes"/>
      <point x="80" y="516"/>
      <point x="162" y="555"/>
      <point x="217" y="633" type="curve" smooth="yes"/>
      <point x="262" y="696"/>
      <point x="268" y="805"/>
    </contour>
  </outline>
</glyph>
<glyph name="ModSmR" format="2">
  <advance width="526"/>
  <unicode hex="02B3"/>
  <anchor x="273" y="725" name="L"/>
  <anchor x="273" y="1450" name="U"/>
  <outline>
    <contour>
      <point x="512" y="1251" type="line"/>
      <point x="512" y="1372" type="line"/>
      <point x="496" y="1382"/>
      <point x="459" y="1391"/>
      <point x="430" y="1391" type="curve" smooth="yes"/>
      <point x="367" y="1391"/>
      <point x="293" y="1307"/>
      <point x="254" y="1268" type="curve"/>
      <point x="254" y="1376" type="line"/>
      <point x="201" y="1376" type="line"/>
      <point x="35" y="1329" type="line"/>
      <point x="35" y="1288" type="line"/>
      <point x="131" y="1288" type="line"/>
      <point x="131" y="862" type="line" smooth="yes"/>
      <point x="131" y="848"/>
      <point x="119" y="838"/>
      <point x="102" y="836" type="curve" smooth="yes"/>
      <point x="37" y="831" type="line"/>
      <point x="37" y="784" type="line"/>
      <point x="371" y="784" type="line"/>
      <point x="371" y="831" type="line"/>
      <point x="283" y="836" type="line"/>
      <point x="266" y="838"/>
      <point x="254" y="848"/>
      <point x="254" y="862" type="curve" smooth="yes"/>
      <point x="254" y="1208" type="line"/>
      <point x="299" y="1255"/>
      <point x="344" y="1284"/>
      <point x="387" y="1284" type="curve" smooth="yes"/>
      <point x="420" y="1284"/>
      <point x="442" y="1270"/>
      <point x="461" y="1251" type="curve"/>
    </contour>
  </outline>
</glyph>
<glyph name="ModTurnedComma" format="2">
  <advance width="440"/>
  <unicode hex="02BB"/>
  <outline>
    <contour>
      <point x="381" y="1438" type="curve"/>
      <point x="305" y="1452" type="line"/>
      <point x="242" y="1405"/>
      <point x="80" y="1270"/>
      <point x="80" y="1071" type="curve" smooth="yes"/>
      <point x="80" y="952"/>
      <point x="145" y="881"/>
      <point x="250" y="881" type="curve" smooth="yes"/>
      <point x="324" y="881"/>
      <point x="373" y="936"/>
      <point x="373" y="1006" type="curve" smooth="yes"/>
      <point x="373" y="1040"/>
      <point x="355" y="1072"/>
      <point x="342" y="1087" type="curve"/>
      <point x="213" y="1087" type="line"/>
      <point x="213" y="1098"/>
      <point x="211" y="1114"/>
      <point x="211" y="1126" type="curve" smooth="yes"/>
      <point x="211" y="1262"/>
      <point x="305" y="1364"/>
    </contour>
  </outline>
</glyph>
<glyph name="ModApos" format="2">
  <advance width="440"/>
  <unicode hex="02BC"/>
  <outline>
    <contour>
      <point x="360" y="1262" type="curve" smooth="yes"/>
      <point x="360" y="1380"/>
      <point x="293" y="1452"/>
      <point x="190" y="1452" type="curve" smooth="yes"/>
      <point x="113" y="1452"/>
      <point x="68" y="1397"/>
      <point x="68" y="1327" type="curve" smooth="yes"/>
      <point x="68" y="1293"/>
      <point x="85" y="1260"/>
      <point x="98" y="1245" type="curve"/>
      <point x="227" y="1245" type="line"/>
      <point x="227" y="1235"/>
      <point x="229" y="1219"/>
      <point x="229" y="1208" type="curve" smooth="yes"/>
      <point x="229" y="1090"/>
      <point x="152" y="987"/>
      <point x="59" y="897" type="curve"/>
      <point x="135" y="881" type="line"/>
      <point x="198" y="928"/>
      <point x="360" y="1061"/>
    </contour>
  </outline>
</glyph>
<glyph name="ModRevGlottalStop" format="2">
  <advance width="631"/>
  <unicode hex="02C1"/>
  <anchor x="311" y="725" name="L"/>
  <anchor x="311" y="1700" name="U"/>
  <outline>
    <contour>
      <point x="158" y="784" type="line"/>
      <point x="478" y="784" type="line"/>
      <point x="478" y="831" type="line"/>
      <point x="410" y="838" type="line"/>
      <point x="398" y="840"/>
      <point x="379" y="852"/>
      <point x="379" y="862" type="curve" smooth="yes"/>
      <point x="379" y="1169" type="line"/>
      <point x="295" y="1196"/>
      <point x="187" y="1276"/>
      <point x="187" y="1397" type="curve" smooth="yes"/>
      <point x="187" y="1505"/>
      <point x="254" y="1573"/>
      <point x="326" y="1573" type="curve" smooth="yes"/>
      <point x="353" y="1573"/>
      <point x="379" y="1567"/>
      <point x="404" y="1550" type="curve"/>
      <point x="441" y="1444" type="line"/>
      <point x="460" y="1433"/>
      <point x="479" y="1425"/>
      <point x="498" y="1425" type="curve" smooth="yes"/>
      <point x="551" y="1425"/>
      <point x="570" y="1460"/>
      <point x="570" y="1495" type="curve" smooth="yes"/>
      <point x="570" y="1554"/>
      <point x="474" y="1628"/>
      <point x="328" y="1628" type="curve" smooth="yes"/>
      <point x="172" y="1628"/>
      <point x="52" y="1532"/>
      <point x="52" y="1379" type="curve" smooth="yes"/>
      <point x="52" y="1243"/>
      <point x="183" y="1168"/>
      <point x="256" y="1157" type="curve"/>
      <point x="256" y="862" type="line" smooth="yes"/>
      <point x="256" y="852"/>
      <point x="238" y="840"/>
      <point x="228" y="838" type="curve"/>
      <point x="158" y="831" type="line"/>
    </contour>
  </outline>
</glyph>
<glyph name="ModTriangularColon" format="2">
  <advance width="522"/>
  <unicode hex="02D0"/>
  <anchor x="261" y="-100" name="L"/>
  <anchor x="261" y="1100" name="U"/>
  <outline>
    <contour>
      <point x="434" y="985" type="line"/>
      <point x="88" y="985" type="line"/>
      <point x="190" y="659" type="line"/>
      <point x="332" y="659" type="line"/>
    </contour>
    <contour>
      <point x="434" y="0" type="line"/>
      <point x="332" y="326" type="line"/>
      <point x="190" y="326" type="line"/>
      <point x="88" y="0" type="line"/>
    </contour>
  </outline>
</glyph>
<glyph name="ModHalfTriangularColon" format="2">
  <advance width="522"/>
  <unicode hex="02D1"/>
  <outline>
    <contour>
      <point x="434" y="985" type="line"/>
      <point x="88" y="985" type="line"/>
      <point x="190" y="659" type="line"/>
      <point x="332" y="659" type="line"/>
    </contour>
  </outline>
</glyph>
<glyph name="ModCntrdLftHalfRing" format="2">
  <advance width="563"/>
  <unicode hex="02D3"/>
  <outline>
    <contour>
      <point x="461" y="0" type="curve"/>
      <point x="461" y="122" type="line"/>
      <point x="321" y="122"/>
      <point x="227" y="215"/>
      <point x="227" y="358" type="curve" smooth="yes"/>
      <point x="227" y="501"/>
      <point x="321" y="592"/>
      <point x="461" y="592" type="curve"/>
      <point x="461" y="717" type="line"/>
      <point x="237" y="717"/>
      <point x="92" y="562"/>
      <point x="92" y="358" type="curve" smooth="yes"/>
      <point x="92" y="154"/>
      <point x="237" y="0"/>
    </contour>
  </outline>
</glyph>
<glyph name="RingAbv" format="2">
  <advance width="487"/>
  <unicode hex="02DA"/>
  <outline>
    <contour>
      <point x="487" y="1370" type="curve" smooth="yes"/>
      <point x="487" y="1505"/>
      <point x="379" y="1616"/>
      <point x="244" y="1616" type="curve" smooth="yes"/>
      <point x="109" y="1616"/>
      <point x="0" y="1505"/>
      <point x="0" y="1370" type="curve" smooth="yes"/>
      <point x="0" y="1237"/>
      <point x="109" y="1128"/>
      <point x="244" y="1128" type="curve" smooth="yes"/>
      <point x="379" y="1128"/>
      <point x="487" y="1237"/>
    </contour>
    <contour>
      <point x="387" y="1370" type="curve" smooth="yes"/>
      <point x="387" y="1292"/>
      <point x="324" y="1227"/>
      <point x="244" y="1227" type="curve" smooth="yes"/>
      <point x="164" y="1227"/>
      <point x="100" y="1292"/>
      <point x="100" y="1370" type="curve" smooth="yes"/>
      <point x="100" y="1450"/>
      <point x="164" y="1516"/>
      <point x="244" y="1516" type="curve" smooth="yes"/>
      <point x="324" y="1516"/>
      <point x="387" y="1450"/>
    </contour>
  </outline>
</glyph>
<glyph name="DblAcuteAccent" format="2">
  <advance width="874"/>
  <unicode hex="02DD"/>
  <outline>
    <contour>
      <point x="874" y="1409" type="curve" smooth="yes"/>
      <point x="874" y="1452"/>
      <point x="852" y="1501"/>
      <point x="780" y="1501" type="curve" smooth="yes"/>
      <point x="725" y="1501"/>
      <point x="702" y="1481"/>
      <point x="674" y="1446" type="curve" smooth="yes"/>
      <point x="399" y="1128" type="line"/>
      <point x="516" y="1128" type="line"/>
      <point x="827" y="1327" type="line" smooth="yes"/>
      <point x="854" y="1346"/>
      <point x="874" y="1372"/>
    </contour>
    <contour>
      <point x="475" y="1409" type="curve" smooth="yes"/>
      <point x="475" y="1452"/>
      <point x="451" y="1501"/>
      <point x="381" y="1501" type="curve" smooth="yes"/>
      <point x="324" y="1501"/>
      <point x="303" y="1481"/>
      <point x="272" y="1446" type="curve" smooth="yes"/>
      <point x="0" y="1128" type="line"/>
      <point x="117" y="1128" type="line"/>
      <point x="426" y="1327" type="line" smooth="yes"/>
      <point x="455" y="1346"/>
      <point x="475" y="1372"/>
    </contour>
  </outline>
</glyph>
<glyph name="ModCrossAccent" format="2">
  <advance width="721"/>
  <unicode hex="02DF"/>
  <outline>
    <contour>
      <point x="674" y="1419" type="line"/>
      <point x="579" y="1514" type="line"/>
      <point x="354" y="1289" type="line"/>
      <point x="129" y="1514" type="line"/>
      <point x="34" y="1419" type="line"/>
      <point x="259" y="1194" type="line"/>
      <point x="34" y="969" type="line"/>
      <point x="129" y="874" type="line"/>
      <point x="354" y="1099" type="line"/>
      <point x="579" y="874" type="line"/>
      <point x="674" y="969" type="line"/>
      <point x="449" y="1194" type="line"/>
    </contour>
  </outline>
</glyph>
<glyph name="ModSmGamma" format="2">
  <advance width="772"/>
  <unicode hex="02E0"/>
  <anchor x="386" y="485" name="L"/>
  <anchor x="386" y="1450" name="U"/>
  <outline>
    <contour>
      <point x="760" y="1327" type="line"/>
      <point x="760" y="1376" type="line"/>
      <point x="516" y="1376" type="line"/>
      <point x="516" y="1327" type="line"/>
      <point x="584" y="1323" type="line" smooth="yes"/>
      <point x="598" y="1321"/>
      <point x="602" y="1309"/>
      <point x="598" y="1300" type="curve" smooth="yes"/>
      <point x="410" y="942" type="line"/>
      <point x="233" y="1300" type="line" smooth="yes"/>
      <point x="229" y="1309"/>
      <point x="236" y="1321"/>
      <point x="254" y="1323" type="curve" smooth="yes"/>
      <point x="317" y="1327" type="line"/>
      <point x="317" y="1376" type="line"/>
      <point x="12" y="1376" type="line"/>
      <point x="12" y="1327" type="line"/>
      <point x="94" y="1321" type="line"/>
      <point x="342" y="811" type="line"/>
      <point x="270" y="678" type="line" smooth="yes"/>
      <point x="262" y="662"/>
      <point x="258" y="645"/>
      <point x="258" y="627" type="curve" smooth="yes"/>
      <point x="258" y="571"/>
      <point x="297" y="502"/>
      <point x="397" y="502" type="curve" smooth="yes"/>
      <point x="500" y="502"/>
      <point x="543" y="588"/>
      <point x="543" y="643" type="curve" smooth="yes"/>
      <point x="543" y="657"/>
      <point x="541" y="670"/>
      <point x="535" y="680" type="curve" smooth="yes"/>
      <point x="526" y="698"/>
      <point x="478" y="796"/>
      <point x="444" y="864" type="curve"/>
      <point x="682" y="1321" type="line"/>
    </contour>
    <contour>
      <point x="422" y="633" type="curve" smooth="yes"/>
      <point x="422" y="610"/>
      <point x="408" y="573"/>
      <point x="379" y="573" type="curve" smooth="yes"/>
      <point x="350" y="573"/>
      <point x="332" y="610"/>
      <point x="332" y="633" type="curve" smooth="yes"/>
      <point x="332" y="641"/>
      <point x="334" y="649"/>
      <point x="338" y="657" type="curve" smooth="yes"/>
      <point x="342" y="666"/>
      <point x="364" y="707"/>
      <point x="379" y="735" type="curve"/>
      <point x="392" y="706"/>
      <point x="412" y="665"/>
      <point x="416" y="657" type="curve"/>
      <point x="418" y="649"/>
      <point x="422" y="641"/>
    </contour>
  </outline>
</glyph>
<glyph name="ModSmS" format="2">
  <advance width="541"/>
  <unicode hex="02E2"/>
  <anchor x="269" y="725" name="L"/>
  <anchor x="269" y="1450" name="U"/>
  <outline>
    <contour>
      <point x="236" y="770" type="curve" smooth="yes"/>
      <point x="395" y="770"/>
      <point x="489" y="842"/>
      <point x="489" y="963" type="curve" smooth="yes"/>
      <point x="489" y="1042"/>
      <point x="422" y="1085"/>
      <point x="330" y="1124" type="curve" smooth="yes"/>
      <point x="217" y="1171"/>
      <point x="180" y="1194"/>
      <point x="180" y="1249" type="curve" smooth="yes"/>
      <point x="180" y="1298"/>
      <point x="215" y="1331"/>
      <point x="289" y="1331" type="curve" smooth="yes"/>
      <point x="330" y="1331"/>
      <point x="371" y="1317"/>
      <point x="389" y="1305" type="curve"/>
      <point x="401" y="1217" type="line"/>
      <point x="469" y="1217" type="line"/>
      <point x="469" y="1362" type="line"/>
      <point x="442" y="1372"/>
      <point x="377" y="1391"/>
      <point x="299" y="1391" type="curve" smooth="yes"/>
      <point x="145" y="1391"/>
      <point x="59" y="1321"/>
      <point x="59" y="1212" type="curve" smooth="yes"/>
      <point x="59" y="1139"/>
      <point x="113" y="1100"/>
      <point x="211" y="1057" type="curve" smooth="yes"/>
      <point x="313" y="1010"/>
      <point x="373" y="989"/>
      <point x="373" y="922" type="curve" smooth="yes"/>
      <point x="373" y="872"/>
      <point x="330" y="825"/>
      <point x="254" y="825" type="curve" smooth="yes"/>
      <point x="201" y="825"/>
      <point x="160" y="842"/>
      <point x="133" y="858" type="curve"/>
      <point x="119" y="965" type="line"/>
      <point x="49" y="965" type="line"/>
      <point x="49" y="801" type="line"/>
      <point x="76" y="791"/>
      <point x="156" y="770"/>
    </contour>
  </outline>
</glyph>
<glyph name="ModSmRevGlottalStop" format="2">
  <advance width="525"/>
  <unicode hex="02E4"/>
  <anchor x="268" y="725" name="L"/>
  <anchor x="268" y="1445" name="U"/>
  <outline>
    <contour>
      <point x="124" y="785" type="line"/>
      <point x="427" y="785" type="line"/>
      <point x="427" y="833" type="line"/>
      <point x="360" y="837" type="line" smooth="yes"/>
      <point x="351" y="838"/>
      <point x="337" y="843"/>
      <point x="337" y="856" type="curve" smooth="yes"/>
      <point x="337" y="1057" type="line"/>
      <point x="249" y="1076"/>
      <point x="184" y="1123"/>
      <point x="184" y="1213" type="curve" smooth="yes"/>
      <point x="184" y="1290"/>
      <point x="225" y="1341"/>
      <point x="297" y="1341" type="curve" smooth="yes"/>
      <point x="309" y="1341"/>
      <point x="330" y="1339"/>
      <point x="342" y="1330" type="curve"/>
      <point x="386" y="1225" type="line"/>
      <point x="391" y="1224"/>
      <point x="399" y="1224"/>
      <point x="405" y="1224" type="curve" smooth="yes"/>
      <point x="442" y="1224"/>
      <point x="481" y="1246"/>
      <point x="481" y="1282" type="curve" smooth="yes"/>
      <point x="481" y="1329"/>
      <point x="414" y="1392"/>
      <point x="299" y="1392" type="curve" smooth="yes"/>
      <point x="136" y="1392"/>
      <point x="56" y="1320"/>
      <point x="56" y="1213" type="curve" smooth="yes"/>
      <point x="56" y="1108"/>
      <point x="127" y="1069"/>
      <point x="215" y="1041" type="curve"/>
      <point x="215" y="856" type="line" smooth="yes"/>
      <point x="215" y="843"/>
      <point x="201" y="838"/>
      <point x="192" y="837" type="curve" smooth="yes"/>
      <point x="124" y="833" type="line"/>
    </contour>
  </outline>
</glyph>
